<svg width="611" height="640" viewBox="0 0 611 640" fill="none" xmlns="http://www.w3.org/2000/svg">
<path d="M557.844 169.905C562.099 170.655 566.179 172.19 569.894 174.439L572.638 175.869L573.894 176.551L574.192 176.722L575.216 177.301L575.58 177.506L576.572 178.051L576.968 178.29L577.927 178.836L578.323 179.075L579.314 179.655L579.645 179.86L580.834 180.577L582.089 181.397L582.255 181.396L583.312 182.079L583.642 182.284L584.435 182.831L584.864 183.104L585.524 183.583L585.954 183.857L586.581 184.336L586.977 184.61L587.571 185.055L587.934 185.329L588.494 185.774L588.791 186.014L589.55 186.665L590.967 187.9C592.418 189.134 594.001 190.436 595.584 191.704L597.694 193.417C603.302 197.871 608.483 201.704 608.483 201.704C608.483 201.704 604.033 194.053 598.972 183.983C598.515 183.086 598.025 182.155 597.569 181.189C596.622 179.292 595.676 177.326 594.763 175.359C593.85 173.393 592.905 171.323 592.026 169.321C584.96 153.137 581.816 144.123 577.662 140.592C573.508 137.061 567.516 130.982 568.783 126.606C570.05 122.229 572.214 114.069 567.494 114.492C567.152 114.466 566.807 114.469 566.464 114.501L566.066 114.505L565.2 114.72L564.735 114.725L563.769 115.011L563.304 115.015L562.171 115.441L561.74 115.444L560.406 116.011L560.107 116.013C554.839 118.347 548.794 122.143 546.733 126.215C544.201 130.88 545.554 135.718 544.606 141.512C544.534 142.015 544.43 142.514 544.294 143.004C544.29 143.455 544.054 143.907 543.917 144.393C543.902 144.462 543.901 144.533 543.915 144.601C543.774 145.064 543.604 145.517 543.405 145.957L543.402 146.269C543.165 146.825 542.894 147.382 542.624 147.973C541.61 149.957 540.564 151.872 539.551 153.752C537.634 157.083 535.992 160.575 534.644 164.189C534.047 164.865 533.547 165.629 533.162 166.454C532.652 167.97 532.326 169.545 532.192 171.139L531.992 171.141L531.986 171.869L531.988 171.626C531.873 171.381 531.775 171.127 531.696 170.867L531.698 170.59C531.698 170.59 531.7 170.347 531.702 170.208C531.689 170.036 531.69 169.862 531.706 169.689L531.708 169.481L531.514 168.894C531.441 168.669 531.387 168.438 531.354 168.202L531.357 167.856L531.165 166.991C531.165 166.991 531.167 166.784 531.168 166.68C531.009 165.884 530.884 164.985 530.759 164.05C530.774 163.935 530.775 163.819 530.762 163.704L530.772 162.561L530.775 162.179C530.779 161.729 530.783 161.279 530.787 160.828C530.791 160.378 530.787 160.828 530.789 160.62C530.791 160.412 530.798 159.546 530.803 158.992C530.808 158.438 530.805 158.784 530.806 158.68C530.807 158.576 530.814 157.779 530.817 157.329C530.803 157.156 530.804 156.982 530.822 156.809L531.032 155.56L531.037 155.04C531.042 154.452 531.313 153.86 531.484 153.27C531.861 151.984 532.27 150.699 532.68 149.448C533.943 145.884 534.887 142.21 535.499 138.475L535.495 138.926C535.515 138.834 535.516 138.74 535.497 138.649C535.497 138.649 535.499 138.441 535.5 138.337L535.514 136.778L535.518 136.293C535.522 135.808 535.526 135.357 535.53 134.872C535.535 134.387 535.534 134.491 535.536 134.283L535.348 132.968L535.353 132.31C535.357 131.894 535.161 131.48 535.032 131.031L534.839 130.34C534.7 129.905 534.537 129.478 534.352 129.062C534.28 128.826 534.193 128.596 534.092 128.372C533.897 127.923 533.635 127.475 533.407 126.992C533.179 126.509 533.211 126.578 533.08 126.372C532.949 126.165 532.261 125.063 531.802 124.374C530.424 122.481 528.846 120.555 527.202 118.664C526.643 118.011 526.084 117.392 525.492 116.774C523.188 114.3 520.718 111.932 518.244 109.91L516.365 108.334C515.145 107.34 513.924 106.381 512.736 105.491C510.233 103.568 507.529 101.942 504.674 100.644C504.21 100.436 503.735 100.256 503.251 100.102L502.819 100.106L502.321 100.11L501.691 99.9428L501.027 99.9487L500.298 99.782L500.098 99.7838L499.334 99.7906L498.306 99.6267L497.874 99.6305L497.442 99.6344L496.446 99.6434L495.582 99.6511L495.117 99.6553L493.523 99.6696L492.626 99.6776L491.596 99.6868L490.699 99.6949L489.637 99.7044L482.395 99.7693L481.565 99.7768L480.834 99.7833L480.004 99.7908L479.439 99.7958L477.477 100.056L476.346 100.274C471.288 101.359 453.462 100.237 444.584 105.132C435.707 110.027 424.962 115.701 431.194 117.169C437.425 118.638 449.511 119.084 453.376 121.474L473.792 134.144C475.973 135.485 478.068 136.97 480.064 138.591C482.103 140.043 483.846 141.898 485.198 144.054L485.426 144.571C485.521 144.758 485.597 144.954 485.653 145.158C486.724 148.024 487.183 152.558 479.884 151.654C479.618 151.673 479.352 151.675 479.086 151.661C469.766 150.151 451.035 134.764 444.16 130.98C437.284 127.196 424.867 122.769 417.324 127.063C409.78 131.357 398.165 145.388 393.847 153.118C391.318 158.377 390.722 164.389 392.172 170.005C401.937 166.057 411.956 162.864 422.147 160.451L425.108 159.905L427.801 159.569L434.212 159.512L435.441 159.501L435.641 159.499L437.002 159.487L438.497 159.473C450.048 160.585 461.458 162.802 472.583 166.096C476.32 167.968 484.327 171.499 476.527 174.687C468.727 177.875 436.961 175.631 428.773 173.868C420.584 172.106 395.78 171.323 389.368 175.399C386.214 178.391 383.827 182.155 382.43 186.34C380.785 177.001 376.325 155.215 369.666 145.644C368.911 144.611 368.223 143.474 367.537 142.199L367.046 141.371C366.261 139.947 365.477 138.464 364.693 136.924C363.191 134.027 361.623 130.958 359.756 127.926C359.461 127.478 359.2 127.03 358.904 126.617C358.921 126.525 358.922 126.431 358.907 126.34L358.153 125.203C358.068 125.094 357.992 124.979 357.923 124.859L357.168 123.826L356.873 123.448C356.643 123.104 356.38 122.794 356.15 122.484C356.03 122.344 355.921 122.194 355.822 122.037L355.033 121.109L354.671 120.696L353.816 119.734L353.454 119.356L352.5 118.36L352.17 118.051L350.819 116.781C350.358 116.37 349.864 115.924 349.336 115.513L349.138 115.341L347.818 114.314L347.323 113.972L346.168 113.185L345.54 112.775L344.417 112.058L343.723 111.614L342.566 111.001C342.313 110.832 342.048 110.684 341.773 110.557L340.616 109.979L339.756 109.571L338.532 108.993L337.605 108.62L336.281 108.077L335.321 107.705L333.864 107.199L332.937 106.895L331.247 106.39L330.386 106.121L327.702 105.452L324.387 104.72L323.358 104.556L320.738 104.129L319.709 104.138L316.39 103.787L316.058 103.79L312.307 103.546L311.776 103.551L308.454 103.581L307.79 103.587C304.235 103.619 300.615 103.651 297.058 103.926L293.402 104.235L292.671 104.242L289.613 104.547L288.949 104.553C286.522 104.851 284.094 105.15 281.733 105.518L281.201 105.523L278.208 106L277.577 106.006L274.251 106.52C261.378 108.784 250.959 111.337 246.243 111.31C235.682 111.231 241.258 92.6123 246.074 88.793C248.148 87.1461 256.43 85.7554 266.368 84.9388L271.287 84.6176L271.486 84.6158L273.712 84.5958L274.442 84.5893L276.369 84.572L289.656 84.4529L291.649 84.435L292.313 84.429L293.808 84.4156L294.605 84.4085L295.933 84.3966L296.731 84.3894L297.96 84.3784L298.724 84.3716L299.886 84.3611L300.584 84.3549L301.778 84.5173L302.343 84.5123L303.935 84.7751L306.82 85.269L316.208 86.6398L320.487 87.1904C331.735 88.5792 341.924 89.4926 341.924 89.4926C341.924 89.4926 329.794 82.6725 314.996 73.2435L310.901 70.578C308.126 68.7668 305.286 66.8869 302.48 64.9373C299.674 62.9878 296.802 61.0041 294.029 58.985C271.785 42.7633 260.411 33.0265 251.887 31.6479C243.363 30.2693 230.371 27.0253 228.739 19.938C227.107 12.8506 223.832 -0.0421478 217.682 4.41276C217.218 4.76296 216.771 5.13694 216.343 5.53334C216.173 5.65453 216.015 5.7954 215.875 5.95325L214.803 6.96756L214.266 7.56131C213.898 7.9457 213.529 8.3301 213.16 8.78379C212.964 8.9647 212.785 9.16342 212.623 9.37754L211.348 10.8786C211.201 11.0846 211.044 11.2826 210.878 11.4718L209.466 13.3552L209.13 13.774C203.551 21.3763 198.047 31.611 198.116 39.0242C198.041 47.5818 203.773 53.0042 206.885 61.7758C207.144 62.501 207.403 63.2608 207.629 64.0556C207.822 64.7468 208.015 65.5071 208.174 66.2679C208.189 66.3942 208.188 66.5224 208.171 66.649C208.165 67.3766 208.424 68.1018 208.55 68.8975C208.532 69.0704 208.531 69.2445 208.545 69.4171C208.666 70.404 208.735 71.3981 208.752 72.3947C208.722 75.8594 208.891 79.3222 208.927 82.7863C208.833 89.0197 209.257 95.2404 210.193 101.379C209.87 102.789 209.767 104.241 209.89 105.677C210.325 108.196 211.086 110.637 212.152 112.932L211.753 112.936C211.75 113.282 212.112 113.625 212.309 113.97C212.212 113.862 212.101 113.77 211.979 113.696L210.989 112.943L210.626 112.634L210.165 112.222L209.934 112.017L209.308 111.468L209.077 111.227L208.353 110.541L207.563 109.751L207.168 109.339C206.871 109.03 206.542 108.687 206.247 108.308L205.917 107.965C204.994 106.868 204.128 105.719 203.324 104.523C203.217 104.4 203.129 104.261 203.061 104.11C202.7 103.628 202.372 103.146 202.045 102.63C201.924 102.466 201.815 102.293 201.717 102.113L200.637 100.286C200.595 100.187 200.54 100.094 200.473 100.011C200.081 99.2867 199.689 98.4935 199.331 97.6999C199.242 97.5581 199.166 97.408 199.102 97.2515C198.809 96.6306 198.549 95.9747 198.289 95.3188L197.964 94.4902C197.737 93.8686 197.51 93.2472 197.316 92.6253C197.215 92.3545 197.129 92.0776 197.057 91.7961C196.756 90.8923 196.509 89.9689 196.318 89.0313C195.838 86.9223 195.424 84.8474 195.01 82.8072C194.044 76.9044 192.548 71.1186 190.544 65.5253L190.547 65.2481L190.351 64.8341L190.156 64.3855C189.83 63.6262 189.471 62.8673 189.112 62.143L188.719 61.4883C188.38 60.8363 188.009 60.2037 187.607 59.5929L187.082 58.8007L185.834 57.149C185.604 56.8739 185.407 56.5986 185.177 56.3581C184.947 56.1177 184.256 55.3617 183.762 54.8811C183.504 54.6001 183.228 54.3365 182.938 54.0917C182.444 53.6111 181.883 53.1658 181.323 52.7205L180.399 52.0012C179.772 51.5564 179.078 51.1469 178.384 50.7027L177.459 50.1222C176.402 49.5427 175.31 48.9981 174.152 48.4889C170.619 46.9545 167.005 45.6223 163.326 44.498L159.516 43.3543C154.381 41.9106 149.11 40.7107 144.003 39.8211L140.222 39.2315C137.701 38.873 135.279 38.5829 132.955 38.3959C127.97 37.8857 122.937 37.9308 117.941 38.5305C117.097 38.5539 116.253 38.6309 115.415 38.761L114.683 38.9407L113.884 39.1558L112.885 39.4419L111.852 39.7976L110.687 40.1546L110.354 40.1575L109.188 40.6183L107.622 41.2213L106.988 41.5041L106.355 41.787L104.854 42.4587L103.62 43.0241L102.92 43.3767L102.186 43.7297L100.918 44.3647L99.4165 45.175L98.7465 45.8392L97.9788 46.2618L96.4769 47.1067L95.2086 47.811L94.9078 48.0215C94.5525 48.2002 94.207 48.4 93.873 48.6198L92.6376 49.3584L91.4019 50.1316L91.0012 50.3778L90.066 50.975L88.8301 51.7829L87.6608 52.5556L86.5248 53.328L85.3888 54.1003L84.4195 54.8018L83.3499 55.5736L82.6143 56.1345C81.6782 56.8358 80.8088 57.5018 80.0726 58.132L78.667 59.3572C72.4391 65.0946 46.7147 78.4552 38.0559 92.529C29.3972 106.603 18.358 123.227 28.3496 120.089C38.3411 116.95 55.3635 107.409 62.637 107.448L100.864 107.694C104.941 107.723 109.009 107.999 113.046 108.52C117.008 108.813 120.865 109.896 124.411 111.709L125.137 112.223L125.896 112.839C129.589 115.89 133.69 121.708 122.819 126.725L121.618 127.255C107.486 132.959 69.5347 127.722 56.9761 128.146C44.4176 128.571 23.7194 133.052 16.5385 145.242C9.35764 157.432 3.89123 186.304 3.83437 200.439C3.77751 214.575 14.4484 224.941 14.4484 224.941C25.0137 211.408 36.5033 198.684 48.8247 186.871C50.0634 185.752 51.3018 184.667 52.5393 183.686C53.6877 182.723 54.8818 181.822 56.1167 180.986L57.687 179.933L58.3214 179.546L59.3901 178.878L60.3582 178.315L61.1928 177.822L62.4279 177.118L63.0952 176.766L64.5969 175.956L65.0644 175.674L66.8324 174.793L67.1329 174.617L69.1011 173.629L71.269 172.605C91.2805 163.071 118.897 153.678 123.983 153.217C130.631 152.603 144.53 150.781 136.065 161.665C127.6 172.55 81.5602 196.036 68.8014 200.377C56.0426 204.718 20.7629 224.504 14.9209 235.504C9.07898 246.503 18.6067 292.737 26.228 298.592L27.6135 299.689L29.1638 300.922L29.3616 301.093L31.1093 302.533L31.34 302.739L33.2524 304.35L33.4502 304.521C34.154 305.069 34.8464 305.652 35.5274 306.269L42.4835 312.235C49.7359 318.51 56.2949 324.306 56.2949 324.306C56.2949 324.306 57.4515 321.177 59.2518 316.588L60.9501 312.277L60.9525 312L61.767 310.018L61.7706 309.602C62.0762 308.837 62.3821 308.038 62.7209 307.273L62.7227 307.065C62.9945 306.369 63.2998 305.639 63.6048 304.944L63.8424 304.352L64.758 302.196L64.7601 301.954L65.7766 299.658L66.0816 298.963C66.3192 298.372 66.5901 297.78 66.8609 297.189C66.965 296.987 67.0556 296.778 67.1321 296.563C67.4706 295.832 67.8091 295.102 68.1809 294.371C68.246 294.191 68.3253 294.016 68.4179 293.849L69.2299 292.144L69.5346 291.483L70.4813 289.569L70.4828 289.396L71.4627 287.482L71.7662 286.96L72.5423 285.567L72.7784 285.149C73.0822 284.592 73.4189 284.069 73.7221 283.582L73.9241 283.268L74.631 282.188L74.8997 281.839C75.2023 281.42 75.4714 281.037 75.7398 280.723L77.4185 278.664L77.9898 277.896L79.3339 276.118L79.9726 275.246L81.5525 273.084L82.0903 272.351L84.3768 269.144C87.2353 265.099 90.4298 260.601 93.7905 256.102C95.5383 253.731 97.3525 251.359 99.1655 249.125C99.3669 248.881 99.5351 248.637 99.7363 248.427L100.878 246.997L102.019 245.635L103.026 244.414L104.301 242.947L105.24 241.9C105.71 241.341 106.213 240.817 106.682 240.293L107.453 239.489C108.158 238.721 108.895 237.987 109.632 237.287C110.368 236.588 110.804 236.133 111.407 235.574L111.775 235.224L113.583 233.545L113.952 233.195L115.726 231.551L115.927 231.376L117.802 229.696L118.338 229.206L120.145 227.597L120.681 227.107L122.254 225.742L122.689 225.391L124.462 223.851L125.132 223.256L126.772 221.856L127.407 221.33L128.712 220.21L129.315 219.685L130.787 218.425L131.523 217.864L132.962 216.638L133.464 216.218L134.568 215.307L135.036 214.887L136.341 213.836L136.742 213.486L138.013 212.47L139.218 211.49L140.255 210.649L141.96 209.282C141.96 209.282 155.38 193.953 161.932 204.288C168.485 214.622 148.839 227.998 128.665 248.445C117.833 260.46 104.434 273.467 93.838 284.926L90.4861 288.42C89.4467 289.538 88.4406 290.656 87.5011 291.738L84.7161 294.985L82.1647 298.091L79.88 301.091C79.1737 302.102 78.5009 303.078 77.9283 303.984C69.3083 317.433 69.329 330.286 68.8132 339.922C68.2974 349.557 72.3422 361.82 81.4407 377.293C81.9882 378.238 82.5903 379.147 83.2437 380.014C83.9337 380.874 84.6566 381.768 85.446 382.662L87.9475 385.272L90.715 387.846L90.9457 388.051C100.646 396.128 111.097 403.182 122.149 409.112L122.157 408.211C122.16 407.865 122.164 407.415 122.168 406.93L122.419 404.779C122.427 403.913 122.668 402.906 122.811 401.762C122.954 400.617 123.097 399.403 123.275 398.051L123.277 397.808C123.635 394.86 124.064 391.392 124.564 387.404L124.779 385.566L125.314 381.334L125.323 380.329C126.216 373.15 127.254 364.618 128.503 354.699C133.007 318.075 143.044 302.083 153.585 289.275C164.126 276.466 182.423 254.095 188.355 266.999C194.288 279.902 181.915 289.471 164.902 313.147C147.889 336.822 135.808 366.343 134.439 378.55C133.071 390.757 136.303 393.326 136.207 408.12C136.112 422.914 137.866 427.436 145.487 433.258C147.994 435.21 152.088 438.118 156.577 441.265L159.45 443.214L160.176 443.692L161.563 444.615L162.488 445.23L164.47 446.529L165.725 447.349L166.748 448.033L168.532 449.126L169.325 449.638L171.043 450.697L171.77 451.141L172.959 451.823L173.653 452.267L174.248 452.608L174.48 452.606L175.439 453.152L175.868 453.39L176.96 453.97L177.29 454.14L177.523 454.138L178.184 454.444L178.55 454.44L179.013 454.644L179.345 454.641L179.644 454.638L180.604 454.976L184.745 456.29C189.149 457.74 192.261 458.925 192.261 458.925L178.056 427.319C178.056 427.319 172.463 394.492 173.506 373.904C173.518 372.553 173.729 371.165 173.908 369.743C173.908 369.743 173.908 369.743 173.91 369.466C173.922 368.149 174.332 366.795 174.61 365.441C174.626 365.314 174.627 365.186 174.613 365.06C174.89 363.741 175.234 362.387 175.578 361.067L175.581 360.686C175.969 359.32 176.38 357.965 176.812 356.622L176.815 356.345C177.292 354.954 177.802 353.564 178.345 352.208C179.92 348.143 181.844 344.23 184.094 340.516C188.912 332.644 194.37 327.606 198.541 329.128C207.612 332.511 193.567 362.534 192.703 366.387C192.185 368.678 189.792 380.271 187.714 393.801C187.712 394.009 187.711 394.182 187.709 394.355C187.393 396.402 187.075 398.483 186.791 400.634L186.784 401.431L186.035 407.361L186.025 408.436C185.775 410.551 185.557 412.632 185.373 414.712L185.361 416.028C185.343 418.142 185.026 420.258 184.941 422.303C184.726 426.347 184.992 430.394 185.733 434.352C187.325 442.581 190.537 450.349 195.166 457.167C196.346 458.958 197.561 460.61 198.743 462.193C199.924 463.776 201.174 465.185 202.325 466.491C203.476 467.797 204.562 468.965 205.617 469.926C206.1 470.433 206.618 470.903 207.166 471.332L207.727 471.743L208.849 472.53L209.576 472.939L210.634 473.518L211.428 473.858L212.487 474.299C212.757 474.415 213.034 474.517 213.315 474.603L214.375 474.94L215.203 475.175L216.297 475.442L217.126 475.608L218.154 475.772L218.984 475.765L219.981 475.756L220.745 475.749L221.741 475.74L228.385 475.68L228.75 475.677C230.039 476.934 231.467 478.026 233.006 478.93L233.469 479.203L235.551 480.397L236.212 480.738C237.105 481.215 238.064 481.656 239.123 482.132C248.123 485.748 257.74 487.497 267.443 487.282C269.502 487.264 271.495 487.246 273.457 486.951C268.345 501.929 272.661 494.476 268.134 510.799L280.701 520.907C285.192 504.792 284.145 506.845 289.222 492.076C298.642 478.639 308.733 465.724 319.452 453.385C320.271 455.584 320.689 457.929 320.687 460.302L320.288 467.997C326.203 463.076 331.577 457.485 336.31 451.328L338.092 456.405C340.068 462.207 341.848 467.526 341.848 467.526L345.763 464.27L347.97 462.483L348.974 461.677L349.208 461.502L350.412 460.556L351.515 459.714L351.849 459.469L352.986 458.592L354.223 457.646L354.558 457.366L355.527 456.664L355.862 456.419L357.098 455.542L357.366 455.331L358.302 454.665L358.669 454.419L359.772 453.681L360.874 452.979L361.208 452.768L362.009 452.276L362.275 452.273L363.243 451.71L363.442 451.708L364.176 451.355L364.409 451.353L365.209 451L366.708 450.432L367.242 450.219L368.508 449.688L369.109 449.406L370.609 448.734L371.109 448.522L373.31 447.497C376.078 446.225 379.146 444.812 382.28 443.468C383.947 442.725 385.614 442.017 387.28 441.379L387.814 441.166L388.847 440.776L389.88 440.385L390.779 440.065L391.912 439.674L392.712 439.39L393.977 438.998L394.643 438.784L396.474 438.317L397.939 437.957L398.238 437.955L399.702 437.63L400.001 437.627L401.465 437.302L402.995 437.011L403.427 437.007L404.891 436.752L405.323 436.748L406.554 436.529L406.919 436.526L408.316 436.271L408.848 436.266L410.178 436.046L410.676 436.042L411.708 435.859L412.173 435.855L413.337 435.671L413.901 435.666L415.032 435.483L415.464 435.479L416.294 435.472L416.693 435.468L417.69 435.459L418.022 435.456L419.018 435.447L419.948 435.439L420.745 435.432L422.043 435.212C422.043 435.212 433.802 431.192 434.298 439.052C434.794 446.911 420.173 447.735 403.194 452.322C392.94 455.082 381.856 457.814 372.731 460.563L369.934 461.42L367.303 462.275L364.837 463.163L362.538 464.05L360.437 464.935L358.503 465.887C351.842 469.741 346.385 475.538 342.813 482.553C339.646 487.674 338.082 495.691 338.314 507.156C338.261 507.849 338.255 508.543 338.296 509.235C338.289 509.974 338.416 510.7 338.675 511.414C338.669 512.142 339.028 512.901 339.22 513.661C339.413 514.421 339.672 515.216 339.931 515.976L339.929 516.184C342.692 523.787 346.166 531.078 350.301 537.951L350.638 537.463L351.108 536.835L351.882 535.754L352.991 534.22C353.394 533.662 353.865 533.034 354.336 532.337L358.202 527.036L358.874 526.095L360.421 523.968L360.79 523.48C363.446 519.818 366.539 515.495 370.204 510.473C383.651 491.922 393.862 486.461 403.359 482.911C412.856 479.362 429.385 473.081 428.708 482.095C428.032 491.108 418.655 492.301 402.217 499.654C385.778 507.008 370.625 519.234 366.253 525.509C361.88 531.784 362.856 534.201 358.301 542.279C353.747 550.357 353.389 553.374 355.697 559.07C356.478 560.934 357.781 563.867 359.248 567.075L360.193 569.076L360.421 569.594L360.911 570.559L361.205 571.18L361.89 572.525C362.012 572.823 362.154 573.111 362.315 573.388C362.421 573.636 362.541 573.878 362.674 574.112L363.261 575.319L363.555 575.836L364.143 576.974L364.405 577.457C364.402 577.734 364.699 577.974 364.83 578.215L365.092 578.663L365.321 579.042C365.453 579.241 365.573 579.448 365.681 579.663L365.678 579.94L366.071 580.594L366.07 580.802L366.299 581.181L366.463 581.388L366.627 581.663L366.625 581.837L366.624 582.01L367.051 582.491L368.86 584.588C370.8 586.823 372.147 588.473 372.147 588.473L374.033 566.527C377.698 555.916 382.233 545.641 387.586 535.815C388.024 535.118 388.528 534.386 389.066 533.689C389.57 533.026 390.074 532.363 390.644 531.7L390.812 531.525C391.349 530.897 391.919 530.268 392.522 529.639L392.688 529.637C393.291 529.043 393.928 528.414 394.564 527.854L396.638 526.103C398.733 524.387 400.97 522.871 403.321 521.574C408.26 518.862 412.718 518.025 414.494 520.088C418.371 524.834 401.76 536.727 400.117 538.543C399.177 539.66 394.446 545.142 389.206 551.91L389.004 552.189C388.231 553.2 387.425 554.247 386.652 555.328L386.35 555.712L384.131 558.746L383.761 559.269C382.999 560.338 382.259 561.418 381.541 562.51L381.07 563.173C380.329 564.288 379.622 565.403 378.949 566.483C377.617 568.665 376.537 571.001 375.733 573.441C374.121 578.479 373.509 583.79 373.936 589.046C373.924 590.398 374.178 591.712 374.333 592.958C374.489 594.203 374.744 595.379 374.968 596.416C375.191 597.454 375.414 598.526 375.639 599.424C375.863 600.323 375.897 600.288 376.059 600.702C376.222 601.117 376.057 600.979 376.222 601.117C376.339 601.388 376.47 601.653 376.614 601.91L376.842 602.358C376.973 602.584 377.115 602.803 377.268 603.013L377.563 603.46L378.023 604.08L378.351 604.493L378.845 605.042C378.948 605.185 379.07 605.312 379.207 605.42L379.701 605.935L380.096 606.278L380.59 606.724L381.019 607.067L381.514 607.444L381.91 607.752L382.405 608.094L382.769 608.333L383.264 608.675L383.594 608.88L384.057 609.153L384.387 609.323L384.784 609.562L385.05 609.56L385.413 609.73L385.613 609.728L385.878 609.726L386.078 609.724C386.41 610.826 386.846 611.889 387.379 612.899C387.389 613.003 387.388 613.107 387.376 613.211C387.638 613.625 387.867 614.073 388.162 614.521L388.391 614.934L389.538 616.656C393.279 621.587 397.912 625.698 403.183 628.763C408.733 632.178 414.562 634.065 418.559 632.748C421.036 631.87 423.561 631.153 426.118 630.601L426.981 630.594L427.613 630.588C427.918 630.643 428.21 630.758 428.473 630.927C429.266 631.439 430.11 626.097 430.092 620.519C430.078 618.63 429.962 616.746 429.742 614.875C429.526 613.076 429.245 611.034 428.997 608.923C428.501 604.874 428.042 600.444 427.944 596.426C427.948 595.976 427.951 595.56 427.955 595.144C427.925 593.374 428.018 591.602 428.234 589.841C428.238 589.391 428.242 588.906 428.246 588.421C428.25 587.936 428.249 588.074 428.251 587.901C428.252 587.728 428.256 587.278 428.259 586.931L428.26 586.792C428.28 586.481 428.282 586.168 428.268 585.857C428.287 585.615 428.289 585.371 428.275 585.129L428.305 581.665C428.308 581.353 428.31 581.076 428.313 580.764L428.321 579.863C428.323 579.551 428.326 579.274 428.329 578.962L428.336 578.062C428.109 574.235 428.142 570.391 428.437 566.559C429.213 561.39 434.63 553.408 437.327 564.054C440.099 579.952 441.68 596.073 442.054 612.271C441.683 616.778 442.117 627.894 439.59 632.005L437.064 636.081C437.064 636.081 450.166 634.231 457.726 628.135C458.339 627.665 458.91 627.138 459.433 626.561L460.774 625.198L461.008 624.988L462.113 623.974L462.279 623.972L463.417 623.026C463.802 622.7 464.204 622.396 464.62 622.115C467.026 620.223 469.742 618.812 472.628 617.955C472.628 617.955 472.057 603.444 471.344 589.974C471.349 589.385 471.354 588.796 471.36 588.207L471.37 586.96C471.377 586.267 471.383 585.574 471.389 584.881L471.395 584.119C471.402 583.288 471.409 582.491 471.25 581.73L471.254 581.245C471.263 580.275 471.104 579.376 471.046 578.51C470.987 577.644 471.056 577.367 471.061 576.778C471.066 576.189 471.063 576.466 471.065 576.327L470.878 574.909L470.882 574.458C468.923 564.496 466.061 554.766 462.333 545.399L461.261 542.707C460.644 541.119 460.059 539.634 459.473 538.288C458.594 536.218 457.812 534.423 457.128 532.974C456.443 531.525 455.985 530.663 455.592 530.009C452.516 524.77 445.772 513.572 451.437 507.597C455.292 503.544 457.512 504.078 459.692 509.359L459.69 509.601C459.852 509.981 459.982 510.361 460.111 510.741C460.18 510.884 460.234 511.035 460.274 511.19L460.792 512.709L460.788 513.16C460.95 513.643 461.078 514.162 461.24 514.68L461.236 515.061C461.43 515.683 461.623 516.374 461.783 517.066L461.945 517.618C462.138 518.31 462.331 519.07 462.523 519.831C463.197 522.561 464 525.672 464.868 528.99C468.661 543.403 474.015 561.785 478.855 570.437C479.345 571.334 479.802 572.23 480.226 573.196L480.519 573.887C480.909 574.784 481.3 575.716 481.624 576.648C481.947 577.65 482.27 578.687 482.56 579.723C482.559 579.896 482.557 580.07 482.555 580.278C482.812 581.28 483.069 582.317 483.293 583.32C484.617 589.774 484.951 596.423 484.283 603.023C483.992 606.53 483.036 609.953 481.472 613.095C481.472 613.095 499.405 594.296 507.855 585.143L508.761 584.165L509.029 583.851L509.666 583.152L509.968 582.838L510.438 582.279L510.706 581.965L511.075 581.512C511.162 581.439 511.24 581.357 511.31 581.267L511.579 580.918L511.848 580.569C511.934 580.42 511.992 580.254 512.018 580.083C512.041 579.84 512.043 579.597 512.024 579.355L512.036 578.039C512.039 577.657 512.042 577.276 512.046 576.826C512.05 576.41 512.054 575.925 512.058 575.44L512.06 575.232C512.064 574.747 512.069 574.262 512.073 573.742L512.075 573.5C512.08 572.98 511.918 572.462 511.857 571.908C511.862 571.319 511.701 570.732 511.606 570.144C510.6 563.674 509.133 556.724 509.133 556.724C509.133 556.724 498.99 535.336 497.659 524.123C496.329 512.91 484.658 491.536 481.016 486.441C477.373 481.347 468.92 464.308 479.619 471.418C490.318 478.528 508.076 506.5 512.445 515.849C512.422 518.517 516.283 525.169 520.444 531.748C525.115 540.818 529.98 550.37 531.244 553.962C532.508 557.554 534.296 562.007 535.532 565.01L535.727 565.458L535.725 565.77L535.92 566.219L535.918 566.461L536.145 567.048L536.143 567.325L536.141 567.533L536.139 567.81L536.135 568.191C538.677 565.538 540.93 562.601 542.854 559.436C544.625 556.675 546.119 553.736 547.315 550.665C551.46 540.027 559.701 524.364 556.1 518.368C555.986 518.128 555.855 517.897 555.707 517.679L555.709 517.505L555.349 516.885L555.351 516.608L554.958 515.953L554.96 515.745L554.47 514.849C554.076 514.229 553.684 513.539 553.259 512.781L552.964 512.264C552.727 511.91 552.508 511.541 552.31 511.161C546.549 501.374 537.449 486.074 532.645 480.92C526.062 474.051 496.591 448.644 494.113 447.142C491.635 445.64 491.428 438.851 502.363 445.613C512.169 451.556 520.982 459.101 528.473 467.966C536.431 477.145 547.13 484.255 549.964 490.708C551.624 494.718 552.976 498.865 554.007 503.109L554.263 504.25C554.263 504.25 561.508 484.68 560.595 475.127C560.603 474.295 560.61 473.464 560.617 472.598L560.622 472.009C560.632 470.934 560.641 469.895 560.651 468.786C560.669 466.708 560.688 464.525 560.708 462.238C560.727 461.903 560.73 461.568 560.716 461.234L560.718 461.026C560.704 460.749 560.707 460.471 560.726 460.194L560.728 459.917L560.735 459.12L560.738 458.808C560.756 458.543 560.758 458.277 560.745 458.011C560.745 458.011 560.746 457.804 560.748 457.665C560.749 457.526 560.752 457.18 560.754 456.903C560.771 456.788 560.772 456.671 560.757 456.556C560.759 456.314 560.762 456.036 560.764 455.759C560.75 455.656 560.75 455.551 560.767 455.447C560.77 455.136 560.606 454.86 560.542 454.583C560.531 454.492 560.532 454.398 560.544 454.306C560.548 453.925 560.319 453.546 560.189 453.166C560.192 452.785 559.93 452.372 559.767 451.992L559.769 451.819L559.379 450.818L559.216 450.473L558.858 449.644C558.769 449.514 558.693 449.376 558.629 449.231L558.237 448.472L557.975 448.024L557.583 447.3L557.289 446.783C557.29 446.575 556.994 446.335 556.83 446.094L556.502 445.578L556.01 444.854L555.616 444.338L555.057 443.651C554.936 443.47 554.805 443.298 554.663 443.134C554.473 442.866 554.265 442.614 554.039 442.378L553.644 441.896L552.888 441.037L552.493 440.625L551.275 439.389C550.748 438.874 550.221 438.359 549.661 437.879L549.166 437.433L547.88 436.37L547.386 435.959L545.736 434.692C545.109 434.213 544.449 433.768 543.788 433.324L543.524 433.118L541.774 431.991L541.444 431.786C539.528 430.59 537.577 429.499 535.594 428.374L533.511 427.319L533.114 427.114L531.361 426.299L530.996 426.302L526.827 424.434L526.528 424.437L524.808 423.69L524.409 423.693L522.522 422.948C514.942 419.967 508.55 417.946 505.973 416.376C500.323 412.962 508.899 404.536 512.723 404.016C516.961 404.793 521.026 406.327 524.74 408.551L527.485 409.981L528.708 410.629L529.005 410.799L530.063 411.379L530.427 411.583L531.418 412.163L531.782 412.368L532.773 412.948L533.136 413.153L534.128 413.733L534.458 413.938L535.648 414.654L536.903 415.44L537.069 415.439L538.126 416.122L538.456 416.361L539.249 416.874L539.678 417.182L540.371 417.626L540.767 417.934L541.394 418.379L541.791 418.653L542.385 419.098L542.748 419.372L543.308 419.852L543.605 420.057L544.363 420.743L545.781 421.943L550.397 425.781L552.508 427.46C558.116 431.913 563.33 435.781 563.33 435.781C563.33 435.781 558.847 428.096 553.786 418.06L552.382 415.267C551.435 413.37 550.489 411.403 549.577 409.402C548.664 407.401 547.719 405.4 546.84 403.364C539.806 387.214 536.63 378.166 532.476 374.635L531.421 373.709C537.355 367.42 545.568 358.754 550.498 353.306L551.404 352.293L551.672 352.013L552.309 351.28L552.578 350.966L553.081 350.407L553.349 350.093L553.718 349.674L553.953 349.429C554.053 349.31 554.143 349.182 554.222 349.046L554.491 348.697C554.557 348.527 554.614 348.353 554.661 348.176C554.683 347.922 554.685 347.667 554.668 347.414L554.679 346.132C554.682 345.75 554.686 345.335 554.69 344.919C554.694 344.469 554.698 343.984 554.702 343.498C554.706 343.013 554.711 342.494 554.715 342.009L554.735 339.687C554.74 339.168 554.579 338.615 554.517 338.061C554.522 337.507 554.361 336.919 554.266 336.331C553.26 329.862 551.793 322.911 551.793 322.911C551.793 322.911 541.65 301.523 540.319 290.311C538.989 279.098 527.318 257.758 523.676 252.629C520.034 247.5 511.579 230.496 522.279 237.606C532.978 244.716 550.736 272.722 555.105 282.071C555.082 284.704 558.943 291.356 563.104 297.936C567.774 307.04 572.64 316.558 573.904 320.15C575.168 323.741 576.956 328.229 578.192 331.197L578.19 331.37L578.386 331.819L578.383 332.131L578.546 332.545L578.543 332.788L578.771 333.374L578.768 333.686L578.767 333.86L578.764 334.171L578.761 334.518C581.36 331.886 583.67 328.959 585.646 325.795C587.402 323.026 588.897 320.089 590.106 317.025C594.251 306.387 602.492 290.723 598.891 284.693C598.745 284.485 598.614 284.266 598.498 284.038L598.5 283.865L598.14 283.244L597.943 282.934L597.584 282.279L597.586 282.072L597.062 281.21C596.702 280.555 596.309 279.866 595.851 279.142L595.556 278.625L594.902 277.523C589.142 267.701 580.041 252.435 575.237 247.282C568.654 240.412 539.183 215.005 536.738 213.468C534.294 211.931 534.053 205.212 544.955 211.974C554.784 217.884 563.611 225.42 571.099 234.293C579.057 243.471 589.756 250.581 592.556 257.069C594.256 261.063 595.61 265.213 596.599 269.47C596.705 269.833 596.79 270.202 596.855 270.576C596.855 270.576 604.101 251.007 603.187 241.488C603.195 240.657 603.202 239.825 603.209 238.959L603.215 238.335C603.224 237.296 603.233 236.222 603.243 235.113C603.261 233.034 603.28 230.852 603.3 228.6C603.302 228.288 603.305 227.941 603.308 227.629L603.31 227.422L603.318 226.555L603.32 226.278L603.327 225.481L603.332 224.927C603.334 224.684 603.336 224.407 603.338 224.165C603.355 224.05 603.356 223.933 603.341 223.818C603.359 223.564 603.362 223.31 603.348 223.056C603.368 222.941 603.369 222.824 603.351 222.71C603.354 222.432 603.356 222.155 603.358 221.913L603.361 221.566L603.169 220.702L603.172 220.425C603.175 220.078 602.979 219.699 602.849 219.319C602.853 218.938 602.557 218.56 602.428 218.145L602.038 217.144C601.97 217.024 601.915 216.897 601.875 216.764L601.483 215.971L601.288 215.522L600.896 214.798C600.821 214.63 600.734 214.469 600.634 214.316L600.242 213.592L599.914 213.109L599.489 212.386C599.376 212.219 599.256 212.058 599.128 211.904C598.986 211.647 598.821 211.405 598.636 211.181L598.275 210.664L597.716 209.942L597.322 209.426C597.125 209.185 596.895 208.945 596.698 208.669L596.304 208.188L595.547 207.363L595.152 206.951L593.934 205.68L592.286 204.171L591.792 203.725L590.539 202.662L590.011 202.251L588.395 201.018L586.447 199.65L586.183 199.479L584.432 198.351L584.102 198.147C582.186 196.951 580.203 195.826 578.22 194.735L576.169 193.714L575.772 193.51L574.02 192.659L573.656 192.489C572.266 191.855 570.877 191.244 569.487 190.656L569.188 190.659L567.434 189.947L567.07 189.777L565.183 189.032C557.603 186.016 551.211 183.995 548.633 182.459C545.544 178.676 554.12 170.319 557.844 169.905ZM215.034 113.807C215.039 113.888 215.038 113.969 215.031 114.049L215.03 114.223L214.598 114.227L215.034 113.807ZM212.397 111.406L212.415 109.327C212.538 109.585 212.646 109.85 212.741 110.121L212.397 111.406ZM229.931 477.399L229.336 477.023L228.907 476.75L228.411 476.442L227.487 475.758L227.19 475.553C224.645 473.658 222.304 471.484 220.205 469.068L219.909 468.724C219.383 468.105 218.824 467.452 218.299 466.763L217.839 466.144C217.347 465.49 216.888 464.836 216.429 464.147L215.871 463.286L214.594 461.219L214.006 460.15C213.647 459.426 213.254 458.702 212.896 457.943L212.309 456.701C211.983 455.942 211.658 455.148 211.366 454.319C211.074 453.49 210.976 453.387 210.813 452.938C210.651 452.49 210.264 451.211 210.006 450.313C209.748 449.414 209.682 449.346 209.554 448.827C209.426 448.309 209.107 446.822 208.883 445.785C208.887 445.299 208.659 444.851 208.597 444.367C208.311 442.845 208.093 441.219 207.941 439.557C206.425 422.942 211.31 411.292 215.768 406.541L216.405 405.877C216.777 405.548 217.168 405.244 217.576 404.965L218.11 404.684C218.319 404.549 218.543 404.442 218.777 404.366L219.242 404.361L219.84 404.356L220.238 404.353C220.422 404.399 220.6 404.467 220.768 404.556L221.098 404.795C221.266 404.955 221.41 405.141 221.525 405.346L221.722 405.656C221.926 406.067 222.068 406.51 222.142 406.968C222.226 407.471 222.277 407.98 222.295 408.491L222.291 408.907C222.287 409.323 222.284 409.739 222.28 410.154C222.298 410.246 222.297 410.34 222.278 410.432C221.732 415.876 218.458 421.829 217.906 431.811C217.896 433.024 217.885 434.306 217.873 435.657L217.871 435.9C217.861 436.974 217.851 438.117 218.073 439.362C218.055 439.57 218.053 439.778 218.067 439.986C218.058 441.06 218.314 442.201 218.469 443.447C218.467 443.724 218.464 444.036 218.461 444.347C218.692 445.8 218.978 447.322 219.318 448.913L220.116 452.613L220.405 453.788C220.596 454.722 220.788 455.586 221.013 456.415C221.238 457.245 221.236 457.487 221.365 458.006L221.846 459.942L222.231 461.428C222.228 461.843 222.457 462.223 222.553 462.637C222.649 463.052 223.037 464.296 223.262 465.091C223.26 465.368 223.424 465.644 223.521 465.885L224.006 467.371C223.997 467.521 223.995 467.671 224.002 467.821C224.327 468.719 224.651 469.582 225.01 470.41C225.003 470.503 225.002 470.595 225.007 470.687L225.594 471.999C226.005 472.82 226.463 473.615 226.968 474.377C227.709 475.506 228.557 476.554 229.498 477.507L229.931 477.399ZM407.027 568.83C407.024 569.141 406.789 569.421 406.654 569.734L406.652 569.941C406.537 570.174 406.402 570.396 406.248 570.603L406.246 570.777C403.117 573.995 400.181 577.412 397.455 581.006C397.051 581.668 396.646 582.364 396.274 583.095C395.926 583.715 395.61 584.354 395.328 585.009L395.325 585.321C395.054 585.947 394.782 586.642 394.51 587.303L394.306 587.859C394 588.728 393.693 589.666 393.385 590.639C393.078 591.612 392.94 592.202 392.701 592.931L392.495 593.661C392.324 594.217 392.187 594.772 392.016 595.293C391.845 595.814 391.844 595.953 391.742 596.3L391.432 597.481C391.429 597.828 391.261 598.141 391.192 598.419L390.985 599.217C390.981 599.737 390.744 600.259 390.64 600.779L390.635 601.299L390.427 602.271C390.443 602.374 390.442 602.479 390.425 602.583C390.42 603.172 390.248 603.762 390.177 604.317L390.175 604.525C390.156 604.825 390.154 605.126 390.167 605.426C390.128 606.015 390.123 606.605 390.152 607.193C390.205 608.049 390.342 608.895 390.562 609.718L390.366 609.339L390.368 609.062C390.327 608.94 390.273 608.824 390.205 608.717L389.912 608.027L389.914 607.819C389.119 605.949 388.523 603.992 388.138 601.98C388.12 601.889 388.121 601.794 388.141 601.703L387.856 600.111C387.873 599.939 387.875 599.764 387.86 599.592C387.864 599.107 387.869 598.587 387.873 598.067C387.878 597.548 387.877 597.617 387.879 597.409C387.881 597.201 387.888 596.37 387.893 595.85L387.899 595.088C387.904 594.568 387.908 594.048 387.913 593.494C387.918 592.94 387.918 592.94 387.921 592.628C387.959 592.092 388.03 591.559 388.134 591.032L388.142 590.062C388.147 589.508 388.385 588.951 388.489 588.396C388.55 588.068 388.63 587.743 388.73 587.424C388.882 586.79 389.065 586.164 389.278 585.548C389.349 585.253 389.44 584.963 389.551 584.68C389.862 583.71 390.225 582.758 390.639 581.829C394.808 572.23 400.961 567.463 404.79 566.321L405.322 566.316L406.219 566.308L406.584 566.304L407.049 566.3L407.315 566.298L407.679 566.468L407.877 566.639L408.073 566.915C408.091 566.994 408.09 567.077 408.071 567.157C408.089 567.307 408.087 567.458 408.067 567.608L408.065 567.85C407.808 568.266 407.45 568.605 407.027 568.83ZM445.855 306.02C444.882 307.102 440.151 312.584 434.944 319.386L434.742 319.63L432.357 322.77L432.054 323.188C431.315 324.165 430.608 325.176 429.869 326.187L429.499 326.745C428.726 327.791 427.985 328.872 427.245 329.952L426.808 330.649C426.438 331.172 426.101 331.695 425.764 332.252C424.003 332.268 422.11 332.285 420.148 332.58C423.65 322.612 427.992 312.973 433.12 303.778C433.558 303.047 434.063 302.349 434.567 301.617C435.056 300.934 435.582 300.282 436.145 299.663L436.147 299.49C436.717 298.827 437.287 298.198 437.89 297.603L438.058 297.429C438.661 296.8 439.297 296.205 439.934 295.61L441.975 293.86C444.082 292.173 446.317 290.67 448.657 289.366C453.63 286.619 458.054 285.817 459.863 287.879C463.976 292.312 447.365 304.205 445.722 306.021L445.855 306.02ZM431.946 377.441L431.75 377.062C431.776 377.191 431.808 377.318 431.847 377.442L431.946 377.441ZM430.886 377.139L431.118 377.137L431.318 377.135L431.583 377.133L431.783 377.131C432.109 378.236 432.545 379.3 433.084 380.307L433.081 380.619L433.408 381.17C431.127 380.201 428.917 379.063 426.795 377.765L430.886 377.139ZM406.108 221.048L407.076 220.52C407.076 220.52 407.076 220.52 407.275 220.518L408.009 220.131L408.242 220.129L409.042 219.81L410.541 219.207L411.075 218.995L412.341 218.464L412.942 218.181L414.442 217.544L414.942 217.297L417.143 216.307C419.911 215.035 422.979 213.622 426.113 212.243L431.113 210.154L431.647 209.941L432.68 209.551L433.713 209.161L434.612 208.841L435.745 208.45L436.544 208.2L437.81 207.807L438.443 207.594L440.307 207.092L441.772 206.733L442.071 206.73L443.535 206.405L443.834 206.402L445.298 206.112L446.829 205.787L447.26 205.783L448.691 205.493L449.156 205.488L450.387 205.235L450.753 205.232L452.15 204.977L452.681 204.972L454.012 204.717L454.51 204.713L455.542 204.531L456.007 204.526L457.171 204.308L457.736 204.303L458.867 204.12L459.265 204.116L460.129 204.108L460.527 204.105L461.525 203.923L461.858 203.92L462.821 203.911L463.784 203.902L464.615 203.895L465.246 203.889C458.858 208.866 451.666 214.751 443.933 221.679C434.578 224.188 424.792 226.632 416.6 229.096L413.802 229.952L411.204 230.807L408.739 231.661C408.173 231.839 407.673 232.051 407.139 232.264C406.636 229.012 406.099 225.864 405.393 223.03L405.861 222.714L406.108 221.048ZM266.007 153.017C284.265 152.91 302.37 155.847 319.638 161.717C337.788 167.617 358.209 168.3 367.086 174.872C372.304 178.785 377.199 183.144 381.719 187.905C380.598 190.756 379.609 193.779 378.752 196.766C363.679 188.517 344.568 178.503 335.39 175.953C321.142 172.027 260.48 162.178 255.73 162.221C250.98 162.263 245.647 153.026 266.072 153.155L266.007 153.017ZM241.637 281.418C243.906 272.632 247.338 271.389 254.497 276.903L254.827 277.177C255.322 277.553 255.817 277.93 256.311 278.376L256.872 278.856L258.717 280.502L259.277 281.017L261.056 282.699L261.517 283.145L263.823 285.411L264.415 286.029C265.238 286.853 266.094 287.711 266.95 288.639C270.011 291.799 273.533 295.509 277.287 299.182L279.921 301.826C282.623 309.4 285.134 317.23 287.455 325.316L285.839 323.98L282.342 321.343L276.403 316.789C273.631 314.701 271.122 312.922 269.075 311.52C267.028 310.118 265.773 309.297 264.649 308.719C256.384 304.254 238.435 294.438 241.702 281.59L241.637 281.418ZM292.004 443.515C291.217 442.413 290.363 441.312 289.51 440.073C285.735 434.945 281.699 429.299 278.458 423.855L277.477 422.166C276.082 419.748 274.84 417.236 273.756 414.647C273.496 414.003 273.203 413.312 272.877 412.576L272.551 411.852C272.323 411.403 272.128 410.92 271.866 410.437C271.605 409.955 271.573 409.816 271.409 409.506L270.756 408.23C270.593 407.885 270.397 407.54 270.2 407.196C270.004 406.851 269.776 406.368 269.547 405.954L268.959 404.851L268.272 403.61L267.618 402.473L266.931 401.266L266.277 400.094C266.015 399.681 265.786 399.267 265.557 398.854L264.837 397.648C261.645 392.554 258.795 387.231 256.307 381.719C253.418 373.984 254.848 358.59 266.764 370.885C275.092 379.506 291.724 403.331 301.982 419.071C301.979 419.452 301.976 419.833 301.972 420.214C298.683 427.969 295.36 435.759 292.069 443.687L292.004 443.515ZM311.092 440.884L312.617 437.406L313.205 438.544L311.092 440.884ZM328.333 368.22L326.891 365.946L326.596 365.464L324.235 362.021C323.743 361.298 323.251 360.54 322.693 359.817L322.266 359.232L320.887 357.443C320.889 357.27 320.591 357.099 320.46 356.893C317.567 353.454 314.08 349.571 310.261 345.76C308.857 339.19 307.352 332.725 305.713 326.469C312.955 333.259 320.771 339.357 329.069 344.69C330.457 345.474 331.778 346.398 333.098 347.322L334.056 348.006C335.31 348.93 336.53 349.889 337.684 350.918L338.178 351.399C334.809 356.868 331.538 362.475 328.431 368.392L328.333 368.22ZM352.274 384.149C349.745 389.408 349.149 395.42 350.599 401.036L353.932 399.724L350.252 402.702C346.977 397.431 342.882 390.92 338.655 384.271C342.403 377.309 346.181 370.589 350.024 364.111C352.856 367.895 355.44 371.876 357.758 376.028C355.725 378.657 353.87 381.429 352.206 384.323L352.274 384.149ZM366.829 307.179C363.113 302.812 360.252 299.547 360.252 299.547C360.252 299.547 329.644 278.792 319.173 264.578C308.701 250.364 276.056 230.841 267.023 226.938C266.03 226.496 264.807 225.918 263.517 225.203C259.852 218.93 256.228 213.039 252.645 207.528L253.442 207.521C273.828 208.308 320.124 231.728 333.496 240.823C335.658 244.268 346.034 250.307 356.88 255.857C366.129 261.698 375.642 267.744 382.18 272.189C382.174 272.778 382.17 273.333 382.165 273.922C382.11 274.626 382.104 275.332 382.146 276.035C382.14 276.728 382.267 277.455 382.526 278.214C382.519 278.977 382.878 279.736 383.07 280.496C383.263 281.256 383.522 282.016 383.748 282.811L383.746 282.984L383.942 283.433C378.361 291.105 372.634 299.078 366.761 307.353L366.829 307.179ZM382.912 329.103C382.912 329.103 382.652 328.412 382.457 327.998L382.459 327.79C382.238 327.324 381.987 326.875 381.706 326.446L381.708 326.238C381.397 325.68 381.058 325.139 380.693 324.619C380.299 324.033 379.873 323.414 379.413 322.794L379.249 322.553L378.166 321.073C383.009 314.24 387.826 307.718 392.619 301.508C393.927 303.887 394.844 305.369 394.844 305.369L395.18 304.915L395.651 304.253L396.457 303.172L397.566 301.672C397.97 301.114 398.407 300.452 398.911 299.789L402.744 294.489L403.45 293.547C403.921 292.85 404.458 292.152 404.996 291.42L405.366 290.897L405.601 290.583L405.865 290.754L406.657 291.371L407.053 291.644L407.284 291.85L407.713 292.123L408.208 292.5C408.947 289.863 409.536 287.185 409.972 284.481L414.746 277.891C428.194 259.305 438.372 253.844 447.902 250.294C457.432 246.744 473.927 240.499 473.251 249.513C472.574 258.526 463.198 259.684 446.759 267.072C430.32 274.46 415.168 286.652 410.796 292.892C406.423 299.133 407.398 301.618 402.844 309.662C398.29 317.706 397.931 320.792 400.24 326.453C401.02 328.351 402.29 331.285 403.79 334.458L404.41 335.769C403.921 335.966 403.442 336.19 402.976 336.44C394.098 341.336 383.321 347.01 389.585 348.478C395.85 349.946 407.903 350.392 411.768 352.817L417.351 356.232L417.515 356.438L419.729 357.804C419.721 358.67 419.879 359.57 420.005 360.4C420.131 361.23 420.227 361.61 420.321 362.198C416.657 363.444 412.925 364.794 408.958 366.458C406.383 364.645 404.139 363.036 402.551 362.254C395.941 358.572 384.153 354.416 376.582 357.948C378.2 351.456 379.749 345.275 380.886 340.588L380.888 340.311C381.06 339.582 381.233 338.853 381.371 338.193C381.389 337.985 381.391 337.777 381.377 337.57C381.381 337.05 381.652 336.528 381.756 336.042L381.761 335.383C381.765 334.968 381.768 334.587 382.004 334.203C382.022 333.984 382.023 333.764 382.01 333.545C382.013 333.233 382.015 332.921 382.217 332.643L382.222 332.123C382.224 331.846 382.226 331.603 382.228 331.395C382.23 331.187 382.23 331.153 382.231 331.049C382.255 330.83 382.257 330.609 382.237 330.391C382.513 330.068 382.72 329.688 382.844 329.276L382.912 329.103ZM435.013 406.584C427.214 409.737 395.447 407.528 387.292 405.765C383.7 405.096 380.063 404.689 376.408 404.546C383.195 399.744 390.23 395.343 397.481 391.366C408.866 392.498 420.109 394.717 431.069 397.993C434.808 399.657 442.815 403.223 435.013 406.584ZM475.43 342.442L474.374 341.551C474.279 339.067 474.368 336.577 474.639 334.1C475.415 328.897 480.832 320.949 483.496 331.561C485.005 338.947 486.05 346.437 486.622 353.982C485.899 353.088 485.143 352.194 484.353 351.301L482.642 349.445C480.473 346.797 478.103 344.428 475.531 342.268L475.43 342.442ZM489.899 404.671L489.893 405.434L489.895 405.191C489.896 405.018 489.733 404.742 489.602 404.466L489.605 404.189C489.605 404.189 489.607 403.947 489.608 403.808L489.61 403.6C489.602 403.427 489.603 403.254 489.614 403.08C489.616 402.907 489.617 402.734 489.619 402.595L491.45 402.094C491.213 403.089 491.038 404.097 490.925 405.113L489.899 404.671ZM490.67 403.972L491.409 402.926C491.408 403.099 491.406 403.272 491.405 403.445L490.67 403.972ZM491.312 406.426L491.513 406.216C491.526 406.273 491.525 406.332 491.512 406.389L491.312 406.426ZM524.765 337.15C525.256 338.046 525.712 338.977 526.136 339.909L526.429 340.599C526.82 341.52 527.177 342.452 527.501 343.396C527.857 344.432 528.18 345.468 528.437 346.505L528.598 347.024C528.855 348.061 529.112 349.063 529.302 350.101C530.485 355.921 530.892 361.897 530.509 367.862C528.043 364.94 526.211 361.734 526.965 359.129C528.232 354.718 530.396 346.592 525.709 347.015L524.646 347.024L524.28 347.028L523.382 347.244L522.917 347.248L521.951 347.568L521.484 347.746L520.352 348.137L519.92 348.141L518.62 348.672L518.288 348.675L517.254 349.169L517.268 347.576L517.272 347.056L517.097 344.321C517.102 343.766 517.106 343.212 517.111 342.623C517.097 342.462 517.098 342.299 517.116 342.138C517.12 341.687 517.124 341.202 516.896 340.72C516.913 340.581 516.914 340.442 516.899 340.304C514.938 330.338 512.065 320.608 508.318 311.245C507.994 310.313 507.636 309.415 507.278 308.552C506.661 306.964 506.043 305.48 505.49 304.099C504.611 302.063 503.83 300.269 503.145 298.82C502.46 297.371 502.003 296.509 501.61 295.854C498.533 290.616 491.789 279.383 497.454 273.442C501.31 269.354 503.53 269.923 505.71 275.17L505.707 275.447C505.873 275.815 506.014 276.196 506.129 276.586C506.203 276.727 506.258 276.878 506.291 277.035C506.287 277.486 506.615 278.002 506.776 278.521L506.938 279.004C506.934 279.489 507.229 279.972 507.39 280.49L507.387 280.906C507.58 281.527 507.741 282.184 507.934 282.91L508.095 283.428C508.089 284.156 508.448 284.88 508.674 285.675C509.347 288.406 510.15 291.516 511.018 294.834C514.673 309.976 519.992 328.393 524.865 337.149L524.765 337.15ZM532.754 171.446L533.494 170.366C533.474 170.55 533.472 170.736 533.489 170.92L532.754 171.446ZM533.396 173.9L533.597 173.725C533.581 173.782 533.581 173.842 533.596 173.898L533.396 173.9Z" fill="#5EC1CE" fill-opacity="0.15"/>
<path opacity="0.8" d="M557.844 169.905C562.099 170.655 566.179 172.19 569.894 174.439L572.638 175.869L573.894 176.551L574.192 176.722L575.216 177.301L575.58 177.506L576.572 178.051L576.968 178.29L577.927 178.836L578.323 179.075L579.314 179.655L579.645 179.86L580.834 180.577L582.089 181.397L582.255 181.396L583.312 182.079L583.642 182.284L584.435 182.831L584.864 183.104L585.524 183.583L585.954 183.857L586.581 184.336L586.977 184.61L587.571 185.055L587.934 185.329L588.494 185.774L588.791 186.014L589.55 186.665L590.967 187.9C592.418 189.134 594.001 190.436 595.584 191.704L597.694 193.417C603.302 197.871 608.483 201.704 608.483 201.704C608.483 201.704 604.033 194.053 598.973 183.983C598.515 183.086 598.025 182.155 597.569 181.189C596.622 179.292 595.676 177.326 594.763 175.359C593.85 173.393 592.905 171.323 592.026 169.321C584.96 153.137 581.816 144.123 577.662 140.592C573.508 137.061 567.516 130.982 568.783 126.606C570.05 122.229 572.214 114.069 567.494 114.492C567.152 114.466 566.807 114.469 566.464 114.501L566.066 114.505L565.2 114.721L564.735 114.725L563.769 115.011L563.304 115.015L562.171 115.441L561.74 115.444L560.406 116.011L560.107 116.013C554.839 118.347 548.794 122.143 546.733 126.215C544.201 130.88 545.554 135.718 544.606 141.512C544.534 142.015 544.43 142.514 544.294 143.004C544.29 143.455 544.054 143.907 543.917 144.393C543.902 144.462 543.901 144.533 543.915 144.601C543.774 145.064 543.604 145.517 543.405 145.957L543.402 146.269C543.165 146.825 542.894 147.382 542.624 147.973C541.61 149.957 540.564 151.872 539.551 153.752C537.634 157.083 535.992 160.575 534.644 164.189C534.047 164.865 533.547 165.629 533.163 166.454C532.652 167.97 532.326 169.545 532.192 171.139L531.992 171.141L531.986 171.869L531.988 171.626C531.873 171.381 531.775 171.127 531.696 170.867L531.698 170.59C531.698 170.59 531.7 170.347 531.702 170.208C531.689 170.036 531.69 169.862 531.706 169.689L531.708 169.481L531.514 168.894C531.441 168.669 531.387 168.438 531.354 168.202L531.357 167.856L531.165 166.991C531.165 166.991 531.167 166.784 531.168 166.68C531.009 165.884 530.884 164.985 530.759 164.05C530.775 163.935 530.776 163.819 530.762 163.704L530.772 162.561L530.775 162.179C530.779 161.729 530.783 161.279 530.787 160.828C530.791 160.378 530.787 160.828 530.789 160.62C530.791 160.412 530.798 159.546 530.803 158.992C530.808 158.438 530.805 158.784 530.806 158.68C530.807 158.576 530.814 157.779 530.818 157.329C530.803 157.156 530.804 156.982 530.822 156.809L531.032 155.56L531.037 155.041C531.042 154.452 531.313 153.86 531.484 153.27C531.861 151.984 532.27 150.699 532.68 149.448C533.943 145.884 534.887 142.21 535.499 138.475L535.495 138.926C535.515 138.834 535.516 138.74 535.498 138.649C535.498 138.649 535.499 138.441 535.5 138.337L535.514 136.778L535.518 136.293C535.522 135.808 535.526 135.357 535.53 134.872C535.535 134.387 535.534 134.491 535.536 134.283L535.348 132.968L535.353 132.31C535.357 131.894 535.161 131.48 535.033 131.031L534.839 130.34C534.7 129.905 534.537 129.478 534.352 129.062C534.28 128.826 534.193 128.596 534.092 128.372C533.897 127.923 533.635 127.475 533.407 126.992C533.179 126.509 533.211 126.578 533.08 126.372C532.949 126.165 532.261 125.063 531.802 124.374C530.424 122.481 528.846 120.555 527.202 118.664C526.643 118.011 526.084 117.392 525.492 116.774C523.188 114.3 520.718 111.932 518.244 109.91L516.365 108.334C515.145 107.34 513.924 106.381 512.736 105.491C510.233 103.568 507.529 101.942 504.674 100.644C504.21 100.436 503.735 100.256 503.251 100.102L502.819 100.106L502.321 100.11L501.691 99.9428L501.027 99.9487L500.298 99.782L500.098 99.7838L499.334 99.7906L498.306 99.6267L497.874 99.6305L497.442 99.6344L496.446 99.6434L495.582 99.6511L495.117 99.6553L493.523 99.6696L492.626 99.6776L491.596 99.6868L490.699 99.6949L489.637 99.7044L482.395 99.7693L481.565 99.7768L480.834 99.7833L480.004 99.7908L479.439 99.7958L477.477 100.056L476.346 100.274C471.288 101.359 453.462 100.237 444.584 105.132C435.707 110.027 424.962 115.701 431.194 117.169C437.425 118.638 449.511 119.084 453.376 121.474L473.792 134.144C475.973 135.485 478.068 136.97 480.064 138.591C482.103 140.043 483.846 141.898 485.198 144.054L485.426 144.571C485.521 144.758 485.597 144.954 485.653 145.158C486.724 148.024 487.183 152.558 479.884 151.654C479.618 151.673 479.352 151.675 479.086 151.661C469.766 150.151 451.035 134.764 444.16 130.98C437.284 127.196 424.867 122.769 417.324 127.063C409.78 131.357 398.165 145.388 393.847 153.118C391.318 158.377 390.722 164.389 392.172 170.005C401.937 166.057 411.956 162.864 422.147 160.451L425.108 159.905L427.801 159.569L434.212 159.512L435.441 159.501L435.641 159.499L437.002 159.487L438.497 159.473C450.048 160.585 461.458 162.802 472.583 166.096C476.32 167.968 484.327 171.499 476.527 174.687C468.727 177.875 436.961 175.631 428.773 173.868C420.584 172.106 395.78 171.323 389.368 175.399C386.215 178.391 383.827 182.155 382.43 186.34C380.785 177.001 376.325 155.215 369.666 145.644C368.911 144.611 368.223 143.474 367.537 142.199L367.046 141.371C366.261 139.947 365.477 138.464 364.693 136.924C363.191 134.027 361.623 130.958 359.756 127.926C359.461 127.478 359.2 127.03 358.904 126.617C358.921 126.525 358.922 126.431 358.907 126.34L358.153 125.203C358.068 125.094 357.992 124.979 357.923 124.859L357.168 123.826L356.873 123.448C356.643 123.104 356.38 122.794 356.15 122.484C356.03 122.344 355.921 122.194 355.822 122.037L355.033 121.109L354.671 120.696L353.816 119.734L353.454 119.356L352.5 118.36L352.17 118.051L350.819 116.781C350.358 116.37 349.864 115.924 349.336 115.513L349.138 115.341L347.818 114.314L347.323 113.972L346.168 113.185L345.54 112.775L344.417 112.058L343.723 111.614L342.566 111.001C342.313 110.832 342.048 110.684 341.773 110.557L340.616 109.979L339.756 109.571L338.532 108.993L337.605 108.62L336.281 108.077L335.321 107.705L333.864 107.199L332.937 106.895L331.247 106.39L330.386 106.121L327.702 105.452L324.387 104.72L323.358 104.556L320.738 104.129L319.709 104.138L316.39 103.787L316.058 103.79L312.307 103.546L311.776 103.551L308.454 103.581L307.79 103.587C304.235 103.619 300.615 103.651 297.058 103.926L293.402 104.235L292.671 104.242L289.613 104.547L288.949 104.553C286.522 104.851 284.094 105.15 281.733 105.518L281.201 105.523L278.208 106L277.577 106.006L274.251 106.52C261.378 108.784 250.959 111.337 246.243 111.31C235.682 111.231 241.258 92.6123 246.074 88.793C248.148 87.1461 256.43 85.7554 266.368 84.9388L271.287 84.6176L271.486 84.6158L273.712 84.5958L274.442 84.5893L276.369 84.572L289.656 84.4529L291.649 84.435L292.313 84.429L293.808 84.4156L294.605 84.4085L295.934 84.3966L296.731 84.3894L297.96 84.3784L298.724 84.3716L299.886 84.3611L300.584 84.3549L301.778 84.5173L302.343 84.5123L303.935 84.7751L306.82 85.269L316.208 86.6398L320.487 87.1904C331.735 88.5792 341.924 89.4926 341.924 89.4926C341.924 89.4926 329.794 82.6725 314.996 73.2435L310.901 70.578C308.126 68.7668 305.286 66.8869 302.48 64.9373C299.674 62.9878 296.802 61.0041 294.029 58.985C271.785 42.7633 260.411 33.0265 251.887 31.6479C243.363 30.2693 230.371 27.0253 228.739 19.938C227.107 12.8506 223.832 -0.0421481 217.682 4.41276C217.218 4.76296 216.771 5.13694 216.343 5.53334C216.173 5.65453 216.015 5.7954 215.875 5.95325L214.803 6.96756L214.266 7.56131C213.898 7.9457 213.529 8.3301 213.16 8.78379C212.964 8.9647 212.785 9.16342 212.623 9.37754L211.348 10.8786C211.201 11.0846 211.044 11.2826 210.878 11.4718L209.466 13.3552L209.13 13.774C203.551 21.3763 198.047 31.611 198.116 39.0242C198.041 47.5818 203.773 53.0042 206.885 61.7758C207.144 62.501 207.403 63.2608 207.629 64.0556C207.822 64.7468 208.015 65.5071 208.174 66.2679C208.189 66.3942 208.188 66.5224 208.171 66.649C208.165 67.3766 208.424 68.1018 208.55 68.8975C208.532 69.0704 208.531 69.2445 208.545 69.4171C208.666 70.404 208.735 71.3981 208.752 72.3947C208.722 75.8594 208.891 79.3222 208.927 82.7863C208.833 89.0198 209.257 95.2404 210.193 101.379C209.87 102.789 209.767 104.241 209.89 105.677C210.325 108.196 211.086 110.637 212.152 112.932L211.753 112.936C211.75 113.282 212.112 113.625 212.309 113.97C212.212 113.862 212.101 113.77 211.979 113.696L210.989 112.943L210.626 112.634L210.165 112.222L209.934 112.017L209.308 111.468L209.077 111.227L208.353 110.541L207.563 109.751L207.168 109.339C206.871 109.03 206.542 108.687 206.247 108.308L205.917 107.965C204.994 106.868 204.128 105.719 203.324 104.523C203.217 104.4 203.129 104.261 203.061 104.11C202.7 103.628 202.372 103.146 202.045 102.63C201.924 102.466 201.815 102.293 201.717 102.113L200.637 100.286C200.595 100.187 200.54 100.094 200.473 100.011C200.081 99.2867 199.689 98.4935 199.331 97.6999C199.242 97.5581 199.166 97.408 199.102 97.2515C198.809 96.6306 198.549 95.9747 198.289 95.3188L197.964 94.4902C197.737 93.8686 197.51 93.2472 197.316 92.6253C197.215 92.3545 197.129 92.0776 197.057 91.7961C196.756 90.8923 196.509 89.9689 196.318 89.0313C195.838 86.9223 195.424 84.8474 195.01 82.8072C194.044 76.9044 192.548 71.1186 190.544 65.5253L190.547 65.2481L190.351 64.8341L190.156 64.3855C189.83 63.6262 189.471 62.8673 189.112 62.143L188.719 61.4883C188.38 60.8363 188.009 60.2037 187.607 59.5929L187.082 58.8008L185.834 57.149C185.604 56.8739 185.407 56.5986 185.177 56.3582C184.947 56.1177 184.256 55.3617 183.762 54.8811C183.504 54.6001 183.228 54.3365 182.938 54.0917C182.444 53.6111 181.883 53.1658 181.323 52.7205L180.399 52.0012C179.772 51.5564 179.078 51.1469 178.384 50.7027L177.459 50.1222C176.402 49.5427 175.31 48.9981 174.152 48.4889C170.619 46.9545 167.005 45.6223 163.326 44.498L159.516 43.3543C154.381 41.9106 149.11 40.7107 144.003 39.8211L140.222 39.2315C137.701 38.873 135.279 38.5829 132.955 38.3959C127.97 37.8857 122.937 37.9308 117.941 38.5305C117.097 38.5539 116.253 38.6309 115.415 38.761L114.683 38.9407L113.884 39.1558L112.885 39.4419L111.852 39.7976L110.687 40.1546L110.354 40.1575L109.188 40.6183L107.622 41.2213L106.988 41.5041L106.355 41.787L104.854 42.4587L103.62 43.0241L102.92 43.3767L102.186 43.7297L100.918 44.3647L99.4165 45.175L98.7465 45.8392L97.9788 46.2618L96.4769 47.1067L95.2086 47.811L94.9078 48.0215C94.5525 48.2002 94.207 48.4 93.873 48.6198L92.6376 49.3584L91.402 50.1316L91.0012 50.3777L90.066 50.975L88.8301 51.783L87.6608 52.5556L86.5248 53.328L85.3888 54.1003L84.4195 54.8018L83.3499 55.5736L82.6143 56.1345C81.6782 56.8358 80.8089 57.5018 80.0726 58.132L78.667 59.3572C72.4391 65.0946 46.7147 78.4553 38.0559 92.529C29.3972 106.603 18.358 123.227 28.3496 120.089C38.3411 116.95 55.3635 107.409 62.637 107.448L100.864 107.694C104.941 107.723 109.009 107.999 113.046 108.52C117.008 108.813 120.865 109.896 124.411 111.709L125.137 112.223L125.896 112.839C129.589 115.89 133.69 121.708 122.819 126.725L121.618 127.255C107.486 132.959 69.5347 127.722 56.9761 128.146C44.4176 128.571 23.7194 133.052 16.5385 145.242C9.35764 157.432 3.89123 186.304 3.83437 200.44C3.77751 214.575 14.4484 224.941 14.4484 224.941C25.0137 211.408 36.5033 198.684 48.8247 186.871C50.0634 185.752 51.3018 184.667 52.5393 183.686C53.6877 182.723 54.8818 181.822 56.1167 180.986L57.687 179.933L58.3214 179.546L59.3901 178.878L60.3582 178.315L61.1928 177.822L62.4279 177.118L63.0952 176.766L64.5969 175.956L65.0644 175.674L66.8324 174.793L67.1329 174.617L69.1011 173.629L71.269 172.605C91.2805 163.071 118.897 153.678 123.983 153.217C130.631 152.603 144.53 150.781 136.065 161.665C127.6 172.55 81.5602 196.036 68.8014 200.377C56.0426 204.718 20.7629 224.504 14.9209 235.504C9.07897 246.503 18.6067 292.737 26.228 298.592L27.6135 299.689L29.1638 300.922L29.3616 301.093L31.1093 302.533L31.34 302.739L33.2524 304.35L33.4502 304.521C34.154 305.069 34.8464 305.652 35.5274 306.269L42.4835 312.235C49.7359 318.51 56.2949 324.306 56.2949 324.306C56.2949 324.306 57.4515 321.177 59.2518 316.588L60.9501 312.277L60.9525 312L61.767 310.018L61.7706 309.602C62.0762 308.837 62.3821 308.038 62.7209 307.273L62.7227 307.065C62.9945 306.369 63.2998 305.639 63.6048 304.944L63.8424 304.352L64.758 302.196L64.7601 301.954L65.7766 299.658L66.0816 298.963C66.3192 298.372 66.5901 297.78 66.8609 297.189C66.965 296.987 67.0556 296.778 67.1321 296.563C67.4706 295.832 67.8091 295.102 68.1809 294.371C68.246 294.191 68.3253 294.016 68.4179 293.849L69.2299 292.144L69.5346 291.483L70.4813 289.569L70.4828 289.396L71.4627 287.482L71.7662 286.96L72.5423 285.567L72.7784 285.149C73.0822 284.592 73.4189 284.069 73.7221 283.582L73.9241 283.268L74.631 282.188L74.8997 281.839C75.2023 281.42 75.4714 281.037 75.7398 280.723L77.4185 278.664L77.9898 277.896L79.3339 276.118L79.9726 275.246L81.5525 273.084L82.0903 272.351L84.3768 269.144C87.2353 265.099 90.4298 260.601 93.7905 256.102C95.5383 253.731 97.3525 251.359 99.1655 249.125C99.3669 248.881 99.5352 248.637 99.7363 248.427L100.878 246.997L102.019 245.635L103.026 244.414L104.301 242.947L105.24 241.9C105.71 241.341 106.213 240.817 106.682 240.293L107.453 239.489C108.158 238.721 108.895 237.987 109.632 237.287C110.368 236.588 110.804 236.133 111.407 235.574L111.775 235.224L113.583 233.545L113.952 233.195L115.726 231.551L115.927 231.376L117.802 229.696L118.338 229.206L120.145 227.597L120.681 227.107L122.254 225.742L122.689 225.391L124.462 223.851L125.132 223.256L126.772 221.856L127.407 221.33L128.712 220.21L129.315 219.685L130.787 218.424L131.523 217.864L132.962 216.638L133.464 216.218L134.568 215.307L135.036 214.887L136.341 213.836L136.742 213.486L138.013 212.47L139.218 211.49L140.255 210.649L141.96 209.282C141.96 209.282 155.38 193.953 161.932 204.288C168.485 214.622 148.839 227.998 128.665 248.445C117.833 260.46 104.434 273.467 93.838 284.926L90.4861 288.42C89.4467 289.538 88.4406 290.656 87.5011 291.738L84.7161 294.985L82.1647 298.091L79.88 301.091C79.1737 302.102 78.5009 303.078 77.9283 303.984C69.3083 317.433 69.329 330.286 68.8132 339.922C68.2974 349.557 72.3422 361.82 81.4407 377.293C81.9882 378.238 82.5903 379.147 83.2437 380.014C83.9337 380.874 84.6566 381.768 85.446 382.662L87.9475 385.272L90.715 387.846L90.9457 388.051C100.646 396.128 111.097 403.182 122.149 409.112L122.157 408.211C122.16 407.865 122.164 407.415 122.168 406.93L122.419 404.779C122.427 403.913 122.668 402.906 122.811 401.762C122.954 400.617 123.097 399.403 123.275 398.051L123.277 397.808C123.635 394.86 124.064 391.392 124.564 387.404L124.779 385.566L125.314 381.334L125.323 380.329C126.216 373.15 127.254 364.618 128.503 354.699C133.007 318.075 143.044 302.083 153.585 289.275C164.126 276.466 182.423 254.095 188.355 266.999C194.288 279.902 181.915 289.471 164.902 313.147C147.889 336.822 135.808 366.343 134.439 378.55C133.071 390.757 136.303 393.326 136.207 408.12C136.112 422.914 137.866 427.436 145.487 433.258C147.994 435.21 152.088 438.118 156.577 441.265L159.45 443.214L160.176 443.692L161.563 444.615L162.488 445.231L164.47 446.529L165.725 447.349L166.748 448.033L168.532 449.126L169.325 449.638L171.043 450.697L171.77 451.141L172.959 451.823L173.653 452.267L174.248 452.608L174.48 452.606L175.439 453.152L175.869 453.39L176.96 453.97L177.29 454.14L177.523 454.138L178.184 454.444L178.55 454.44L179.013 454.644L179.345 454.641L179.644 454.638L180.604 454.976L184.745 456.29C189.149 457.74 192.261 458.925 192.261 458.925L178.056 427.319C178.056 427.319 172.463 394.492 173.506 373.904C173.518 372.553 173.729 371.165 173.908 369.743C173.908 369.743 173.908 369.743 173.91 369.466C173.922 368.149 174.332 366.795 174.61 365.441C174.626 365.314 174.627 365.186 174.613 365.06C174.89 363.741 175.234 362.387 175.578 361.067L175.581 360.686C175.969 359.32 176.38 357.965 176.812 356.622L176.815 356.345C177.292 354.954 177.802 353.564 178.345 352.208C179.92 348.143 181.844 344.23 184.094 340.516C188.912 332.644 194.37 327.606 198.541 329.128C207.612 332.511 193.567 362.534 192.703 366.387C192.185 368.678 189.792 380.271 187.714 393.801C187.712 394.009 187.711 394.182 187.709 394.355C187.393 396.402 187.076 398.483 186.791 400.634L186.784 401.431L186.035 407.361L186.025 408.436C185.775 410.551 185.557 412.632 185.373 414.712L185.361 416.028C185.343 418.142 185.026 420.258 184.941 422.303C184.726 426.347 184.992 430.394 185.733 434.352C187.325 442.581 190.537 450.349 195.166 457.167C196.346 458.958 197.561 460.61 198.743 462.193C199.924 463.776 201.174 465.185 202.325 466.491C203.476 467.797 204.562 468.965 205.617 469.926C206.1 470.433 206.618 470.903 207.166 471.332L207.727 471.743L208.849 472.53L209.576 472.939L210.634 473.518L211.428 473.858L212.487 474.299C212.757 474.416 213.034 474.517 213.315 474.603L214.375 474.94L215.203 475.175L216.297 475.442L217.126 475.608L218.154 475.772L218.984 475.765L219.981 475.756L220.745 475.749L221.741 475.74L228.385 475.68L228.75 475.677C230.039 476.934 231.467 478.026 233.006 478.93L233.469 479.203L235.551 480.397L236.212 480.738C237.105 481.215 238.064 481.656 239.123 482.132C248.123 485.748 257.74 487.497 267.443 487.282C269.502 487.264 271.495 487.246 273.457 486.951C268.345 501.929 272.661 494.476 268.134 510.799L280.701 520.907C285.192 504.792 284.145 506.845 289.222 492.076C298.642 478.639 308.733 465.724 319.452 453.385C320.271 455.584 320.689 457.929 320.687 460.302L320.288 467.997C326.203 463.076 331.577 457.485 336.31 451.328L338.092 456.405C340.068 462.207 341.848 467.526 341.848 467.526L345.763 464.27L347.97 462.483L348.974 461.677L349.208 461.502L350.412 460.556L351.515 459.714L351.849 459.469L352.986 458.592L354.223 457.646L354.558 457.366L355.527 456.664L355.862 456.419L357.098 455.542L357.366 455.331L358.302 454.665L358.669 454.419L359.772 453.681L360.874 452.979L361.208 452.768L362.009 452.276L362.275 452.273L363.243 451.71L363.442 451.708L364.176 451.355L364.409 451.353L365.209 451L366.708 450.432L367.242 450.219L368.508 449.688L369.109 449.406L370.609 448.734L371.109 448.522L373.31 447.497C376.078 446.225 379.146 444.812 382.28 443.468C383.947 442.725 385.614 442.017 387.28 441.379L387.814 441.166L388.847 440.776L389.88 440.385L390.779 440.065L391.912 439.674L392.712 439.39L393.977 438.998L394.643 438.784L396.474 438.317L397.939 437.957L398.238 437.955L399.702 437.63L400.001 437.627L401.465 437.302L402.995 437.011L403.427 437.007L404.891 436.752L405.323 436.748L406.554 436.529L406.919 436.526L408.316 436.271L408.848 436.266L410.178 436.046L410.676 436.042L411.708 435.859L412.173 435.855L413.337 435.671L413.901 435.666L415.032 435.483L415.464 435.479L416.294 435.472L416.693 435.468L417.69 435.459L418.022 435.456L419.018 435.447L419.948 435.439L420.745 435.432L422.043 435.212C422.043 435.212 433.802 431.192 434.298 439.052C434.794 446.911 420.173 447.735 403.194 452.322C392.94 455.082 381.856 457.814 372.731 460.563L369.934 461.42L367.303 462.275L364.837 463.163L362.538 464.05L360.437 464.935L358.503 465.887C351.842 469.741 346.385 475.538 342.813 482.553C339.646 487.674 338.082 495.691 338.314 507.156C338.261 507.849 338.255 508.543 338.296 509.235C338.289 509.974 338.416 510.7 338.675 511.414C338.669 512.142 339.028 512.9 339.22 513.661C339.413 514.421 339.672 515.216 339.931 515.976L339.929 516.184C342.692 523.787 346.166 531.078 350.301 537.951L350.638 537.463L351.108 536.835L351.882 535.754L352.991 534.22C353.394 533.662 353.865 533.034 354.336 532.337L358.202 527.036L358.874 526.095L360.421 523.968L360.79 523.48C363.446 519.818 366.54 515.495 370.204 510.473C383.651 491.922 393.862 486.461 403.359 482.911C412.856 479.362 429.385 473.081 428.708 482.095C428.032 491.108 418.655 492.301 402.217 499.654C385.778 507.008 370.625 519.234 366.253 525.509C361.88 531.784 362.856 534.201 358.301 542.279C353.747 550.357 353.389 553.374 355.697 559.07C356.478 560.934 357.781 563.867 359.248 567.075L360.193 569.076L360.421 569.594L360.911 570.56L361.205 571.18L361.89 572.525C362.012 572.823 362.154 573.111 362.315 573.388C362.421 573.636 362.541 573.878 362.674 574.112L363.261 575.319L363.555 575.836L364.143 576.974L364.405 577.457C364.402 577.734 364.699 577.974 364.83 578.215L365.092 578.663L365.321 579.042C365.453 579.241 365.573 579.448 365.681 579.663L365.678 579.94L366.071 580.594L366.07 580.802L366.299 581.181L366.463 581.388L366.627 581.663L366.625 581.837L366.624 582.01L367.051 582.491L368.86 584.588C370.8 586.823 372.147 588.473 372.147 588.473L374.033 566.527C377.698 555.916 382.233 545.641 387.586 535.815C388.024 535.118 388.528 534.386 389.066 533.689C389.57 533.026 390.074 532.363 390.644 531.7L390.812 531.525C391.349 530.897 391.919 530.268 392.522 529.639L392.688 529.637C393.291 529.043 393.928 528.414 394.564 527.854L396.638 526.103C398.733 524.387 400.97 522.871 403.321 521.574C408.26 518.862 412.718 518.025 414.494 520.088C418.371 524.834 401.76 536.727 400.117 538.543C399.177 539.66 394.446 545.142 389.206 551.91L389.004 552.189C388.231 553.2 387.425 554.247 386.652 555.328L386.35 555.712L384.131 558.746L383.761 559.269C382.999 560.338 382.259 561.418 381.541 562.51L381.07 563.173C380.329 564.288 379.622 565.403 378.949 566.483C377.617 568.665 376.537 571.001 375.733 573.441C374.121 578.479 373.509 583.79 373.936 589.046C373.924 590.398 374.178 591.712 374.333 592.958C374.489 594.203 374.744 595.379 374.968 596.416C375.191 597.454 375.414 598.526 375.639 599.424C375.863 600.323 375.897 600.288 376.059 600.702C376.222 601.117 376.057 600.979 376.222 601.117C376.339 601.388 376.47 601.653 376.614 601.91L376.842 602.358C376.973 602.584 377.115 602.803 377.268 603.013L377.563 603.46L378.023 604.08L378.351 604.493L378.845 605.043C378.948 605.185 379.07 605.312 379.207 605.42L379.701 605.935L380.096 606.278L380.59 606.724L381.019 607.067L381.514 607.444L381.91 607.752L382.405 608.094L382.769 608.333L383.264 608.675L383.594 608.88L384.057 609.153L384.387 609.323L384.784 609.562L385.05 609.56L385.413 609.73L385.613 609.728L385.878 609.726L386.078 609.724C386.41 610.826 386.846 611.889 387.379 612.899C387.389 613.003 387.388 613.107 387.376 613.211C387.638 613.625 387.867 614.073 388.162 614.521L388.391 614.934L389.538 616.656C393.279 621.587 397.912 625.698 403.183 628.763C408.733 632.178 414.562 634.065 418.56 632.748C421.036 631.87 423.561 631.153 426.118 630.601L426.981 630.594L427.613 630.588C427.918 630.643 428.21 630.758 428.473 630.927C429.266 631.439 430.11 626.097 430.092 620.519C430.078 618.63 429.962 616.746 429.742 614.875C429.526 613.076 429.245 611.034 428.997 608.923C428.501 604.874 428.042 600.444 427.944 596.426C427.948 595.976 427.951 595.56 427.955 595.144C427.925 593.374 428.018 591.602 428.234 589.841C428.238 589.391 428.242 588.906 428.246 588.421C428.25 587.936 428.249 588.074 428.251 587.901C428.252 587.728 428.256 587.278 428.259 586.931L428.26 586.792C428.28 586.481 428.282 586.168 428.268 585.857C428.287 585.615 428.289 585.371 428.275 585.129L428.305 581.665C428.308 581.353 428.31 581.076 428.313 580.764L428.321 579.863C428.323 579.551 428.326 579.274 428.329 578.962L428.336 578.062C428.109 574.235 428.142 570.391 428.437 566.559C429.213 561.39 434.63 553.408 437.327 564.054C440.099 579.952 441.68 596.073 442.054 612.271C441.683 616.778 442.117 627.894 439.59 632.005L437.064 636.081C437.064 636.081 450.166 634.231 457.726 628.135C458.339 627.665 458.91 627.138 459.433 626.561L460.774 625.198L461.008 624.988L462.113 623.974L462.279 623.972L463.417 623.026C463.802 622.7 464.204 622.396 464.62 622.115C467.026 620.223 469.742 618.812 472.628 617.955C472.628 617.955 472.057 603.444 471.344 589.974C471.349 589.385 471.354 588.796 471.36 588.207L471.37 586.96C471.377 586.267 471.383 585.574 471.389 584.881L471.395 584.119C471.403 583.288 471.409 582.491 471.25 581.73L471.254 581.245C471.263 580.275 471.104 579.376 471.046 578.51C470.987 577.644 471.056 577.367 471.061 576.778C471.066 576.189 471.063 576.466 471.065 576.327L470.878 574.909L470.882 574.458C468.923 564.496 466.061 554.766 462.333 545.399L461.261 542.707C460.644 541.119 460.059 539.634 459.473 538.288C458.594 536.218 457.812 534.423 457.128 532.974C456.443 531.525 455.985 530.663 455.592 530.009C452.516 524.77 445.772 513.572 451.437 507.597C455.292 503.544 457.512 504.078 459.692 509.359L459.69 509.601C459.852 509.981 459.982 510.361 460.111 510.741C460.18 510.884 460.234 511.035 460.274 511.19L460.792 512.71L460.788 513.16C460.95 513.643 461.078 514.162 461.24 514.68L461.236 515.061C461.43 515.683 461.623 516.374 461.783 517.066L461.945 517.619C462.138 518.31 462.331 519.07 462.523 519.831C463.197 522.561 464 525.672 464.868 528.99C468.661 543.403 474.015 561.785 478.855 570.437C479.345 571.334 479.802 572.23 480.226 573.196L480.519 573.887C480.909 574.784 481.3 575.716 481.624 576.648C481.947 577.65 482.27 578.687 482.56 579.723C482.559 579.897 482.557 580.07 482.555 580.278C482.812 581.28 483.069 582.317 483.293 583.32C484.617 589.774 484.951 596.423 484.283 603.023C483.992 606.53 483.036 609.953 481.472 613.095C481.472 613.095 499.405 594.296 507.855 585.143L508.761 584.165L509.029 583.851L509.666 583.152L509.968 582.838L510.438 582.279L510.706 581.965L511.075 581.512C511.162 581.439 511.24 581.357 511.31 581.267L511.579 580.918L511.848 580.569C511.934 580.42 511.992 580.254 512.018 580.083C512.041 579.84 512.043 579.597 512.024 579.355L512.036 578.039C512.039 577.657 512.042 577.276 512.046 576.826C512.05 576.41 512.054 575.925 512.058 575.44L512.06 575.232C512.064 574.747 512.069 574.262 512.073 573.742L512.075 573.5C512.08 572.98 511.918 572.462 511.857 571.908C511.862 571.319 511.701 570.732 511.606 570.144C510.6 563.674 509.133 556.724 509.133 556.724C509.133 556.724 498.99 535.336 497.659 524.123C496.329 512.91 484.658 491.536 481.016 486.441C477.373 481.347 468.92 464.308 479.619 471.418C490.318 478.528 508.076 506.5 512.445 515.849C512.422 518.517 516.283 525.169 520.444 531.748C525.115 540.818 529.98 550.37 531.244 553.962C532.508 557.554 534.296 562.007 535.532 565.01L535.727 565.458L535.725 565.77L535.92 566.219L535.918 566.461L536.145 567.048L536.143 567.325L536.141 567.533L536.139 567.81L536.135 568.191C538.677 565.538 540.93 562.601 542.854 559.436C544.625 556.675 546.119 553.736 547.315 550.665C551.46 540.027 559.701 524.364 556.1 518.368C555.986 518.128 555.855 517.897 555.707 517.679L555.709 517.505L555.349 516.885L555.351 516.608L554.958 515.953L554.96 515.745L554.47 514.849C554.076 514.229 553.684 513.539 553.259 512.781L552.964 512.264C552.727 511.91 552.508 511.541 552.31 511.161C546.549 501.374 537.449 486.074 532.645 480.92C526.062 474.051 496.591 448.644 494.113 447.142C491.635 445.64 491.428 438.851 502.363 445.613C512.17 451.556 520.983 459.101 528.474 467.966C536.431 477.145 547.13 484.255 549.964 490.708C551.624 494.718 552.976 498.865 554.007 503.109L554.263 504.25C554.263 504.25 561.508 484.68 560.595 475.127C560.603 474.295 560.61 473.464 560.617 472.598L560.622 472.009C560.632 470.934 560.641 469.895 560.651 468.786C560.669 466.708 560.688 464.525 560.708 462.238C560.727 461.903 560.73 461.568 560.716 461.234L560.718 461.026C560.704 460.749 560.707 460.471 560.726 460.194L560.728 459.917L560.735 459.12L560.738 458.808C560.756 458.543 560.758 458.277 560.745 458.011C560.745 458.011 560.746 457.804 560.748 457.665C560.749 457.526 560.752 457.18 560.754 456.903C560.771 456.788 560.772 456.671 560.757 456.556C560.759 456.314 560.762 456.036 560.764 455.759C560.75 455.656 560.75 455.551 560.767 455.447C560.77 455.136 560.606 454.86 560.542 454.583C560.531 454.492 560.532 454.398 560.544 454.306C560.548 453.925 560.319 453.546 560.189 453.166C560.192 452.785 559.93 452.372 559.768 451.992L559.769 451.819L559.379 450.818L559.216 450.473L558.858 449.644C558.769 449.515 558.693 449.376 558.629 449.231L558.237 448.472L557.975 448.024L557.583 447.3L557.289 446.783C557.29 446.575 556.994 446.335 556.83 446.094L556.502 445.578L556.01 444.854L555.616 444.338L555.057 443.651C554.936 443.47 554.805 443.298 554.663 443.134C554.473 442.866 554.265 442.614 554.039 442.378L553.644 441.896L552.888 441.037L552.493 440.625L551.275 439.389C550.748 438.874 550.221 438.359 549.661 437.879L549.166 437.433L547.88 436.37L547.386 435.959L545.736 434.692C545.109 434.213 544.449 433.768 543.788 433.324L543.524 433.118L541.774 431.991L541.444 431.786C539.528 430.59 537.577 429.499 535.594 428.374L533.511 427.319L533.114 427.114L531.361 426.299L530.996 426.302L526.827 424.434L526.528 424.437L524.808 423.69L524.409 423.693L522.522 422.948C514.942 419.967 508.55 417.946 505.973 416.376C500.323 412.962 508.899 404.536 512.723 404.016C516.961 404.793 521.026 406.327 524.74 408.551L527.485 409.981L528.708 410.629L529.005 410.799L530.063 411.379L530.427 411.583L531.418 412.163L531.782 412.368L532.773 412.948L533.137 413.153L534.128 413.733L534.458 413.938L535.648 414.654L536.903 415.44L537.069 415.439L538.126 416.122L538.456 416.361L539.249 416.874L539.678 417.182L540.371 417.626L540.767 417.934L541.394 418.379L541.791 418.653L542.385 419.098L542.748 419.372L543.308 419.852L543.605 420.057L544.363 420.743L545.781 421.943L550.397 425.781L552.508 427.46C558.116 431.913 563.33 435.782 563.33 435.782C563.33 435.782 558.847 428.096 553.786 418.06L552.382 415.267C551.436 413.37 550.489 411.403 549.577 409.402C548.664 407.401 547.719 405.4 546.84 403.364C539.806 387.214 536.63 378.166 532.476 374.635L531.421 373.709C537.355 367.42 545.568 358.754 550.498 353.306L551.404 352.293L551.672 352.013L552.309 351.28L552.578 350.966L553.081 350.407L553.349 350.093L553.718 349.674L553.953 349.429C554.053 349.31 554.143 349.182 554.222 349.046L554.491 348.697C554.557 348.527 554.614 348.353 554.661 348.176C554.683 347.922 554.685 347.667 554.668 347.414L554.679 346.132C554.682 345.75 554.686 345.335 554.69 344.919C554.694 344.469 554.698 343.984 554.702 343.498C554.706 343.013 554.711 342.494 554.715 342.009L554.735 339.687C554.74 339.168 554.579 338.615 554.517 338.061C554.522 337.507 554.361 336.919 554.266 336.331C553.26 329.862 551.793 322.911 551.793 322.911C551.793 322.911 541.65 301.523 540.319 290.311C538.989 279.098 527.318 257.758 523.676 252.629C520.034 247.5 511.58 230.496 522.279 237.606C532.978 244.716 550.736 272.722 555.105 282.071C555.082 284.704 558.943 291.356 563.104 297.936C567.774 307.04 572.64 316.558 573.904 320.15C575.168 323.741 576.956 328.229 578.192 331.197L578.19 331.37L578.386 331.819L578.383 332.131L578.546 332.545L578.543 332.788L578.771 333.374L578.768 333.686L578.767 333.86L578.764 334.171L578.761 334.518C581.36 331.886 583.67 328.959 585.646 325.795C587.402 323.026 588.897 320.089 590.106 317.025C594.251 306.387 602.492 290.723 598.891 284.693C598.745 284.485 598.614 284.266 598.498 284.038L598.5 283.865L598.14 283.244L597.943 282.934L597.584 282.279L597.586 282.072L597.062 281.21C596.702 280.555 596.309 279.866 595.851 279.142L595.556 278.625L594.902 277.523C589.142 267.701 580.041 252.435 575.237 247.282C568.654 240.412 539.183 215.005 536.738 213.468C534.294 211.931 534.053 205.212 544.955 211.974C554.784 217.884 563.611 225.42 571.099 234.293C579.057 243.471 589.756 250.581 592.556 257.069C594.257 261.063 595.61 265.213 596.599 269.47C596.705 269.833 596.79 270.202 596.855 270.576C596.855 270.576 604.101 251.007 603.187 241.488C603.195 240.656 603.202 239.825 603.209 238.959L603.215 238.335C603.224 237.296 603.233 236.222 603.243 235.113C603.261 233.034 603.28 230.852 603.3 228.6C603.302 228.288 603.305 227.941 603.308 227.629L603.31 227.422L603.318 226.555L603.32 226.278L603.327 225.481L603.332 224.927C603.334 224.684 603.336 224.407 603.338 224.165C603.355 224.05 603.356 223.933 603.341 223.818C603.359 223.564 603.362 223.31 603.348 223.056C603.368 222.941 603.369 222.824 603.351 222.71C603.354 222.432 603.356 222.155 603.358 221.913L603.361 221.566L603.169 220.702L603.172 220.425C603.175 220.078 602.979 219.699 602.849 219.319C602.853 218.938 602.557 218.56 602.428 218.145L602.038 217.144C601.97 217.024 601.915 216.897 601.875 216.764L601.483 215.971L601.288 215.522L600.896 214.798C600.821 214.63 600.734 214.469 600.634 214.316L600.242 213.592L599.914 213.109L599.489 212.386C599.377 212.219 599.256 212.058 599.128 211.904C598.986 211.647 598.821 211.405 598.636 211.181L598.275 210.664L597.717 209.942L597.322 209.426C597.125 209.185 596.895 208.945 596.698 208.669L596.304 208.188L595.547 207.363L595.152 206.951L593.934 205.68L592.286 204.17L591.792 203.725L590.539 202.662L590.011 202.251L588.395 201.018L586.447 199.65L586.183 199.479L584.432 198.351L584.102 198.147C582.186 196.951 580.203 195.826 578.22 194.735L576.169 193.714L575.772 193.51L574.02 192.659L573.656 192.489C572.266 191.855 570.877 191.244 569.487 190.656L569.188 190.659L567.434 189.947L567.07 189.777L565.183 189.032C557.603 186.016 551.211 183.995 548.633 182.459C545.544 178.676 554.12 170.319 557.844 169.905ZM215.034 113.807C215.039 113.888 215.038 113.969 215.031 114.049L215.03 114.223L214.598 114.227L215.034 113.807ZM212.397 111.406L212.415 109.327C212.538 109.585 212.646 109.85 212.741 110.121L212.397 111.406ZM229.931 477.399L229.336 477.023L228.907 476.75L228.411 476.442L227.487 475.758L227.19 475.553C224.645 473.658 222.304 471.484 220.205 469.068L219.909 468.724C219.383 468.105 218.824 467.452 218.299 466.764L217.839 466.144C217.347 465.49 216.888 464.836 216.429 464.147L215.871 463.286L214.594 461.219L214.006 460.15C213.647 459.426 213.254 458.702 212.896 457.943L212.309 456.701C211.983 455.942 211.658 455.148 211.366 454.319C211.074 453.49 210.976 453.387 210.813 452.938C210.651 452.49 210.264 451.211 210.006 450.313C209.748 449.414 209.682 449.346 209.554 448.827C209.426 448.309 209.107 446.822 208.883 445.785C208.887 445.299 208.659 444.851 208.597 444.367C208.311 442.845 208.093 441.219 207.941 439.557C206.425 422.942 211.31 411.292 215.768 406.541L216.405 405.877C216.777 405.548 217.168 405.244 217.576 404.965L218.11 404.684C218.319 404.549 218.543 404.442 218.777 404.366L219.242 404.361L219.84 404.356L220.238 404.353C220.422 404.399 220.6 404.467 220.768 404.556L221.098 404.795C221.266 404.955 221.41 405.141 221.525 405.346L221.722 405.656C221.926 406.067 222.068 406.51 222.142 406.968C222.226 407.471 222.277 407.98 222.295 408.491L222.291 408.907C222.287 409.323 222.284 409.739 222.28 410.154C222.298 410.246 222.297 410.34 222.278 410.432C221.732 415.876 218.458 421.829 217.906 431.811C217.896 433.024 217.885 434.306 217.873 435.657L217.871 435.9C217.861 436.974 217.851 438.117 218.073 439.362C218.055 439.57 218.053 439.778 218.067 439.986C218.058 441.06 218.314 442.201 218.469 443.447C218.467 443.724 218.464 444.036 218.461 444.347C218.692 445.8 218.978 447.322 219.318 448.913L220.116 452.613L220.405 453.788C220.596 454.722 220.788 455.586 221.013 456.415C221.238 457.245 221.236 457.487 221.365 458.006L221.846 459.942L222.231 461.428C222.228 461.844 222.457 462.223 222.553 462.637C222.649 463.052 223.037 464.296 223.262 465.091C223.26 465.368 223.424 465.644 223.521 465.885L224.006 467.371C223.997 467.521 223.995 467.671 224.002 467.821C224.327 468.719 224.651 469.582 225.01 470.41C225.003 470.503 225.002 470.595 225.007 470.687L225.594 471.999C226.005 472.82 226.464 473.615 226.968 474.377C227.709 475.506 228.557 476.554 229.498 477.507L229.931 477.399ZM407.027 568.83C407.024 569.141 406.789 569.42 406.654 569.734L406.652 569.941C406.537 570.174 406.402 570.396 406.248 570.603L406.246 570.777C403.117 573.995 400.181 577.412 397.455 581.006C397.051 581.668 396.646 582.364 396.274 583.095C395.926 583.715 395.61 584.354 395.328 585.009L395.325 585.321C395.054 585.947 394.782 586.642 394.51 587.303L394.306 587.859C394 588.728 393.693 589.666 393.385 590.639C393.078 591.612 392.94 592.202 392.701 592.931L392.495 593.661C392.324 594.217 392.187 594.772 392.016 595.293C391.846 595.815 391.844 595.953 391.742 596.3L391.432 597.481C391.429 597.828 391.261 598.141 391.192 598.419L390.985 599.217C390.981 599.737 390.744 600.259 390.64 600.779L390.635 601.299L390.427 602.271C390.443 602.374 390.442 602.479 390.425 602.583C390.42 603.172 390.248 603.762 390.177 604.317L390.175 604.525C390.156 604.825 390.154 605.126 390.167 605.426C390.128 606.015 390.123 606.605 390.152 607.193C390.205 608.049 390.342 608.895 390.562 609.718L390.366 609.339L390.368 609.062C390.327 608.94 390.273 608.824 390.205 608.717L389.912 608.027L389.914 607.819C389.119 605.949 388.523 603.992 388.138 601.98C388.12 601.889 388.121 601.794 388.141 601.703L387.856 600.112C387.873 599.939 387.875 599.764 387.86 599.592C387.864 599.107 387.869 598.587 387.873 598.067C387.878 597.548 387.877 597.617 387.879 597.409C387.881 597.201 387.888 596.37 387.893 595.85L387.899 595.088C387.904 594.568 387.908 594.048 387.913 593.494C387.918 592.94 387.918 592.94 387.921 592.628C387.959 592.092 388.03 591.559 388.134 591.032L388.142 590.062C388.147 589.508 388.385 588.951 388.489 588.396C388.55 588.068 388.63 587.743 388.73 587.424C388.882 586.79 389.065 586.164 389.278 585.548C389.349 585.253 389.44 584.963 389.551 584.68C389.862 583.71 390.225 582.758 390.639 581.829C394.808 572.23 400.961 567.464 404.79 566.321L405.322 566.316L406.219 566.308L406.584 566.304L407.049 566.3L407.315 566.298L407.679 566.468L407.877 566.639L408.073 566.915C408.091 566.994 408.09 567.077 408.071 567.157C408.089 567.307 408.087 567.458 408.067 567.608L408.065 567.85C407.808 568.266 407.45 568.605 407.027 568.83ZM445.855 306.02C444.882 307.102 440.151 312.584 434.944 319.386L434.742 319.63L432.357 322.77L432.054 323.188C431.315 324.165 430.608 325.176 429.869 326.187L429.499 326.745C428.726 327.791 427.985 328.872 427.245 329.952L426.808 330.649C426.438 331.172 426.101 331.695 425.764 332.252C424.003 332.268 422.11 332.285 420.148 332.58C423.65 322.612 427.992 312.973 433.12 303.778C433.558 303.047 434.063 302.349 434.567 301.617C435.056 300.934 435.583 300.282 436.145 299.663L436.147 299.49C436.717 298.827 437.287 298.198 437.89 297.603L438.058 297.429C438.661 296.8 439.298 296.205 439.934 295.61L441.975 293.86C444.082 292.173 446.317 290.67 448.657 289.366C453.63 286.619 458.054 285.817 459.863 287.879C463.976 292.312 447.365 304.205 445.722 306.021L445.855 306.02ZM431.946 377.441L431.75 377.062C431.776 377.191 431.808 377.318 431.847 377.442L431.946 377.441ZM430.886 377.139L431.118 377.137L431.318 377.135L431.584 377.133L431.783 377.131C432.109 378.236 432.545 379.3 433.084 380.307L433.081 380.619L433.408 381.17C431.127 380.201 428.917 379.063 426.795 377.765L430.886 377.139ZM406.108 221.048L407.076 220.52C407.076 220.52 407.076 220.52 407.275 220.518L408.009 220.131L408.242 220.129L409.042 219.81L410.541 219.207L411.075 218.995L412.342 218.464L412.942 218.181L414.442 217.544L414.942 217.297L417.143 216.307C419.911 215.035 422.979 213.622 426.113 212.243L431.113 210.154L431.647 209.941L432.68 209.551L433.713 209.161L434.612 208.841L435.745 208.45L436.544 208.2L437.81 207.807L438.443 207.594L440.307 207.092L441.772 206.733L442.071 206.73L443.535 206.405L443.834 206.402L445.298 206.112L446.829 205.787L447.26 205.783L448.691 205.493L449.156 205.488L450.387 205.235L450.753 205.232L452.15 204.977L452.681 204.972L454.012 204.717L454.51 204.713L455.542 204.531L456.007 204.526L457.171 204.308L457.736 204.303L458.867 204.12L459.265 204.116L460.129 204.108L460.527 204.105L461.525 203.923L461.858 203.92L462.821 203.911L463.784 203.902L464.615 203.895L465.246 203.889C458.858 208.866 451.666 214.751 443.933 221.679C434.578 224.188 424.792 226.632 416.6 229.096L413.802 229.952L411.204 230.807L408.739 231.661C408.173 231.839 407.673 232.051 407.139 232.264C406.636 229.012 406.099 225.864 405.393 223.03L405.861 222.714L406.108 221.048ZM266.007 153.017C284.265 152.91 302.37 155.847 319.638 161.717C337.788 167.617 358.209 168.3 367.086 174.872C372.304 178.785 377.199 183.144 381.719 187.905C380.598 190.756 379.609 193.779 378.752 196.766C363.679 188.517 344.568 178.503 335.39 175.953C321.142 172.027 260.48 162.178 255.73 162.221C250.98 162.263 245.647 153.026 266.072 153.155L266.007 153.017ZM241.637 281.418C243.906 272.632 247.338 271.389 254.497 276.903L254.827 277.177C255.322 277.553 255.817 277.93 256.311 278.376L256.872 278.856L258.717 280.502L259.278 281.017L261.056 282.699L261.517 283.145L263.823 285.411L264.415 286.029C265.238 286.853 266.094 287.711 266.95 288.639C270.011 291.799 273.533 295.509 277.287 299.182L279.921 301.826C282.623 309.4 285.134 317.23 287.455 325.316L285.839 323.98L282.342 321.343L276.403 316.789C273.631 314.701 271.122 312.922 269.075 311.52C267.028 310.118 265.773 309.297 264.649 308.719C256.384 304.254 238.435 294.438 241.702 281.59L241.637 281.418ZM292.004 443.515C291.217 442.413 290.363 441.312 289.51 440.073C285.735 434.945 281.699 429.299 278.458 423.855L277.477 422.166C276.082 419.748 274.84 417.236 273.756 414.647C273.496 414.003 273.203 413.312 272.877 412.576L272.551 411.852C272.323 411.403 272.128 410.92 271.866 410.437C271.605 409.955 271.573 409.816 271.409 409.506L270.756 408.23C270.593 407.885 270.397 407.54 270.2 407.196C270.004 406.851 269.776 406.368 269.547 405.955L268.959 404.851L268.272 403.61L267.618 402.473L266.931 401.266L266.277 400.094C266.015 399.681 265.786 399.267 265.557 398.854L264.837 397.648C261.645 392.554 258.795 387.231 256.307 381.719C253.418 373.984 254.848 358.59 266.764 370.885C275.092 379.506 291.724 403.331 301.982 419.071C301.979 419.452 301.976 419.833 301.972 420.214C298.683 427.969 295.36 435.759 292.069 443.687L292.004 443.515ZM311.092 440.884L312.617 437.406L313.205 438.544L311.092 440.884ZM328.333 368.22L326.891 365.946L326.596 365.464L324.235 362.021C323.743 361.298 323.251 360.54 322.693 359.817L322.266 359.232L320.887 357.443C320.889 357.27 320.591 357.099 320.46 356.893C317.567 353.454 314.08 349.571 310.261 345.76C308.857 339.19 307.352 332.725 305.713 326.469C312.955 333.259 320.771 339.357 329.069 344.69C330.457 345.474 331.778 346.398 333.098 347.322L334.056 348.006C335.31 348.93 336.53 349.889 337.684 350.918L338.178 351.399C334.809 356.868 331.538 362.475 328.431 368.392L328.333 368.22ZM352.274 384.149C349.745 389.408 349.149 395.42 350.599 401.036L353.932 399.724L350.252 402.702C346.977 397.431 342.882 390.92 338.655 384.271C342.403 377.309 346.181 370.589 350.024 364.111C352.856 367.895 355.44 371.876 357.759 376.028C355.725 378.657 353.87 381.429 352.206 384.323L352.274 384.149ZM366.829 307.179C363.113 302.812 360.252 299.547 360.252 299.547C360.252 299.547 329.644 278.792 319.173 264.578C308.702 250.364 276.056 230.841 267.023 226.938C266.03 226.496 264.807 225.918 263.517 225.203C259.852 218.93 256.228 213.039 252.645 207.528L253.442 207.521C273.828 208.308 320.124 231.728 333.496 240.823C335.658 244.268 346.034 250.307 356.88 255.857C366.129 261.698 375.642 267.744 382.18 272.189C382.175 272.778 382.17 273.333 382.165 273.922C382.11 274.626 382.104 275.332 382.146 276.035C382.14 276.728 382.267 277.455 382.526 278.214C382.519 278.977 382.878 279.736 383.07 280.496C383.263 281.256 383.522 282.016 383.748 282.811L383.746 282.984L383.942 283.433C378.361 291.105 372.634 299.078 366.761 307.353L366.829 307.179ZM382.912 329.103C382.912 329.103 382.653 328.412 382.457 327.998L382.459 327.79C382.238 327.324 381.987 326.875 381.706 326.446L381.708 326.238C381.397 325.68 381.058 325.139 380.693 324.619C380.299 324.033 379.873 323.414 379.413 322.794L379.249 322.553L378.166 321.073C383.009 314.24 387.826 307.718 392.619 301.508C393.927 303.887 394.844 305.369 394.844 305.369L395.18 304.915L395.651 304.253L396.457 303.172L397.566 301.672C397.97 301.114 398.407 300.452 398.911 299.789L402.744 294.489L403.45 293.547C403.921 292.85 404.458 292.152 404.996 291.42L405.366 290.897L405.601 290.583L405.865 290.754L406.657 291.371L407.053 291.644L407.284 291.85L407.713 292.123L408.208 292.5C408.947 289.863 409.536 287.185 409.972 284.481L414.746 277.891C428.194 259.305 438.372 253.844 447.902 250.294C457.432 246.744 473.927 240.499 473.251 249.513C472.574 258.526 463.198 259.684 446.759 267.072C430.32 274.46 415.168 286.652 410.796 292.892C406.423 299.133 407.398 301.618 402.844 309.662C398.29 317.706 397.931 320.792 400.24 326.453C401.02 328.351 402.29 331.285 403.79 334.458L404.41 335.769C403.921 335.966 403.442 336.19 402.976 336.44C394.098 341.336 383.321 347.01 389.585 348.478C395.85 349.946 407.903 350.392 411.768 352.817L417.351 356.232L417.515 356.438L419.729 357.804C419.721 358.67 419.879 359.57 420.005 360.4C420.131 361.23 420.227 361.61 420.321 362.198C416.657 363.444 412.925 364.794 408.958 366.458C406.383 364.645 404.139 363.036 402.551 362.254C395.941 358.572 384.153 354.416 376.582 357.948C378.2 351.456 379.749 345.275 380.886 340.588L380.888 340.311C381.06 339.582 381.233 338.853 381.371 338.193C381.389 337.985 381.391 337.777 381.377 337.57C381.381 337.05 381.652 336.528 381.756 336.042L381.761 335.383C381.765 334.968 381.768 334.587 382.004 334.203C382.022 333.984 382.023 333.764 382.01 333.545C382.013 333.233 382.015 332.921 382.217 332.643L382.222 332.123C382.224 331.846 382.226 331.603 382.228 331.395C382.23 331.187 382.23 331.153 382.231 331.049C382.255 330.83 382.257 330.609 382.237 330.391C382.513 330.068 382.72 329.688 382.844 329.276L382.912 329.103ZM435.013 406.584C427.214 409.737 395.447 407.528 387.292 405.765C383.7 405.096 380.063 404.689 376.408 404.546C383.195 399.744 390.231 395.343 397.482 391.366C408.866 392.498 420.109 394.717 431.069 397.993C434.808 399.657 442.815 403.223 435.013 406.584ZM475.43 342.442L474.374 341.551C474.279 339.067 474.368 336.577 474.639 334.1C475.415 328.897 480.832 320.949 483.496 331.561C485.006 338.947 486.05 346.437 486.622 353.982C485.899 353.088 485.143 352.194 484.353 351.301L482.642 349.445C480.473 346.797 478.103 344.428 475.531 342.268L475.43 342.442ZM489.9 404.672L489.893 405.434L489.895 405.191C489.897 405.018 489.733 404.742 489.602 404.466L489.605 404.189C489.605 404.189 489.607 403.947 489.608 403.808L489.61 403.6C489.602 403.427 489.603 403.254 489.614 403.08C489.616 402.907 489.617 402.734 489.619 402.595L491.45 402.094C491.214 403.089 491.038 404.097 490.925 405.113L489.9 404.672ZM490.67 403.972L491.409 402.926C491.408 403.099 491.406 403.272 491.405 403.445L490.67 403.972ZM491.312 406.426L491.514 406.216C491.526 406.273 491.525 406.332 491.512 406.389L491.312 406.426ZM524.765 337.15C525.256 338.046 525.712 338.978 526.136 339.909L526.429 340.599C526.82 341.52 527.177 342.452 527.501 343.396C527.857 344.432 528.18 345.468 528.437 346.505L528.598 347.024C528.855 348.061 529.112 349.063 529.302 350.101C530.486 355.921 530.892 361.897 530.509 367.862C528.043 364.94 526.211 361.734 526.965 359.129C528.232 354.718 530.396 346.592 525.709 347.015L524.646 347.025L524.281 347.028L523.382 347.244L522.917 347.248L521.951 347.568L521.484 347.746L520.352 348.137L519.92 348.141L518.62 348.672L518.288 348.675L517.254 349.169L517.268 347.576L517.272 347.056L517.097 344.321C517.101 343.766 517.106 343.212 517.111 342.623C517.097 342.462 517.098 342.299 517.116 342.138C517.12 341.687 517.124 341.203 516.896 340.72C516.913 340.581 516.914 340.442 516.899 340.304C514.938 330.338 512.065 320.608 508.318 311.245C507.994 310.313 507.636 309.415 507.278 308.552C506.661 306.964 506.043 305.48 505.49 304.099C504.611 302.063 503.83 300.269 503.145 298.82C502.46 297.371 502.003 296.509 501.61 295.854C498.533 290.616 491.789 279.383 497.454 273.442C501.31 269.354 503.53 269.923 505.71 275.17L505.707 275.447C505.873 275.815 506.014 276.196 506.129 276.586C506.203 276.727 506.258 276.878 506.291 277.035C506.287 277.486 506.615 278.002 506.776 278.521L506.938 279.004C506.934 279.489 507.229 279.972 507.39 280.49L507.387 280.906C507.581 281.527 507.741 282.184 507.934 282.91L508.095 283.428C508.089 284.156 508.448 284.88 508.674 285.675C509.347 288.406 510.15 291.516 511.018 294.834C514.673 309.976 519.992 328.393 524.865 337.149L524.765 337.15ZM532.754 171.446L533.494 170.366C533.474 170.55 533.472 170.736 533.489 170.92L532.754 171.446ZM533.396 173.9L533.597 173.725C533.581 173.782 533.581 173.842 533.596 173.898L533.396 173.9Z" fill="black" fill-opacity="0.15"/>
</svg>
