<svg width="644" height="675" viewBox="0 0 644 675" fill="none" xmlns="http://www.w3.org/2000/svg">
<path d="M588.166 179.039C592.653 179.83 596.955 181.447 600.872 183.817L603.765 185.325L605.09 186.043L605.403 186.223L606.484 186.833L606.867 187.049L607.913 187.624L608.331 187.876L609.341 188.451L609.759 188.702L610.804 189.314L611.153 189.53L612.407 190.285L613.73 191.149L613.905 191.148L615.019 191.868L615.368 192.084L616.203 192.66L616.656 192.948L617.352 193.453L617.805 193.741L618.466 194.246L618.883 194.535L619.51 195.004L619.892 195.292L620.483 195.762L620.796 196.014L621.596 196.701L623.09 198.002C624.62 199.302 626.289 200.674 627.958 202.01L630.184 203.816C636.096 208.508 641.559 212.548 641.559 212.548C641.559 212.548 636.866 204.486 631.531 193.874C631.049 192.929 630.532 191.948 630.051 190.93C629.053 188.931 628.055 186.859 627.093 184.787C626.13 182.715 625.134 180.533 624.207 178.424C616.756 161.369 613.442 151.871 609.062 148.15C604.682 144.429 598.365 138.024 599.701 133.412C601.037 128.801 603.318 120.201 598.341 120.647C597.98 120.619 597.617 120.623 597.256 120.657L596.835 120.661L595.923 120.888L595.433 120.892L594.414 121.194L593.924 121.198L592.73 121.647L592.274 121.651L590.868 122.248L590.553 122.25C584.999 124.71 578.625 128.709 576.452 133C573.782 137.916 575.209 143.014 574.21 149.119C574.134 149.65 574.024 150.176 573.881 150.692C573.877 151.167 573.627 151.644 573.483 152.156C573.467 152.228 573.466 152.303 573.481 152.375C573.332 152.863 573.153 153.34 572.943 153.804L572.94 154.132C572.69 154.719 572.405 155.305 572.119 155.928C571.05 158.019 569.947 160.037 568.879 162.018C566.858 165.528 565.127 169.207 563.705 173.016C563.076 173.729 562.55 174.533 562.144 175.403C561.606 177.001 561.262 178.66 561.12 180.34L560.91 180.342L560.903 181.109L560.906 180.853C560.784 180.595 560.681 180.327 560.597 180.053L560.6 179.761C560.6 179.761 560.602 179.505 560.603 179.359C560.59 179.177 560.592 178.994 560.608 178.812L560.61 178.592L560.405 177.974C560.329 177.737 560.272 177.493 560.237 177.245L560.24 176.88L560.038 175.969C560.038 175.969 560.04 175.75 560.041 175.641C559.873 174.802 559.741 173.854 559.609 172.87C559.626 172.749 559.627 172.626 559.613 172.505L559.623 171.3L559.627 170.899C559.631 170.424 559.635 169.949 559.639 169.475C559.643 169 559.639 169.475 559.641 169.256C559.643 169.037 559.651 168.124 559.656 167.54C559.661 166.955 559.658 167.321 559.659 167.211C559.66 167.102 559.667 166.262 559.671 165.787C559.656 165.605 559.657 165.422 559.676 165.24L559.898 163.923L559.902 163.376C559.908 162.755 560.193 162.132 560.374 161.51C560.771 160.155 561.203 158.801 561.635 157.483C562.967 153.727 563.962 149.856 564.607 145.92L564.603 146.395C564.624 146.298 564.625 146.199 564.606 146.103C564.606 146.103 564.608 145.883 564.609 145.774L564.623 144.131L564.627 143.62C564.632 143.109 564.636 142.634 564.64 142.123C564.645 141.612 564.644 141.721 564.646 141.502L564.448 140.117L564.454 139.423C564.458 138.985 564.251 138.549 564.115 138.076L563.912 137.347C563.765 136.888 563.593 136.439 563.398 136.001C563.322 135.752 563.231 135.509 563.124 135.274C562.918 134.801 562.642 134.329 562.402 133.82C562.161 133.311 562.195 133.383 562.057 133.166C561.919 132.948 561.194 131.786 560.71 131.06C559.256 129.066 557.593 127.036 555.86 125.044C555.27 124.355 554.681 123.704 554.056 123.052C551.627 120.445 549.023 117.95 546.415 115.819L544.433 114.158C543.147 113.111 541.86 112.1 540.607 111.162C537.968 109.136 535.117 107.423 532.107 106.054C531.617 105.836 531.116 105.646 530.606 105.484L530.151 105.488L529.626 105.492L528.962 105.316L528.261 105.322L527.492 105.146L527.282 105.148L526.477 105.156L525.393 104.983L524.937 104.987L524.482 104.991L523.431 105L522.521 105.009L522.031 105.013L520.349 105.028L519.404 105.036L518.318 105.046L517.373 105.055L516.252 105.065L508.617 105.133L507.741 105.141L506.971 105.148L506.095 105.156L505.5 105.161L503.432 105.435L502.239 105.665C496.906 106.808 478.111 105.626 468.751 110.784C459.391 115.942 448.062 121.921 454.632 123.469C461.202 125.016 473.945 125.486 478.021 128.005L499.546 141.356C501.846 142.769 504.054 144.334 506.159 146.042C508.309 147.572 510.147 149.527 511.572 151.798L511.812 152.344C511.913 152.54 511.993 152.747 512.052 152.962C513.181 155.982 513.665 160.76 505.969 159.807C505.689 159.827 505.408 159.829 505.128 159.814C495.302 158.223 475.552 142.009 468.303 138.022C461.054 134.034 447.962 129.369 440.008 133.894C432.054 138.419 419.809 153.205 415.255 161.35C412.589 166.891 411.96 173.227 413.489 179.144C423.785 174.984 434.349 171.62 445.094 169.077L448.216 168.502L451.056 168.148L457.815 168.087L459.111 168.076L459.321 168.074L460.757 168.061L462.333 168.047C474.511 169.218 486.542 171.555 498.272 175.026C502.212 176.998 510.654 180.72 502.43 184.079C494.206 187.438 460.713 185.073 452.08 183.216C443.446 181.358 417.294 180.534 410.533 184.829C407.208 187.981 404.691 191.948 403.218 196.358C401.483 186.517 396.781 163.56 389.76 153.474C388.964 152.386 388.239 151.188 387.515 149.843L386.997 148.972C386.17 147.47 385.343 145.908 384.517 144.285C382.933 141.233 381.28 137.998 379.312 134.803C379.001 134.332 378.725 133.859 378.413 133.424C378.431 133.327 378.432 133.228 378.416 133.132L377.621 131.934C377.532 131.82 377.451 131.699 377.379 131.572L376.583 130.484L376.271 130.085C376.029 129.722 375.752 129.396 375.51 129.069C375.383 128.921 375.268 128.764 375.164 128.598L374.332 127.62L373.95 127.185L373.049 126.171L372.667 125.773L371.66 124.723L371.313 124.398L369.889 123.06C369.403 122.626 368.881 122.156 368.325 121.723L368.116 121.542L366.725 120.46L366.203 120.099L364.984 119.27L364.323 118.838L363.139 118.082L362.407 117.614L361.187 116.968C360.92 116.791 360.641 116.635 360.351 116.501L359.131 115.891L358.224 115.461L356.933 114.852L355.956 114.46L354.561 113.888L353.548 113.495L352.012 112.962L351.034 112.642L349.253 112.11L348.345 111.826L345.515 111.122L342.019 110.35L340.935 110.177L338.173 109.727L337.087 109.737L333.588 109.367L333.238 109.37L329.283 109.113L328.723 109.118L325.221 109.15L324.52 109.156C320.773 109.189 316.955 109.224 313.206 109.513L309.351 109.839L308.58 109.846L305.356 110.167L304.655 110.174C302.096 110.488 299.537 110.804 297.047 111.191L296.487 111.196L293.331 111.699L292.665 111.705L289.159 112.247C275.585 114.632 264.601 117.323 259.628 117.294C248.493 117.211 254.372 97.5913 259.45 93.5667C261.637 91.8313 270.369 90.3658 280.847 89.5052L286.033 89.1668L286.243 89.1649L288.59 89.1439L289.36 89.1369L291.392 89.1187L305.4 88.9932L307.502 88.9744L308.202 88.9681L309.778 88.954L310.619 88.9464L312.02 88.9339L312.86 88.9264L314.156 88.9147L314.961 88.9075L316.187 88.8965L316.923 88.8899L318.182 89.0612L318.777 89.0558L320.456 89.3328L323.498 89.8532L333.396 91.2977L337.908 91.8779C349.767 93.3414 360.51 94.3038 360.51 94.3038C360.51 94.3038 347.72 87.1171 332.118 77.1812L327.8 74.3724C324.875 72.4638 321.881 70.4828 318.922 68.4285C315.964 66.3741 312.935 64.2838 310.012 62.1561C286.558 45.0623 274.566 34.8021 265.579 33.3493C256.591 31.8966 242.894 28.4782 241.173 21.0099C239.452 13.5415 235.999 -0.0444127 229.514 4.65C229.025 5.01903 228.555 5.41311 228.103 5.83082C227.923 5.95853 227.757 6.10697 227.609 6.27331L226.479 7.34215L225.913 7.96782C225.524 8.37287 225.136 8.77795 224.746 9.25602C224.54 9.44666 224.351 9.65607 224.181 9.88169L222.836 11.4635C222.681 11.6806 222.516 11.8892 222.34 12.0885L220.852 14.0732L220.498 14.5145C214.615 22.5256 208.813 33.3105 208.885 41.1222C208.806 50.1399 214.849 55.8538 218.131 65.097C218.404 65.8611 218.677 66.6619 218.915 67.4994C219.119 68.2277 219.322 69.0289 219.49 69.8306C219.505 69.9637 219.504 70.0988 219.487 70.2322C219.48 70.9989 219.753 71.7631 219.886 72.6015C219.867 72.7838 219.866 72.9672 219.881 73.1491C220.009 74.1891 220.082 75.2366 220.099 76.2868C220.067 79.9377 220.246 83.5867 220.284 87.237C220.185 93.8056 220.631 100.361 221.619 106.829C221.278 108.315 221.17 109.845 221.299 111.359C221.758 114.013 222.56 116.585 223.684 119.004L223.263 119.007C223.26 119.372 223.642 119.734 223.849 120.097C223.748 119.983 223.631 119.886 223.501 119.808L222.458 119.015L222.075 118.689L221.589 118.256L221.346 118.039L220.685 117.461L220.442 117.207L219.678 116.484L218.845 115.652L218.429 115.217C218.116 114.892 217.769 114.53 217.458 114.131L217.111 113.769C216.137 112.613 215.224 111.403 214.376 110.143C214.264 110.013 214.171 109.866 214.099 109.707C213.719 109.2 213.373 108.692 213.027 108.147C212.9 107.974 212.785 107.793 212.682 107.603L211.543 105.678C211.499 105.573 211.44 105.476 211.37 105.387C210.957 104.625 210.544 103.789 210.166 102.952C210.072 102.803 209.992 102.645 209.925 102.48C209.616 101.826 209.341 101.134 209.067 100.443L208.725 99.5702C208.485 98.9152 208.246 98.2603 208.042 97.605C207.935 97.3196 207.844 97.0279 207.769 96.7312C207.451 95.7788 207.191 94.8058 206.989 93.8178C206.483 91.5954 206.047 89.409 205.61 87.259C204.591 81.0389 203.015 74.9421 200.902 69.0481L200.904 68.7559L200.698 68.3197L200.492 67.847C200.149 67.0469 199.77 66.2472 199.392 65.4839L198.978 64.794C198.62 64.107 198.229 63.4404 197.804 62.7967L197.251 61.962L195.936 60.2214C195.693 59.9316 195.486 59.6414 195.243 59.3881C195 59.1347 194.271 58.338 193.751 57.8316C193.478 57.5355 193.188 57.2577 192.882 56.9998C192.361 56.4934 191.77 56.0241 191.179 55.5548L190.205 54.7968C189.544 54.3282 188.812 53.8966 188.081 53.4286L187.106 52.8168C185.99 52.2062 184.84 51.6324 183.619 51.0957C179.893 49.4789 176.083 48.075 172.204 46.8903L168.187 45.6851C162.773 44.1638 157.216 42.8994 151.831 41.962L147.844 41.3406C145.186 40.9629 142.632 40.6572 140.182 40.4601C134.926 39.9225 129.619 39.9701 124.352 40.602C123.462 40.6266 122.572 40.7077 121.689 40.8449L120.917 41.0343L120.074 41.2608L119.021 41.5624L117.932 41.9372L116.703 42.3133L116.353 42.3165L115.123 42.802L113.472 43.4374L112.804 43.7354L112.136 44.0335L110.554 44.7413L109.253 45.3371L108.514 45.7087L107.74 46.0807L106.404 46.7498L104.821 47.6037L104.114 48.3036L103.305 48.7489L101.721 49.6392L100.384 50.3814L100.067 50.6033C99.6921 50.7916 99.3279 51.0021 98.9757 51.2337L97.6732 52.012L96.3704 52.8268L95.9479 53.0862L94.9618 53.7155L93.6587 54.5669L92.4259 55.3811L91.2281 56.195L90.0304 57.0088L89.0084 57.7481L87.8806 58.5613L87.1051 59.1524C86.1181 59.8913 85.2014 60.5932 84.4252 61.2573L82.9432 62.5483C76.3768 68.5942 49.254 82.6731 40.1246 97.5035C30.9952 112.334 19.356 129.852 29.8906 126.545C40.4253 123.238 58.3729 113.184 66.0418 113.225L106.347 113.484C110.645 113.514 114.934 113.805 119.191 114.354C123.368 114.663 127.435 115.804 131.174 117.715L131.939 118.256L132.739 118.906C136.633 122.12 140.957 128.251 129.495 133.537L128.229 134.096C113.328 140.107 73.3145 134.589 60.0733 135.036C46.832 135.483 25.0088 140.205 17.4376 153.05C9.86635 165.895 4.1028 196.32 4.04285 211.215C3.9829 226.111 15.2338 237.035 15.2338 237.035C26.3734 222.773 38.4876 209.365 51.4788 196.918C52.7848 195.738 54.0905 194.595 55.3952 193.561C56.6061 192.547 57.865 191.597 59.1671 190.716L60.8227 189.606L61.4916 189.198L62.6184 188.495L63.6391 187.902L64.5192 187.382L65.8213 186.641L66.525 186.269L68.1083 185.415L68.6012 185.119L70.4653 184.19L70.7821 184.004L72.8573 182.963L75.143 181.884C96.2423 171.839 125.36 161.94 130.722 161.454C137.731 160.807 152.386 158.887 143.461 170.357C134.536 181.827 85.9936 206.575 72.5413 211.149C59.089 215.724 21.8915 236.573 15.732 248.165C9.57254 259.756 19.6182 308.475 27.6538 314.645L29.1145 315.8L30.7491 317.1L30.9576 317.281L32.8004 318.797L33.0437 319.014L35.06 320.712L35.2685 320.893C36.0105 321.47 36.7406 322.084 37.4586 322.735L44.7929 329.021C52.4394 335.633 59.355 341.741 59.355 341.741C59.355 341.741 60.5744 338.444 62.4726 333.609L64.2632 329.066L64.2658 328.774L65.1245 326.685L65.1283 326.247C65.4505 325.441 65.773 324.598 66.1303 323.792L66.1322 323.573C66.4187 322.84 66.7406 322.071 67.0622 321.338L67.3128 320.715L68.2781 318.443L68.2803 318.187L69.352 315.768L69.6736 315.035C69.9242 314.413 70.2098 313.789 70.4954 313.166C70.6051 312.953 70.7006 312.733 70.7813 312.507C71.1382 311.737 71.4951 310.967 71.887 310.197C71.9558 310.007 72.0393 309.823 72.137 309.647L72.9931 307.85L73.3144 307.154L74.3125 305.137L74.3141 304.955L75.3473 302.937L75.6672 302.387L76.4855 300.919L76.7345 300.479C77.0548 299.892 77.4098 299.341 77.7294 298.827L77.9424 298.497L78.6878 297.359L78.9711 296.991C79.2902 296.55 79.5738 296.146 79.8569 295.815L81.6268 293.645L82.2292 292.837L83.6463 290.962L84.3197 290.043L85.9855 287.765L86.5525 286.993L88.9633 283.613C91.9772 279.351 95.3454 274.612 98.8887 269.871C100.732 267.372 102.644 264.872 104.556 262.519C104.768 262.261 104.946 262.004 105.158 261.783L106.362 260.276L107.565 258.841L108.627 257.554L109.971 256.009L110.961 254.905C111.456 254.316 111.986 253.764 112.482 253.212L113.294 252.365C114.037 251.555 114.814 250.781 115.591 250.044C116.368 249.307 116.827 248.828 117.463 248.239L117.851 247.87L119.758 246.101L120.146 245.732L122.017 244L122.229 243.815L124.205 242.045L124.77 241.529L126.676 239.833L127.241 239.317L128.899 237.878L129.358 237.509L131.228 235.886L131.934 235.259L133.663 233.783L134.333 233.229L135.709 232.049L136.344 231.496L137.897 230.167L138.672 229.576L140.189 228.285L140.718 227.842L141.882 226.883L142.377 226.44L143.752 225.333L144.175 224.964L145.515 223.893L146.785 222.86L147.879 221.974L149.677 220.534C149.677 220.534 163.826 204.381 170.735 215.271C177.643 226.161 156.929 240.255 135.659 261.802C124.238 274.462 110.11 288.169 98.9388 300.244L95.4047 303.926C94.3089 305.104 93.248 306.282 92.2575 307.422L89.321 310.844L86.631 314.117L84.2221 317.278C83.4774 318.343 82.768 319.372 82.1644 320.326C73.0757 334.499 73.0976 348.043 72.5537 358.197C72.0099 368.35 76.2745 381.272 85.8676 397.577C86.4449 398.573 87.0797 399.53 87.7687 400.444C88.4962 401.35 89.2584 402.293 90.0906 403.234L92.7281 405.985L95.6461 408.697L95.8893 408.914C106.117 417.424 117.136 424.858 128.789 431.107L128.797 430.158C128.8 429.793 128.805 429.318 128.809 428.807L129.074 426.541C129.082 425.628 129.336 424.567 129.487 423.361C129.637 422.155 129.789 420.876 129.976 419.451L129.978 419.195C130.356 416.089 130.808 412.434 131.335 408.231L131.562 406.294L132.126 401.835L132.135 400.777C133.077 393.211 134.171 384.221 135.488 373.768C140.237 335.175 150.82 318.324 161.934 304.827C173.048 291.329 192.339 267.756 198.594 281.353C204.849 294.95 191.803 305.033 173.866 329.982C155.928 354.93 143.19 386.039 141.747 398.902C140.304 411.765 143.712 414.472 143.611 430.061C143.51 445.651 145.36 450.416 153.396 456.55C156.039 458.607 160.355 461.672 165.088 464.988L168.117 467.042L168.883 467.546L170.346 468.518L171.32 469.167L173.41 470.535L174.733 471.4L175.812 472.12L177.693 473.271L178.529 473.812L180.34 474.927L181.107 475.395L182.361 476.114L183.092 476.582L183.72 476.941L183.965 476.939L184.975 477.514L185.428 477.765L186.579 478.376L186.927 478.555L187.172 478.553L187.87 478.875L188.255 478.872L188.744 479.086L189.094 479.083L189.409 479.08L190.421 479.437L194.787 480.821C199.431 482.349 202.712 483.598 202.712 483.598L187.734 450.292C187.734 450.292 181.838 415.7 182.937 394.006C182.95 392.582 183.173 391.12 183.361 389.621C183.361 389.621 183.361 389.621 183.363 389.329C183.376 387.942 183.808 386.514 184.101 385.088C184.119 384.954 184.12 384.819 184.104 384.686C184.397 383.296 184.759 381.869 185.122 380.479L185.125 380.077C185.535 378.638 185.967 377.21 186.423 375.794L186.426 375.502C186.929 374.037 187.467 372.573 188.04 371.144C189.7 366.86 191.728 362.736 194.1 358.823C199.181 350.527 204.935 345.219 209.334 346.822C218.898 350.387 204.089 382.025 203.178 386.085C202.631 388.499 200.108 400.715 197.918 414.972C197.916 415.191 197.914 415.374 197.913 415.556C197.579 417.713 197.244 419.907 196.945 422.173L196.937 423.012L196.147 429.262L196.137 430.394C195.873 432.623 195.644 434.816 195.449 437.008L195.437 438.395C195.418 440.622 195.083 442.852 194.994 445.007C194.767 449.268 195.048 453.533 195.829 457.703C197.508 466.375 200.894 474.56 205.775 481.745C207.019 483.632 208.3 485.373 209.546 487.041C210.792 488.709 212.11 490.194 213.323 491.57C214.537 492.947 215.682 494.178 216.794 495.19C217.303 495.724 217.849 496.219 218.427 496.672L219.018 497.105L220.202 497.934L220.968 498.365L222.084 498.976L222.921 499.333L224.037 499.798C224.322 499.921 224.614 500.028 224.91 500.119L226.028 500.474L226.901 500.721L228.054 501.003L228.928 501.178L230.012 501.351L230.888 501.343L231.938 501.333L232.744 501.326L233.795 501.317L240.799 501.254L241.184 501.25C242.543 502.575 244.049 503.725 245.672 504.678L246.16 504.966L248.355 506.224L249.052 506.583C249.993 507.086 251.005 507.551 252.121 508.052C261.61 511.862 271.75 513.705 281.98 513.48C284.152 513.46 286.253 513.441 288.322 513.131C282.931 528.913 287.482 521.06 282.709 538.261L295.959 548.911C300.695 531.93 299.59 534.094 304.944 518.531C314.875 504.372 325.515 490.762 336.817 477.759C337.68 480.077 338.121 482.548 338.119 485.049L337.698 493.157C343.934 487.972 349.601 482.08 354.591 475.592L356.47 480.942C358.553 487.056 360.43 492.662 360.43 492.662L364.557 489.23L366.885 487.347L367.943 486.498L368.19 486.313L369.459 485.316L370.623 484.429L370.975 484.171L372.174 483.247L373.478 482.25L373.831 481.955L374.853 481.215L375.205 480.957L376.509 480.032L376.791 479.811L377.778 479.108L378.165 478.849L379.328 478.072L380.49 477.332L380.842 477.11L381.687 476.591L381.967 476.588L382.988 475.995L383.198 475.993L383.972 475.621L384.217 475.619L385.061 475.246L386.642 474.648L387.204 474.424L388.54 473.864L389.173 473.567L390.755 472.859L391.282 472.635L393.603 471.556C396.521 470.215 399.756 468.726 403.06 467.309C404.818 466.527 406.575 465.781 408.332 465.108L408.894 464.884L409.983 464.473L411.073 464.061L412.021 463.724L413.215 463.312L414.058 463.012L415.393 462.599L416.095 462.374L418.025 461.882L419.57 461.503L419.885 461.5L421.429 461.157L421.744 461.155L423.288 460.812L424.901 460.506L425.356 460.502L426.9 460.232L427.355 460.228L428.653 459.998L429.038 459.994L430.511 459.725L431.071 459.72L432.474 459.489L433 459.484L434.087 459.292L434.577 459.287L435.805 459.094L436.4 459.088L437.592 458.895L438.048 458.891L438.923 458.883L439.343 458.88L440.394 458.87L440.744 458.867L441.795 458.858L442.776 458.849L443.616 458.841L444.984 458.61C444.984 458.61 457.383 454.374 457.906 462.656C458.429 470.938 443.013 471.806 425.111 476.64C414.299 479.548 402.613 482.427 392.992 485.324L390.043 486.227L387.268 487.128L384.669 488.064L382.244 488.998L380.03 489.93L377.99 490.934C370.967 494.995 365.213 501.104 361.448 508.496C358.109 513.893 356.459 522.34 356.704 534.422C356.648 535.151 356.642 535.883 356.685 536.612C356.678 537.391 356.811 538.157 357.085 538.909C357.078 539.675 357.456 540.475 357.66 541.276C357.863 542.078 358.136 542.915 358.409 543.715L358.407 543.935C361.32 551.947 364.982 559.629 369.343 566.872L369.697 566.358L370.193 565.696L371.009 564.557L372.179 562.94C372.604 562.353 373.1 561.691 373.597 560.956L377.673 555.371L378.382 554.379L380.012 552.137L380.402 551.623C383.202 547.765 386.464 543.209 390.327 537.917C404.505 518.369 415.271 512.614 425.285 508.873C435.298 505.133 452.725 498.515 452.012 508.013C451.299 517.511 441.412 518.768 424.08 526.517C406.748 534.265 390.772 547.149 386.161 553.762C381.551 560.374 382.58 562.92 377.778 571.433C372.976 579.945 372.598 583.125 375.032 589.126C375.855 591.09 377.229 594.181 378.775 597.562L379.772 599.671L380.013 600.216L380.529 601.234L380.839 601.888L381.562 603.305C381.69 603.619 381.839 603.923 382.009 604.214C382.121 604.476 382.248 604.731 382.388 604.977L383.007 606.249L383.317 606.794L383.937 607.993L384.213 608.502C384.21 608.794 384.523 609.047 384.661 609.301L384.937 609.773L385.179 610.173C385.318 610.382 385.445 610.6 385.558 610.826L385.556 611.118L385.97 611.808L385.968 612.027L386.21 612.427L386.383 612.644L386.556 612.935L386.554 613.117L386.552 613.3L387.003 613.807L388.91 616.017C390.956 618.371 392.376 620.111 392.376 620.111L394.364 596.985C398.229 585.803 403.01 574.975 408.654 564.621C409.116 563.887 409.648 563.116 410.215 562.381C410.746 561.682 411.277 560.984 411.879 560.285L412.055 560.101C412.622 559.439 413.223 558.776 413.859 558.113L414.034 558.112C414.67 557.485 415.341 556.822 416.011 556.232L418.199 554.387C420.407 552.579 422.765 550.981 425.244 549.615C430.452 546.757 435.152 545.875 437.024 548.049C441.113 553.05 423.599 565.583 421.866 567.497C420.876 568.674 415.887 574.45 410.362 581.582L410.149 581.876C409.335 582.942 408.485 584.044 407.669 585.183L407.351 585.588L405.011 588.785L404.621 589.336C403.818 590.463 403.037 591.601 402.28 592.752L401.784 593.45C401.003 594.625 400.258 595.8 399.547 596.938C398.143 599.238 397.005 601.699 396.156 604.27C394.457 609.579 393.812 615.176 394.262 620.715C394.249 622.138 394.518 623.523 394.681 624.836C394.845 626.149 395.114 627.388 395.35 628.481C395.585 629.574 395.821 630.703 396.058 631.65C396.294 632.597 396.33 632.561 396.501 632.997C396.672 633.434 396.498 633.289 396.672 633.434C396.796 633.72 396.934 633.999 397.085 634.27L397.326 634.742C397.464 634.98 397.614 635.211 397.776 635.432L398.087 635.903L398.571 636.556L398.918 636.991L399.438 637.571C399.547 637.721 399.675 637.855 399.82 637.969L400.34 638.512L400.757 638.873L401.278 639.343L401.73 639.704L402.252 640.101L402.67 640.426L403.192 640.786L403.575 641.038L404.097 641.399L404.445 641.615L404.933 641.902L405.282 642.082L405.7 642.333L405.98 642.331L406.363 642.51L406.574 642.508L406.854 642.506L407.064 642.504C407.415 643.665 407.874 644.786 408.436 645.85C408.446 645.959 408.445 646.069 408.433 646.178C408.709 646.614 408.95 647.087 409.261 647.558L409.502 647.994L410.712 649.809C414.656 655.004 419.542 659.337 425.099 662.566C430.951 666.165 437.097 668.154 441.311 666.765C443.923 665.84 446.584 665.085 449.28 664.504L450.191 664.496L450.856 664.49C451.179 664.547 451.487 664.668 451.764 664.846C452.6 665.387 453.489 659.757 453.47 653.879C453.456 651.889 453.333 649.904 453.102 647.932C452.873 646.036 452.577 643.885 452.316 641.66C451.793 637.394 451.309 632.725 451.206 628.491C451.21 628.017 451.214 627.579 451.217 627.14C451.186 625.275 451.284 623.408 451.511 621.552C451.515 621.078 451.52 620.567 451.524 620.055C451.529 619.544 451.528 619.69 451.529 619.508C451.531 619.325 451.535 618.851 451.538 618.486L451.539 618.339C451.56 618.011 451.563 617.682 451.548 617.354C451.568 617.098 451.57 616.842 451.555 616.587L451.586 612.936C451.589 612.607 451.592 612.315 451.595 611.987L451.603 611.038C451.606 610.709 451.608 610.417 451.611 610.088L451.62 609.139C451.38 605.106 451.415 601.056 451.725 597.018C452.543 591.571 458.255 583.16 461.099 594.379C464.022 611.131 465.689 628.119 466.083 645.187C465.692 649.937 466.15 661.651 463.485 665.983L460.821 670.278C460.821 670.278 474.636 668.329 482.607 661.905C483.253 661.41 483.856 660.854 484.407 660.246L485.82 658.81L486.067 658.589L487.232 657.519L487.407 657.518L488.607 656.521C489.013 656.178 489.437 655.857 489.876 655.561C492.412 653.568 495.276 652.081 498.319 651.177C498.319 651.177 497.717 635.887 496.965 621.693C496.971 621.072 496.976 620.451 496.981 619.831L496.993 618.516C496.999 617.786 497.006 617.056 497.012 616.326L497.019 615.522C497.027 614.646 497.034 613.807 496.866 613.005L496.87 612.494C496.879 611.472 496.712 610.524 496.65 609.612C496.588 608.7 496.661 608.407 496.666 607.786C496.672 607.166 496.669 607.458 496.67 607.312L496.473 605.817L496.478 605.342C494.413 594.844 491.395 584.591 487.465 574.721L486.334 571.884C485.683 570.21 485.066 568.646 484.448 567.228C483.522 565.046 482.698 563.155 481.976 561.628C481.254 560.101 480.771 559.193 480.357 558.503C477.114 552.983 470.002 541.182 475.976 534.886C480.04 530.615 482.382 531.178 484.679 536.743L484.677 536.998C484.849 537.398 484.985 537.799 485.122 538.199C485.194 538.35 485.251 538.509 485.293 538.672L485.839 540.274L485.835 540.748C486.006 541.258 486.141 541.804 486.311 542.35L486.308 542.752C486.512 543.407 486.716 544.135 486.885 544.864L487.055 545.447C487.258 546.175 487.462 546.976 487.665 547.778C488.375 550.655 489.222 553.933 490.137 557.43C494.137 572.617 499.781 591.988 504.884 601.105C505.401 602.05 505.883 602.994 506.33 604.013L506.638 604.74C507.05 605.685 507.462 606.667 507.804 607.65C508.145 608.706 508.485 609.798 508.791 610.89C508.789 611.073 508.788 611.255 508.786 611.474C509.057 612.531 509.327 613.623 509.563 614.68C510.959 621.481 511.311 628.488 510.608 635.443C510.3 639.138 509.293 642.745 507.644 646.056C507.644 646.056 526.552 626.246 535.461 616.602L536.415 615.571L536.698 615.24L537.37 614.504L537.688 614.172L538.184 613.584L538.467 613.253L538.856 612.775C538.947 612.698 539.03 612.612 539.103 612.517L539.387 612.149L539.67 611.782C539.762 611.624 539.823 611.45 539.85 611.269C539.874 611.014 539.876 610.757 539.857 610.502L539.869 609.115C539.872 608.713 539.876 608.312 539.88 607.837C539.884 607.399 539.888 606.888 539.893 606.377L539.894 606.158C539.899 605.647 539.903 605.135 539.908 604.588L539.91 604.332C539.915 603.785 539.745 603.239 539.68 602.655C539.685 602.034 539.516 601.415 539.416 600.796C538.355 593.978 536.808 586.654 536.808 586.654C536.808 586.654 526.113 564.116 524.711 552.301C523.308 540.485 511.003 517.962 507.162 512.593C503.322 507.225 494.409 489.27 505.69 496.763C516.971 504.255 535.694 533.73 540.3 543.582C540.276 546.393 544.347 553.403 548.734 560.336C553.658 569.893 558.788 579.959 560.121 583.744C561.454 587.529 563.339 592.221 564.642 595.386L564.848 595.858L564.845 596.187L565.051 596.66L565.049 596.915L565.289 597.534L565.286 597.826L565.284 598.045L565.282 598.337L565.278 598.738C567.958 595.942 570.334 592.847 572.363 589.512C574.229 586.603 575.805 583.506 577.066 580.27C581.436 569.06 590.125 552.554 586.328 546.236C586.208 545.983 586.07 545.74 585.914 545.51L585.915 545.327L585.536 544.674L585.538 544.382L585.124 543.692L585.126 543.473L584.609 542.528C584.195 541.875 583.781 541.148 583.332 540.349L583.022 539.804C582.772 539.431 582.541 539.043 582.332 538.642C576.258 528.329 566.664 512.206 561.598 506.775C554.658 499.536 523.584 472.764 520.971 471.181C518.359 469.598 518.141 462.445 529.67 469.57C540.01 475.832 549.302 483.783 557.2 493.125C565.59 502.797 576.871 510.289 579.858 517.089C581.609 521.315 583.034 525.685 584.122 530.157L584.391 531.359C584.391 531.359 592.03 510.737 591.068 500.67C591.075 499.794 591.083 498.918 591.091 498.005L591.096 497.385C591.106 496.253 591.116 495.158 591.126 493.989C591.145 491.799 591.165 489.499 591.186 487.089C591.207 486.736 591.21 486.383 591.196 486.03L591.197 485.811C591.183 485.52 591.185 485.227 591.205 484.935L591.208 484.643L591.215 483.803L591.218 483.475C591.237 483.195 591.239 482.914 591.225 482.635C591.225 482.635 591.227 482.416 591.228 482.27C591.23 482.124 591.233 481.759 591.235 481.467C591.253 481.345 591.254 481.222 591.239 481.102C591.241 480.846 591.243 480.554 591.246 480.262C591.23 480.153 591.231 480.042 591.249 479.933C591.252 479.605 591.079 479.314 591.012 479.023C591 478.926 591.001 478.828 591.014 478.731C591.018 478.329 590.776 477.93 590.639 477.529C590.643 477.128 590.367 476.692 590.195 476.292L590.196 476.109L589.785 475.054L589.614 474.691L589.236 473.818C589.143 473.681 589.062 473.535 588.995 473.382L588.581 472.583L588.305 472.111L587.892 471.348L587.581 470.803C587.583 470.584 587.27 470.331 587.097 470.077L586.752 469.533L586.233 468.771L585.818 468.227L585.229 467.502C585.101 467.312 584.962 467.13 584.813 466.958C584.613 466.676 584.393 466.409 584.155 466.161L583.739 465.653L582.942 464.748L582.525 464.314L581.241 463.011C580.685 462.468 580.13 461.926 579.539 461.42L579.018 460.95L577.662 459.83L577.14 459.397L575.401 458.062C574.74 457.557 574.043 457.088 573.347 456.62L573.069 456.404L571.223 455.215L570.875 454.999C568.855 453.74 566.799 452.59 564.708 451.404L562.511 450.292L562.093 450.077L560.245 449.217L559.859 449.221L555.464 447.252L555.149 447.255L553.335 446.468L552.914 446.472L550.925 445.687C542.933 442.546 536.193 440.416 533.476 438.761C527.519 435.163 536.561 426.284 540.593 425.737C545.061 426.556 549.347 428.172 553.264 430.515L556.157 432.023L557.447 432.705L557.761 432.885L558.876 433.495L559.259 433.711L560.304 434.322L560.688 434.538L561.733 435.149L562.116 435.364L563.162 435.976L563.51 436.192L564.764 436.947L566.088 437.775L566.263 437.773L567.377 438.493L567.725 438.746L568.561 439.286L569.013 439.61L569.744 440.078L570.162 440.403L570.823 440.872L571.241 441.16L571.867 441.629L572.25 441.918L572.841 442.424L573.154 442.64L573.953 443.363L575.448 444.627L580.315 448.672L582.541 450.441C588.453 455.134 593.951 459.21 593.951 459.21C593.951 459.21 589.224 451.111 583.888 440.536L582.408 437.592C581.41 435.593 580.413 433.521 579.45 431.412C578.488 429.304 577.491 427.195 576.564 425.05C569.149 408.031 565.8 398.497 561.42 394.776L560.308 393.8C566.564 387.173 575.224 378.042 580.422 372.3L581.376 371.233L581.659 370.938L582.331 370.166L582.614 369.834L583.145 369.246L583.428 368.915L583.817 368.473L584.064 368.215C584.17 368.089 584.265 367.954 584.348 367.811L584.631 367.444C584.702 367.264 584.762 367.081 584.811 366.894C584.834 366.627 584.836 366.358 584.818 366.091L584.83 364.74C584.833 364.339 584.837 363.901 584.841 363.462C584.845 362.988 584.85 362.477 584.854 361.966C584.859 361.454 584.863 360.907 584.868 360.396L584.889 357.95C584.894 357.402 584.724 356.819 584.659 356.236C584.664 355.652 584.494 355.033 584.395 354.413C583.334 347.596 581.787 340.272 581.787 340.272C581.787 340.272 571.092 317.734 569.69 305.918C568.287 294.103 555.981 271.616 552.141 266.211C548.301 260.806 539.388 242.888 550.668 250.38C561.949 257.872 580.672 287.384 585.279 297.236C585.255 300.011 589.326 307.02 593.713 313.953C598.637 323.547 603.767 333.577 605.1 337.361C606.433 341.146 608.317 345.875 609.621 349.003L609.619 349.185L609.825 349.658L609.822 349.987L609.994 350.423L609.991 350.679L610.231 351.297L610.228 351.626L610.227 351.808L610.224 352.137L610.221 352.502C612.962 349.728 615.397 346.645 617.48 343.311C619.332 340.393 620.907 337.297 622.183 334.069C626.553 322.859 635.242 306.353 631.445 299.998C631.292 299.779 631.153 299.549 631.031 299.308L631.033 299.126L630.653 298.472L630.446 298.146L630.067 297.455L630.069 297.236L629.516 296.329C629.137 295.638 628.723 294.912 628.24 294.15L627.929 293.605L627.239 292.443C621.166 282.093 611.571 266.007 606.505 260.576C599.565 253.337 568.491 226.564 565.914 224.944C563.336 223.325 563.083 216.245 574.577 223.37C584.94 229.598 594.247 237.539 602.142 246.889C610.533 256.561 621.814 264.053 624.766 270.89C626.559 275.098 627.985 279.471 629.029 283.957C629.14 284.34 629.23 284.729 629.299 285.123C629.299 285.123 636.938 264.501 635.975 254.471C635.983 253.595 635.99 252.718 635.998 251.806L636.004 251.149C636.014 250.053 636.023 248.921 636.034 247.753C636.053 245.563 636.073 243.263 636.093 240.889C636.096 240.561 636.1 240.196 636.102 239.867L636.104 239.648L636.112 238.735L636.115 238.443L636.122 237.604L636.127 237.019C636.129 236.764 636.132 236.472 636.134 236.216C636.152 236.095 636.153 235.972 636.137 235.851C636.156 235.584 636.159 235.315 636.144 235.048C636.165 234.927 636.166 234.804 636.148 234.683C636.15 234.391 636.153 234.099 636.155 233.843L636.158 233.478L635.956 232.567L635.959 232.275C635.962 231.91 635.755 231.51 635.618 231.11C635.622 230.708 635.31 230.31 635.174 229.873L634.763 228.818C634.692 228.692 634.634 228.558 634.591 228.418L634.178 227.582L633.972 227.109L633.559 226.346C633.48 226.169 633.388 225.999 633.283 225.838L632.87 225.075L632.524 224.567L632.075 223.804C631.957 223.628 631.83 223.458 631.694 223.296C631.545 223.025 631.372 222.77 631.176 222.534L630.795 221.99L630.207 221.229L629.791 220.685C629.583 220.431 629.34 220.178 629.133 219.888L628.717 219.38L627.919 218.511L627.503 218.077L626.219 216.738L624.482 215.147L623.96 214.677L622.639 213.557L622.083 213.124L620.378 211.825L618.325 210.383L618.046 210.203L616.201 209.015L615.852 208.799C613.832 207.54 611.741 206.354 609.65 205.204L607.488 204.128L607.07 203.913L605.222 203.017L604.838 202.838C603.373 202.17 601.908 201.526 600.443 200.906L600.127 200.909L598.278 200.159L597.894 199.98L595.905 199.194C587.913 196.017 581.173 193.887 578.456 192.268C575.199 188.282 584.24 179.476 588.166 179.039ZM226.722 119.926C226.728 120.011 226.727 120.096 226.72 120.181L226.718 120.364L226.263 120.368L226.722 119.926ZM223.943 117.395L223.962 115.204C224.091 115.476 224.205 115.756 224.305 116.041L223.943 117.395ZM242.429 503.065L241.802 502.669L241.349 502.381L240.827 502.057L239.853 501.335L239.54 501.119C236.856 499.122 234.388 496.832 232.175 494.286L231.863 493.923C231.308 493.271 230.719 492.583 230.165 491.858L229.681 491.205C229.161 490.516 228.677 489.827 228.193 489.101L227.606 488.193L226.259 486.015L225.638 484.889C225.26 484.126 224.846 483.363 224.468 482.563L223.849 481.254C223.506 480.454 223.163 479.618 222.855 478.744C222.548 477.871 222.444 477.762 222.273 477.289C222.102 476.816 221.693 475.469 221.421 474.522C221.15 473.576 221.08 473.503 220.945 472.957C220.81 472.41 220.473 470.844 220.237 469.751C220.242 469.24 220.001 468.767 219.935 468.257C219.634 466.653 219.404 464.939 219.244 463.188C217.646 445.68 222.796 433.404 227.497 428.397L228.169 427.697C228.561 427.351 228.973 427.03 229.403 426.737L229.966 426.44C230.186 426.299 230.422 426.186 230.669 426.105L231.159 426.101L231.79 426.095L232.21 426.091C232.403 426.14 232.591 426.212 232.768 426.305L233.116 426.558C233.293 426.726 233.445 426.922 233.566 427.138L233.774 427.465C233.989 427.898 234.139 428.364 234.217 428.848C234.305 429.378 234.359 429.914 234.378 430.453L234.374 430.891C234.37 431.329 234.367 431.767 234.363 432.205C234.382 432.301 234.381 432.401 234.36 432.497C233.785 438.234 230.333 444.507 229.751 455.026C229.74 456.304 229.728 457.655 229.716 459.079L229.714 459.334C229.704 460.466 229.693 461.671 229.927 462.983C229.908 463.202 229.906 463.422 229.921 463.64C229.911 464.772 230.181 465.974 230.344 467.287C230.342 467.579 230.339 467.908 230.336 468.236C230.58 469.767 230.881 471.371 231.24 473.047L232.081 476.946L232.386 478.184C232.587 479.168 232.789 480.079 233.027 480.953C233.264 481.827 233.262 482.083 233.397 482.629L233.905 484.669L234.311 486.235C234.308 486.673 234.549 487.072 234.651 487.51C234.752 487.947 235.161 489.257 235.398 490.095C235.396 490.387 235.568 490.677 235.671 490.932L236.183 492.497C236.173 492.655 236.171 492.814 236.179 492.972C236.521 493.918 236.863 494.828 237.24 495.7C237.233 495.798 237.232 495.895 237.238 495.992L237.856 497.374C238.29 498.24 238.773 499.077 239.305 499.88C240.087 501.07 240.981 502.175 241.973 503.178L242.429 503.065ZM429.152 599.411C429.149 599.739 428.901 600.034 428.758 600.363L428.757 600.582C428.635 600.828 428.492 601.061 428.33 601.28L428.329 601.463C425.03 604.854 421.934 608.455 419.06 612.242C418.633 612.939 418.207 613.673 417.815 614.443C417.447 615.097 417.114 615.77 416.817 616.46L416.814 616.789C416.528 617.448 416.241 618.181 415.955 618.877L415.74 619.463C415.417 620.379 415.093 621.368 414.769 622.393C414.444 623.418 414.299 624.04 414.047 624.808L413.83 625.577C413.65 626.163 413.505 626.748 413.325 627.297C413.145 627.847 413.144 627.993 413.036 628.359L412.71 629.603C412.706 629.968 412.528 630.298 412.456 630.591L412.238 631.432C412.234 631.98 411.984 632.53 411.874 633.078L411.869 633.626L411.65 634.65C411.666 634.759 411.665 634.87 411.647 634.979C411.642 635.599 411.461 636.222 411.386 636.806L411.384 637.025C411.364 637.342 411.361 637.659 411.376 637.975C411.335 638.595 411.329 639.217 411.36 639.837C411.415 640.739 411.56 641.63 411.792 642.498L411.585 642.098L411.588 641.806C411.544 641.678 411.487 641.556 411.416 641.443L411.107 640.715L411.109 640.496C410.27 638.526 409.642 636.463 409.236 634.343C409.217 634.247 409.218 634.148 409.239 634.051L408.938 632.375C408.957 632.192 408.959 632.009 408.943 631.827C408.948 631.316 408.952 630.768 408.957 630.221C408.962 629.673 408.961 629.746 408.963 629.527C408.965 629.308 408.973 628.432 408.978 627.884L408.985 627.081C408.989 626.533 408.994 625.985 408.999 625.401C409.004 624.817 409.004 624.817 409.007 624.489C409.048 623.924 409.123 623.363 409.232 622.807L409.241 621.785C409.246 621.201 409.496 620.615 409.606 620.029C409.67 619.683 409.755 619.341 409.86 619.005C410.021 618.337 410.214 617.677 410.438 617.029C410.513 616.717 410.609 616.411 410.726 616.113C411.053 615.091 411.436 614.088 411.873 613.109C416.269 602.994 422.756 597.971 426.794 596.767L427.354 596.762L428.3 596.753L428.685 596.75L429.175 596.746L429.455 596.743L429.839 596.922L430.048 597.103L430.255 597.393C430.274 597.477 430.273 597.564 430.253 597.649C430.271 597.806 430.27 597.966 430.249 598.123L430.247 598.379C429.975 598.817 429.597 599.174 429.152 599.411ZM470.09 322.472C469.065 323.613 464.076 329.389 458.586 336.557L458.374 336.814L455.858 340.123L455.539 340.564C454.76 341.593 454.015 342.658 453.235 343.724L452.845 344.311C452.03 345.414 451.25 346.552 450.469 347.691L450.008 348.425C449.618 348.976 449.263 349.527 448.907 350.115C447.051 350.131 445.055 350.149 442.986 350.46C446.679 339.956 451.256 329.799 456.663 320.11C457.125 319.339 457.657 318.604 458.189 317.833C458.704 317.113 459.26 316.425 459.853 315.774L459.854 315.591C460.456 314.892 461.057 314.229 461.693 313.603L461.87 313.419C462.506 312.756 463.177 312.13 463.847 311.503L466 309.658C468.221 307.881 470.578 306.297 473.045 304.923C478.288 302.028 482.953 301.183 484.86 303.356C489.197 308.027 471.683 320.559 469.95 322.473L470.09 322.472ZM455.426 397.733L455.219 397.334C455.246 397.469 455.28 397.603 455.321 397.734L455.426 397.733ZM454.308 397.415L454.553 397.413L454.763 397.411L455.043 397.408L455.253 397.406C455.597 398.57 456.057 399.692 456.625 400.753L456.622 401.081L456.967 401.662C454.561 400.642 452.231 399.443 449.995 398.074L454.308 397.415ZM428.183 232.932L429.203 232.376C429.203 232.376 429.203 232.376 429.413 232.374L430.187 231.965L430.433 231.963L431.276 231.627L432.857 230.992L433.42 230.768L434.755 230.209L435.388 229.911L436.97 229.24L437.498 228.979L439.818 227.936C442.736 226.596 445.971 225.107 449.276 223.653L454.548 221.452L455.11 221.228L456.199 220.817L457.288 220.406L458.237 220.068L459.431 219.656L460.274 219.393L461.608 218.98L462.275 218.755L464.241 218.226L465.785 217.847L466.1 217.844L467.644 217.502L467.96 217.499L469.503 217.193L471.117 216.85L471.572 216.846L473.081 216.54L473.571 216.536L474.869 216.269L475.254 216.265L476.728 215.997L477.288 215.992L478.691 215.723L479.216 215.719L480.304 215.526L480.794 215.522L482.022 215.292L482.617 215.287L483.809 215.093L484.23 215.09L485.14 215.082L485.56 215.078L486.613 214.886L486.963 214.883L487.978 214.874L488.994 214.864L489.87 214.857L490.535 214.851C483.801 220.095 476.217 226.296 468.064 233.597C458.201 236.241 447.882 238.816 439.245 241.412L436.296 242.315L433.556 243.216L430.957 244.115C430.36 244.303 429.833 244.527 429.27 244.751C428.74 241.324 428.174 238.007 427.429 235.02L427.922 234.687L428.183 232.932ZM280.467 161.244C299.717 161.131 318.806 164.226 337.013 170.411C356.149 176.628 377.68 177.348 387.04 184.273C392.542 188.397 397.702 192.99 402.468 198.007C401.286 201.011 400.243 204.197 399.34 207.344C383.447 198.652 363.298 188.1 353.621 185.412C338.599 181.276 274.639 170.897 269.631 170.942C264.623 170.987 259 161.253 280.535 161.389L280.467 161.244ZM254.772 296.547C257.164 287.29 260.783 285.98 268.331 291.789L268.679 292.078C269.201 292.475 269.723 292.872 270.244 293.342L270.835 293.848L272.781 295.583L273.371 296.125L275.247 297.897L275.733 298.367L278.163 300.755L278.788 301.406C279.656 302.275 280.559 303.179 281.461 304.157C284.688 307.487 288.401 311.396 292.36 315.267L295.137 318.053C297.986 326.034 300.633 334.285 303.08 342.806L301.377 341.397L297.689 338.619L291.427 333.82C288.505 331.62 285.86 329.745 283.702 328.268C281.543 326.79 280.22 325.926 279.035 325.316C270.321 320.612 251.396 310.267 254.841 296.729L254.772 296.547ZM307.877 467.359C307.046 466.198 306.146 465.038 305.247 463.732C301.267 458.328 297.011 452.379 293.595 446.642L292.559 444.862C291.09 442.314 289.779 439.668 288.636 436.939C288.362 436.26 288.053 435.533 287.71 434.757L287.366 433.994C287.125 433.521 286.92 433.012 286.644 432.503C286.368 431.995 286.335 431.849 286.162 431.522L285.474 430.177C285.302 429.814 285.095 429.451 284.888 429.087C284.681 428.724 284.44 428.215 284.199 427.779L283.579 426.617L282.855 425.309L282.165 424.11L281.44 422.839L280.751 421.604C280.474 421.169 280.233 420.733 279.992 420.297L279.232 419.026C275.867 413.658 272.862 408.05 270.239 402.24C267.193 394.09 268.701 377.868 281.265 390.825C290.045 399.909 307.581 425.014 318.397 441.601C318.394 442.002 318.39 442.404 318.387 442.806C314.918 450.978 311.415 459.186 307.945 467.541L307.877 467.359ZM328.002 464.587L329.61 460.922L330.23 462.121L328.002 464.587ZM346.18 388.016L344.66 385.62L344.349 385.112L341.86 381.484C341.341 380.722 340.823 379.923 340.234 379.162L339.784 378.545L338.33 376.66C338.331 376.477 338.018 376.298 337.879 376.08C334.829 372.457 331.153 368.364 327.126 364.348C325.645 357.425 324.059 350.613 322.33 344.021C329.967 351.176 338.208 357.601 346.957 363.221C348.42 364.048 349.813 365.021 351.205 365.994L352.214 366.715C353.536 367.689 354.823 368.7 356.039 369.784L356.56 370.291C353.008 376.054 349.56 381.962 346.283 388.198L346.18 388.016ZM371.422 404.802C368.756 410.343 368.128 416.679 369.656 422.596L373.17 421.214L369.291 424.352C365.837 418.797 361.52 411.936 357.063 404.93C361.015 397.594 364.999 390.512 369.05 383.686C372.037 387.673 374.761 391.869 377.205 396.244C375.062 399.014 373.105 401.935 371.351 404.985L371.422 404.802ZM386.768 323.693C382.851 319.092 379.835 315.651 379.835 315.651C379.835 315.651 347.563 293.781 336.522 278.803C325.482 263.824 291.062 243.251 281.538 239.138C280.491 238.673 279.201 238.064 277.842 237.31C273.977 230.7 270.156 224.492 266.378 218.685L267.218 218.677C288.713 219.507 337.525 244.186 351.624 253.77C353.903 257.4 364.844 263.764 376.279 269.612C386.031 275.767 396.061 282.139 402.954 286.823C402.948 287.444 402.943 288.028 402.938 288.648C402.881 289.39 402.874 290.134 402.919 290.875C402.912 291.606 403.046 292.371 403.319 293.172C403.312 293.975 403.69 294.775 403.893 295.576C404.096 296.377 404.369 297.178 404.607 298.016L404.606 298.198L404.812 298.671C398.928 306.755 392.89 315.157 386.697 323.876L386.768 323.693ZM403.726 346.796C403.726 346.796 403.452 346.068 403.246 345.632L403.248 345.413C403.016 344.922 402.751 344.448 402.455 343.996L402.457 343.777C402.129 343.189 401.772 342.619 401.386 342.071C400.971 341.454 400.522 340.801 400.037 340.148L399.864 339.894L398.722 338.335C403.828 331.134 408.907 324.261 413.961 317.718C415.339 320.225 416.306 321.786 416.306 321.786L416.661 321.308L417.157 320.61L418.007 319.471L419.177 317.89C419.602 317.302 420.064 316.605 420.595 315.906L424.636 310.321L425.38 309.329C425.877 308.594 426.443 307.859 427.011 307.087L427.401 306.536L427.649 306.205L427.927 306.385L428.762 307.035L429.18 307.323L429.423 307.54L429.876 307.828L430.397 308.225C431.177 305.447 431.798 302.625 432.257 299.776L437.291 292.831C451.469 273.246 462.2 267.491 472.249 263.751C482.297 260.01 499.689 253.429 498.975 262.927C498.262 272.425 488.376 273.645 471.044 281.43C453.711 289.216 437.735 302.063 433.125 308.639C428.515 315.215 429.543 317.834 424.742 326.31C419.94 334.786 419.561 338.038 421.996 344.004C422.819 346.004 424.158 349.095 425.739 352.44L426.393 353.821C425.877 354.028 425.372 354.264 424.881 354.528C415.52 359.686 404.157 365.666 410.762 367.213C417.367 368.76 430.075 369.23 434.15 371.786L440.037 375.383L440.21 375.601L442.544 377.04C442.536 377.953 442.703 378.901 442.835 379.776C442.968 380.651 443.069 381.051 443.169 381.671C439.305 382.983 435.371 384.406 431.188 386.159C428.473 384.249 426.107 382.554 424.433 381.729C417.463 377.849 405.034 373.47 397.052 377.192C398.758 370.35 400.391 363.838 401.59 358.899L401.592 358.607C401.774 357.838 401.956 357.07 402.102 356.375C402.12 356.156 402.122 355.936 402.108 355.718C402.112 355.17 402.397 354.62 402.507 354.108L402.513 353.414C402.517 352.976 402.52 352.575 402.769 352.171C402.787 351.94 402.789 351.708 402.775 351.477C402.778 351.149 402.781 350.82 402.993 350.526L402.998 349.978C403.001 349.686 403.003 349.431 403.005 349.212C403.007 348.993 403.007 348.956 403.008 348.847C403.034 348.616 403.036 348.383 403.014 348.153C403.305 347.813 403.524 347.412 403.655 346.979L403.726 346.796ZM458.66 428.443C450.436 431.766 416.943 429.437 408.344 427.579C404.557 426.875 400.723 426.446 396.869 426.295C404.024 421.235 411.442 416.598 419.088 412.406C431.091 413.6 442.945 415.937 454.501 419.39C458.443 421.143 466.885 424.901 458.66 428.443ZM501.273 360.853L500.16 359.913C500.06 357.296 500.153 354.672 500.439 352.062C501.257 346.579 506.968 338.204 509.777 349.387C511.369 357.17 512.47 365.062 513.073 373.013C512.311 372.071 511.514 371.129 510.681 370.187L508.877 368.232C506.591 365.441 504.091 362.945 501.379 360.669L501.273 360.853ZM516.529 426.427L516.522 427.231L516.524 426.975C516.526 426.792 516.353 426.502 516.216 426.211L516.218 425.919C516.218 425.919 516.221 425.664 516.222 425.517L516.224 425.298C516.215 425.116 516.217 424.933 516.229 424.751C516.23 424.568 516.232 424.386 516.233 424.24L518.164 423.711C517.915 424.759 517.73 425.822 517.611 426.892L516.529 426.427ZM517.341 425.69L518.121 424.588C518.119 424.77 518.118 424.953 518.116 425.135L517.341 425.69ZM518.019 428.276L518.231 428.055C518.244 428.115 518.243 428.177 518.229 428.237L518.019 428.276ZM553.29 355.276C553.807 356.22 554.289 357.202 554.735 358.183L555.044 358.911C555.456 359.88 555.833 360.863 556.174 361.857C556.55 362.949 556.891 364.041 557.161 365.134L557.332 365.68C557.602 366.773 557.873 367.829 558.074 368.923C559.321 375.056 559.749 381.354 559.346 387.639C556.747 384.559 554.815 381.182 555.609 378.436C556.946 373.788 559.227 365.225 554.285 365.671L553.164 365.681L552.779 365.685L551.831 365.912L551.341 365.917L550.323 366.254L549.831 366.441L548.636 366.853L548.181 366.857L546.811 367.417L546.46 367.42L545.37 367.941L545.385 366.262L545.39 365.714L545.205 362.832C545.21 362.248 545.215 361.664 545.22 361.043C545.205 360.873 545.206 360.702 545.225 360.532C545.229 360.057 545.233 359.546 544.993 359.037C545.011 358.892 545.012 358.744 544.996 358.599C542.929 348.097 539.899 337.844 535.949 327.978C535.607 326.996 535.23 326.05 534.853 325.141C534.202 323.467 533.55 321.903 532.968 320.448C532.041 318.303 531.217 316.412 530.495 314.885C529.773 313.358 529.29 312.45 528.876 311.76C525.632 306.24 518.522 294.403 524.495 288.143C528.559 283.835 530.901 284.435 533.199 289.963L533.196 290.255C533.371 290.644 533.52 291.045 533.641 291.456C533.719 291.604 533.776 291.764 533.812 291.929C533.808 292.404 534.153 292.948 534.323 293.494L534.494 294.004C534.49 294.515 534.8 295.023 534.971 295.57L534.967 296.008C535.171 296.663 535.34 297.355 535.544 298.12L535.714 298.666C535.707 299.433 536.086 300.196 536.324 301.033C537.034 303.911 537.881 307.189 538.796 310.685C542.649 326.641 548.258 346.048 553.395 355.275L553.29 355.276ZM561.713 180.663L562.493 179.525C562.472 179.719 562.47 179.915 562.488 180.109L561.713 180.663ZM562.39 183.249L562.602 183.065C562.585 183.125 562.585 183.188 562.601 183.247L562.39 183.249Z" fill="#5EC1CE" fill-opacity="0.15"/>
<path opacity="0.8" d="M588.166 179.039C592.653 179.83 596.955 181.447 600.872 183.817L603.765 185.325L605.09 186.043L605.403 186.222L606.484 186.833L606.867 187.049L607.913 187.624L608.331 187.876L609.341 188.451L609.759 188.702L610.804 189.314L611.153 189.529L612.407 190.285L613.73 191.149L613.905 191.148L615.019 191.868L615.368 192.084L616.203 192.66L616.656 192.948L617.352 193.453L617.805 193.741L618.466 194.246L618.883 194.535L619.51 195.004L619.892 195.292L620.483 195.762L620.796 196.014L621.596 196.701L623.09 198.002C624.62 199.302 626.289 200.674 627.958 202.01L630.184 203.816C636.096 208.508 641.559 212.548 641.559 212.548C641.559 212.548 636.866 204.486 631.531 193.874C631.049 192.929 630.532 191.948 630.051 190.93C629.053 188.931 628.055 186.859 627.093 184.787C626.13 182.715 625.134 180.533 624.207 178.424C616.756 161.369 613.442 151.871 609.062 148.15C604.682 144.429 598.365 138.024 599.701 133.412C601.037 128.801 603.318 120.201 598.341 120.647C597.98 120.619 597.617 120.623 597.256 120.657L596.835 120.661L595.923 120.888L595.433 120.892L594.414 121.194L593.924 121.198L592.73 121.647L592.274 121.651L590.868 122.248L590.553 122.25C584.999 124.71 578.625 128.709 576.452 133C573.782 137.916 575.208 143.014 574.21 149.119C574.134 149.65 574.024 150.176 573.881 150.692C573.877 151.167 573.627 151.644 573.483 152.156C573.467 152.228 573.466 152.303 573.481 152.375C573.332 152.863 573.153 153.34 572.943 153.804L572.94 154.132C572.69 154.719 572.405 155.305 572.119 155.928C571.05 158.019 569.947 160.037 568.879 162.018C566.858 165.528 565.127 169.207 563.705 173.016C563.076 173.729 562.55 174.533 562.144 175.403C561.606 177.001 561.262 178.66 561.12 180.34L560.91 180.342L560.903 181.109L560.906 180.853C560.784 180.595 560.681 180.327 560.597 180.053L560.6 179.761C560.6 179.761 560.602 179.505 560.603 179.359C560.59 179.177 560.592 178.994 560.608 178.812L560.61 178.592L560.405 177.974C560.329 177.737 560.272 177.493 560.237 177.245L560.24 176.88L560.038 175.969C560.038 175.969 560.04 175.75 560.041 175.641C559.873 174.802 559.741 173.854 559.61 172.87C559.626 172.749 559.627 172.626 559.613 172.505L559.623 171.3L559.627 170.899C559.631 170.424 559.635 169.949 559.639 169.475C559.643 169 559.639 169.475 559.641 169.256C559.643 169.037 559.651 168.124 559.656 167.54C559.661 166.955 559.658 167.321 559.659 167.211C559.66 167.102 559.667 166.262 559.671 165.787C559.656 165.605 559.657 165.422 559.676 165.24L559.898 163.923L559.902 163.376C559.908 162.755 560.193 162.132 560.374 161.51C560.771 160.155 561.203 158.801 561.635 157.483C562.967 153.727 563.962 149.856 564.607 145.92L564.603 146.395C564.624 146.298 564.625 146.199 564.606 146.103C564.606 146.103 564.608 145.883 564.609 145.774L564.623 144.131L564.627 143.62C564.632 143.109 564.636 142.634 564.64 142.123C564.645 141.612 564.644 141.721 564.646 141.502L564.448 140.117L564.454 139.423C564.458 138.985 564.251 138.549 564.115 138.076L563.912 137.347C563.765 136.888 563.593 136.439 563.398 136.001C563.322 135.752 563.231 135.509 563.124 135.274C562.918 134.801 562.642 134.329 562.402 133.82C562.161 133.311 562.195 133.383 562.057 133.166C561.919 132.948 561.194 131.786 560.71 131.06C559.256 129.066 557.593 127.036 555.86 125.044C555.27 124.355 554.681 123.704 554.056 123.052C551.627 120.445 549.023 117.95 546.415 115.819L544.433 114.158C543.147 113.111 541.86 112.1 540.607 111.162C537.968 109.136 535.117 107.423 532.107 106.054C531.617 105.836 531.116 105.646 530.606 105.484L530.151 105.488L529.626 105.492L528.962 105.316L528.261 105.322L527.492 105.146L527.282 105.148L526.477 105.156L525.393 104.983L524.937 104.987L524.482 104.991L523.431 105L522.521 105.009L522.031 105.013L520.35 105.028L519.404 105.036L518.318 105.046L517.373 105.055L516.252 105.065L508.617 105.133L507.742 105.141L506.971 105.148L506.095 105.156L505.5 105.161L503.432 105.435L502.239 105.665C496.906 106.808 478.111 105.626 468.751 110.784C459.391 115.942 448.062 121.921 454.632 123.469C461.202 125.016 473.945 125.486 478.021 128.005L499.546 141.356C501.846 142.769 504.054 144.334 506.159 146.042C508.309 147.572 510.147 149.527 511.572 151.798L511.812 152.344C511.913 152.54 511.993 152.747 512.052 152.962C513.181 155.982 513.665 160.76 505.969 159.807C505.689 159.827 505.408 159.829 505.128 159.814C495.302 158.223 475.552 142.009 468.303 138.022C461.054 134.034 447.962 129.369 440.008 133.894C432.054 138.419 419.809 153.205 415.255 161.35C412.589 166.891 411.96 173.227 413.489 179.144C423.785 174.984 434.349 171.62 445.094 169.077L448.216 168.502L451.056 168.148L457.815 168.087L459.111 168.076L459.321 168.074L460.757 168.061L462.333 168.047C474.511 169.218 486.542 171.555 498.272 175.026C502.212 176.998 510.654 180.72 502.43 184.079C494.206 187.438 460.713 185.073 452.08 183.216C443.446 181.358 417.294 180.534 410.533 184.829C407.208 187.981 404.691 191.948 403.218 196.358C401.483 186.517 396.781 163.56 389.76 153.474C388.964 152.386 388.239 151.188 387.515 149.843L386.997 148.972C386.17 147.47 385.343 145.908 384.517 144.285C382.933 141.233 381.28 137.998 379.312 134.803C379.001 134.332 378.725 133.859 378.413 133.424C378.431 133.327 378.432 133.228 378.416 133.132L377.621 131.934C377.532 131.82 377.451 131.699 377.379 131.572L376.583 130.484L376.271 130.085C376.029 129.722 375.752 129.396 375.51 129.069C375.383 128.921 375.268 128.764 375.164 128.598L374.332 127.62L373.95 127.185L373.049 126.171L372.667 125.773L371.66 124.723L371.313 124.398L369.889 123.06C369.403 122.626 368.881 122.156 368.325 121.723L368.116 121.542L366.725 120.46L366.203 120.099L364.984 119.27L364.323 118.838L363.139 118.082L362.407 117.614L361.187 116.968C360.92 116.791 360.641 116.635 360.351 116.501L359.131 115.891L358.224 115.461L356.933 114.852L355.956 114.46L354.561 113.888L353.548 113.495L352.012 112.962L351.034 112.642L349.253 112.11L348.345 111.826L345.515 111.122L342.019 110.35L340.935 110.177L338.173 109.727L337.087 109.737L333.588 109.367L333.238 109.37L329.283 109.113L328.723 109.118L325.221 109.15L324.52 109.156C320.773 109.189 316.955 109.224 313.206 109.513L309.351 109.839L308.58 109.846L305.356 110.167L304.655 110.173C302.096 110.488 299.537 110.804 297.047 111.191L296.487 111.196L293.331 111.699L292.665 111.705L289.159 112.247C275.585 114.632 264.601 117.323 259.628 117.294C248.493 117.211 254.372 97.5913 259.45 93.5667C261.637 91.8313 270.369 90.3658 280.847 89.5052L286.033 89.1668L286.243 89.1649L288.59 89.1439L289.36 89.1369L291.392 89.1187L305.4 88.9932L307.502 88.9744L308.202 88.9681L309.778 88.954L310.619 88.9464L312.02 88.9339L312.86 88.9264L314.156 88.9147L314.962 88.9075L316.187 88.8965L316.923 88.8899L318.182 89.0611L318.777 89.0558L320.456 89.3328L323.498 89.8532L333.396 91.2977L337.908 91.8779C349.767 93.3414 360.51 94.3038 360.51 94.3038C360.51 94.3038 347.72 87.1171 332.118 77.1812L327.8 74.3724C324.875 72.4638 321.881 70.4828 318.922 68.4285C315.964 66.3741 312.935 64.2838 310.012 62.1561C286.558 45.0623 274.566 34.802 265.579 33.3493C256.591 31.8966 242.894 28.4782 241.173 21.0099C239.452 13.5415 235.999 -0.0444128 229.514 4.65C229.026 5.01903 228.555 5.41311 228.103 5.83082C227.923 5.95853 227.757 6.10697 227.609 6.27331L226.479 7.34215L225.913 7.96782C225.524 8.37287 225.136 8.77795 224.746 9.25602C224.54 9.44666 224.351 9.65606 224.181 9.88169L222.836 11.4635C222.681 11.6806 222.516 11.8892 222.34 12.0885L220.852 14.0732L220.498 14.5145C214.615 22.5256 208.813 33.3105 208.885 41.1222C208.806 50.1399 214.849 55.8538 218.131 65.097C218.404 65.8611 218.677 66.6618 218.915 67.4994C219.119 68.2277 219.322 69.0289 219.49 69.8306C219.505 69.9637 219.504 70.0987 219.487 70.2322C219.48 70.9989 219.753 71.7631 219.886 72.6015C219.867 72.7838 219.866 72.9672 219.881 73.1491C220.009 74.1891 220.082 75.2365 220.099 76.2868C220.067 79.9377 220.246 83.5867 220.284 87.237C220.185 93.8056 220.631 100.361 221.619 106.829C221.278 108.315 221.17 109.845 221.299 111.359C221.758 114.013 222.56 116.585 223.684 119.004L223.263 119.007C223.26 119.372 223.642 119.734 223.849 120.097C223.748 119.983 223.631 119.886 223.501 119.808L222.458 119.015L222.075 118.689L221.589 118.256L221.346 118.039L220.685 117.461L220.442 117.207L219.678 116.484L218.845 115.652L218.429 115.217C218.116 114.892 217.769 114.53 217.458 114.131L217.111 113.769C216.137 112.613 215.224 111.403 214.376 110.143C214.264 110.013 214.171 109.866 214.099 109.707C213.719 109.2 213.373 108.692 213.027 108.147C212.9 107.974 212.785 107.792 212.682 107.603L211.543 105.678C211.499 105.573 211.44 105.476 211.37 105.387C210.957 104.625 210.544 103.789 210.166 102.952C210.072 102.803 209.992 102.645 209.925 102.48C209.616 101.826 209.341 101.134 209.067 100.443L208.725 99.5702C208.485 98.9152 208.246 98.2603 208.042 97.605C207.935 97.3196 207.844 97.0278 207.769 96.7312C207.451 95.7788 207.191 94.8058 206.989 93.8177C206.483 91.5954 206.047 89.409 205.61 87.259C204.591 81.0389 203.015 74.9421 200.902 69.048L200.904 68.7559L200.698 68.3197L200.492 67.8469C200.149 67.0469 199.77 66.2472 199.392 65.4839L198.978 64.794C198.62 64.107 198.229 63.4404 197.804 62.7967L197.251 61.962L195.936 60.2214C195.693 59.9316 195.486 59.6414 195.243 59.3881C195 59.1347 194.271 58.338 193.751 57.8316C193.478 57.5355 193.188 57.2577 192.882 56.9998C192.361 56.4934 191.77 56.0241 191.179 55.5548L190.205 54.7968C189.544 54.3282 188.812 53.8966 188.081 53.4286L187.106 52.8168C185.99 52.2062 184.84 51.6324 183.619 51.0957C179.893 49.4789 176.083 48.075 172.204 46.8903L168.187 45.6851C162.773 44.1638 157.216 42.8994 151.831 41.962L147.844 41.3406C145.186 40.9629 142.632 40.6572 140.182 40.4601C134.926 39.9225 129.619 39.9701 124.352 40.602C123.462 40.6266 122.572 40.7077 121.689 40.8449L120.917 41.0343L120.074 41.2608L119.021 41.5624L117.932 41.9372L116.703 42.3133L116.353 42.3165L115.123 42.802L113.472 43.4374L112.804 43.7354L112.136 44.0335L110.554 44.7413L109.253 45.3371L108.514 45.7087L107.74 46.0807L106.404 46.7498L104.821 47.6037L104.114 48.3036L103.305 48.7489L101.721 49.6392L100.384 50.3814L100.067 50.6033C99.6922 50.7916 99.3278 51.0021 98.9757 51.2337L97.6732 52.012L96.3704 52.8268L95.9479 53.0861L94.9618 53.7155L93.6587 54.5669L92.4259 55.3811L91.2281 56.195L90.0304 57.0088L89.0084 57.7481L87.8807 58.5613L87.1051 59.1524C86.1181 59.8913 85.2015 60.5932 84.4252 61.2573L82.9432 62.5483C76.3768 68.5942 49.254 82.6731 40.1246 97.5035C30.9952 112.334 19.356 129.852 29.8906 126.545C40.4253 123.238 58.3729 113.184 66.0418 113.224L106.347 113.484C110.645 113.514 114.934 113.805 119.191 114.354C123.368 114.663 127.435 115.804 131.174 117.715L131.939 118.256L132.739 118.906C136.633 122.12 140.957 128.251 129.495 133.537L128.229 134.096C113.328 140.107 73.3145 134.588 60.0733 135.036C46.832 135.483 25.0088 140.205 17.4376 153.05C9.86635 165.895 4.1028 196.32 4.04285 211.215C3.9829 226.111 15.2338 237.035 15.2338 237.035C26.3734 222.773 38.4876 209.365 51.4788 196.918C52.7848 195.738 54.0905 194.595 55.3952 193.561C56.6061 192.547 57.865 191.597 59.1671 190.716L60.8227 189.606L61.4916 189.198L62.6184 188.495L63.6391 187.901L64.5192 187.382L65.8213 186.641L66.525 186.269L68.1083 185.415L68.6012 185.119L70.4653 184.19L70.7821 184.004L72.8573 182.963L75.143 181.884C96.2423 171.839 125.36 161.94 130.722 161.454C137.731 160.807 152.386 158.887 143.461 170.357C134.536 181.827 85.9936 206.575 72.5413 211.149C59.089 215.724 21.8915 236.573 15.732 248.165C9.57254 259.756 19.6182 308.475 27.6538 314.645L29.1145 315.8L30.7491 317.1L30.9576 317.281L32.8004 318.797L33.0437 319.014L35.06 320.712L35.2685 320.893C36.0105 321.47 36.7406 322.084 37.4587 322.735L44.7929 329.021C52.4394 335.633 59.355 341.741 59.355 341.741C59.355 341.741 60.5744 338.444 62.4726 333.609L64.2633 329.066L64.2658 328.774L65.1245 326.685L65.1283 326.247C65.4505 325.441 65.773 324.598 66.1303 323.792L66.1322 323.573C66.4187 322.84 66.7406 322.071 67.0622 321.338L67.3128 320.715L68.2781 318.443L68.2803 318.187L69.352 315.768L69.6736 315.035C69.9242 314.413 70.2098 313.789 70.4954 313.166C70.6051 312.953 70.7006 312.733 70.7813 312.507C71.1382 311.737 71.4951 310.967 71.8871 310.197C71.9558 310.007 72.0394 309.823 72.137 309.647L72.9931 307.85L73.3144 307.154L74.3125 305.137L74.3141 304.955L75.3473 302.937L75.6672 302.387L76.4855 300.919L76.7345 300.479C77.0548 299.892 77.4098 299.341 77.7294 298.827L77.9424 298.497L78.6878 297.359L78.9711 296.991C79.2902 296.55 79.5738 296.146 79.8569 295.815L81.6268 293.645L82.2292 292.837L83.6463 290.962L84.3197 290.043L85.9855 287.765L86.5525 286.993L88.9633 283.613C91.9772 279.351 95.3454 274.612 98.8887 269.871C100.732 267.372 102.644 264.872 104.556 262.519C104.768 262.261 104.946 262.004 105.158 261.783L106.362 260.276L107.565 258.841L108.627 257.554L109.971 256.009L110.961 254.904C111.456 254.316 111.986 253.764 112.482 253.212L113.294 252.365C114.037 251.555 114.814 250.781 115.591 250.044C116.368 249.307 116.827 248.828 117.463 248.239L117.851 247.87L119.758 246.101L120.146 245.732L122.017 244L122.229 243.815L124.205 242.045L124.77 241.529L126.676 239.833L127.241 239.316L128.899 237.878L129.358 237.509L131.228 235.886L131.934 235.259L133.663 233.783L134.333 233.229L135.709 232.049L136.344 231.496L137.897 230.167L138.672 229.576L140.189 228.285L140.718 227.842L141.882 226.883L142.377 226.44L143.752 225.333L144.175 224.964L145.515 223.893L146.785 222.86L147.879 221.974L149.677 220.534C149.677 220.534 163.826 204.381 170.735 215.271C177.643 226.161 156.929 240.255 135.659 261.802C124.238 274.462 110.11 288.169 98.9388 300.244L95.4047 303.926C94.3089 305.104 93.248 306.282 92.2575 307.422L89.321 310.844L86.631 314.117L84.2221 317.278C83.4774 318.343 82.768 319.372 82.1644 320.326C73.0757 334.499 73.0976 348.043 72.5537 358.197C72.0099 368.35 76.2746 381.272 85.8676 397.577C86.4449 398.573 87.0797 399.53 87.7687 400.444C88.4962 401.35 89.2584 402.293 90.0906 403.234L92.7281 405.985L95.6461 408.697L95.8893 408.914C106.117 417.424 117.136 424.857 128.789 431.107L128.797 430.158C128.8 429.793 128.805 429.318 128.809 428.807L129.074 426.541C129.082 425.628 129.336 424.567 129.487 423.361C129.637 422.155 129.789 420.876 129.976 419.451L129.978 419.195C130.356 416.089 130.808 412.434 131.335 408.231L131.562 406.294L132.126 401.835L132.135 400.777C133.077 393.211 134.171 384.221 135.488 373.768C140.237 335.175 150.82 318.324 161.934 304.827C173.048 291.329 192.339 267.756 198.594 281.353C204.849 294.95 191.803 305.033 173.866 329.982C155.928 354.93 143.19 386.038 141.747 398.902C140.304 411.765 143.712 414.472 143.611 430.061C143.51 445.651 145.36 450.416 153.396 456.55C156.039 458.607 160.355 461.672 165.088 464.988L168.117 467.042L168.883 467.546L170.346 468.518L171.32 469.167L173.41 470.535L174.733 471.4L175.812 472.12L177.693 473.271L178.529 473.812L180.34 474.927L181.107 475.395L182.361 476.114L183.092 476.582L183.72 476.941L183.965 476.939L184.975 477.514L185.428 477.765L186.579 478.376L186.927 478.555L187.172 478.553L187.87 478.875L188.255 478.872L188.744 479.086L189.094 479.083L189.409 479.08L190.421 479.436L194.787 480.821C199.431 482.349 202.712 483.598 202.712 483.598L187.734 450.292C187.734 450.292 181.838 415.7 182.937 394.006C182.95 392.582 183.173 391.12 183.361 389.621C183.361 389.621 183.361 389.621 183.363 389.329C183.376 387.942 183.808 386.514 184.101 385.088C184.119 384.954 184.12 384.819 184.104 384.686C184.397 383.296 184.759 381.869 185.122 380.479L185.125 380.077C185.535 378.638 185.967 377.21 186.423 375.794L186.426 375.502C186.929 374.037 187.467 372.572 188.04 371.144C189.7 366.86 191.728 362.736 194.1 358.823C199.181 350.527 204.935 345.219 209.334 346.822C218.898 350.387 204.089 382.025 203.178 386.085C202.631 388.499 200.108 400.715 197.918 414.972C197.916 415.191 197.914 415.374 197.913 415.556C197.579 417.713 197.244 419.907 196.945 422.173L196.937 423.012L196.147 429.262L196.137 430.394C195.873 432.623 195.644 434.815 195.449 437.008L195.437 438.395C195.418 440.622 195.083 442.852 194.994 445.007C194.767 449.268 195.048 453.533 195.829 457.703C197.508 466.375 200.894 474.56 205.775 481.745C207.019 483.632 208.3 485.373 209.546 487.041C210.792 488.709 212.11 490.194 213.323 491.57C214.537 492.947 215.682 494.178 216.794 495.19C217.303 495.724 217.849 496.219 218.427 496.672L219.018 497.105L220.202 497.934L220.968 498.365L222.084 498.976L222.921 499.333L224.037 499.798C224.322 499.921 224.614 500.028 224.91 500.119L226.028 500.474L226.901 500.721L228.054 501.003L228.928 501.178L230.012 501.351L230.888 501.343L231.938 501.333L232.744 501.326L233.795 501.317L240.799 501.254L241.184 501.25C242.543 502.575 244.049 503.725 245.672 504.678L246.16 504.966L248.355 506.224L249.052 506.583C249.993 507.086 251.005 507.551 252.121 508.052C261.61 511.862 271.75 513.705 281.98 513.479C284.152 513.46 286.253 513.441 288.322 513.131C282.931 528.913 287.482 521.06 282.709 538.261L295.959 548.911C300.695 531.93 299.59 534.094 304.944 518.531C314.875 504.372 325.515 490.762 336.817 477.759C337.68 480.077 338.121 482.548 338.119 485.049L337.698 493.157C343.934 487.972 349.601 482.08 354.591 475.592L356.47 480.942C358.553 487.056 360.43 492.662 360.43 492.662L364.557 489.229L366.885 487.347L367.943 486.498L368.19 486.313L369.459 485.316L370.623 484.429L370.975 484.171L372.174 483.247L373.478 482.25L373.831 481.955L374.853 481.215L375.205 480.957L376.509 480.032L376.791 479.811L377.778 479.108L378.165 478.849L379.328 478.072L380.49 477.332L380.842 477.109L381.687 476.591L381.967 476.588L382.988 475.995L383.198 475.993L383.972 475.621L384.217 475.619L385.061 475.246L386.642 474.648L387.204 474.424L388.54 473.864L389.173 473.567L390.755 472.859L391.282 472.635L393.603 471.556C396.521 470.215 399.756 468.726 403.06 467.309C404.818 466.527 406.575 465.781 408.332 465.108L408.894 464.884L409.983 464.473L411.073 464.061L412.021 463.724L413.215 463.312L414.058 463.012L415.393 462.599L416.095 462.373L418.025 461.882L419.57 461.503L419.885 461.5L421.429 461.157L421.744 461.155L423.288 460.812L424.901 460.506L425.356 460.502L426.9 460.232L427.355 460.228L428.653 459.998L429.038 459.994L430.511 459.725L431.071 459.72L432.474 459.489L433 459.484L434.087 459.292L434.577 459.287L435.805 459.094L436.4 459.088L437.592 458.895L438.048 458.891L438.923 458.883L439.343 458.88L440.394 458.87L440.744 458.867L441.795 458.858L442.776 458.849L443.616 458.841L444.984 458.61C444.984 458.61 457.383 454.374 457.906 462.656C458.429 470.938 443.013 471.806 425.111 476.64C414.299 479.548 402.613 482.427 392.992 485.324L390.043 486.227L387.268 487.128L384.669 488.064L382.244 488.998L380.03 489.93L377.99 490.934C370.967 494.995 365.213 501.104 361.448 508.496C358.109 513.893 356.459 522.34 356.704 534.422C356.648 535.151 356.642 535.883 356.685 536.612C356.678 537.391 356.811 538.157 357.085 538.909C357.078 539.675 357.456 540.475 357.66 541.276C357.863 542.078 358.136 542.915 358.409 543.715L358.407 543.935C361.32 551.947 364.982 559.629 369.343 566.872L369.697 566.358L370.193 565.696L371.009 564.557L372.179 562.94C372.604 562.352 373.1 561.691 373.597 560.956L377.673 555.371L378.382 554.379L380.012 552.137L380.402 551.623C383.202 547.764 386.464 543.208 390.327 537.917C404.505 518.369 415.271 512.614 425.285 508.873C435.298 505.133 452.725 498.515 452.012 508.013C451.299 517.511 441.412 518.768 424.08 526.517C406.748 534.265 390.772 547.149 386.161 553.762C381.551 560.374 382.58 562.92 377.778 571.433C372.976 579.945 372.598 583.125 375.032 589.126C375.855 591.09 377.229 594.181 378.775 597.562L379.772 599.671L380.013 600.216L380.529 601.234L380.839 601.888L381.562 603.305C381.69 603.619 381.839 603.923 382.009 604.214C382.121 604.476 382.248 604.731 382.388 604.977L383.007 606.249L383.317 606.794L383.937 607.993L384.213 608.502C384.21 608.794 384.523 609.047 384.661 609.301L384.937 609.773L385.179 610.173C385.318 610.382 385.445 610.6 385.558 610.826L385.556 611.118L385.97 611.808L385.968 612.027L386.21 612.427L386.383 612.644L386.556 612.935L386.554 613.117L386.552 613.3L387.003 613.807L388.91 616.017C390.956 618.371 392.376 620.111 392.376 620.111L394.364 596.985C398.229 585.803 403.01 574.975 408.654 564.621C409.116 563.887 409.648 563.116 410.215 562.381C410.746 561.682 411.277 560.984 411.879 560.285L412.055 560.101C412.622 559.438 413.223 558.776 413.859 558.113L414.034 558.112C414.67 557.485 415.341 556.822 416.011 556.232L418.199 554.387C420.407 552.579 422.765 550.981 425.244 549.615C430.452 546.757 435.152 545.875 437.024 548.049C441.113 553.05 423.599 565.583 421.866 567.496C420.876 568.674 415.887 574.45 410.362 581.581L410.149 581.876C409.335 582.942 408.485 584.044 407.669 585.183L407.351 585.588L405.011 588.785L404.621 589.336C403.818 590.463 403.037 591.601 402.28 592.752L401.784 593.45C401.003 594.625 400.258 595.8 399.547 596.938C398.143 599.238 397.005 601.699 396.156 604.27C394.457 609.579 393.812 615.175 394.262 620.715C394.249 622.138 394.518 623.523 394.681 624.836C394.845 626.149 395.114 627.388 395.35 628.481C395.585 629.574 395.821 630.703 396.058 631.65C396.294 632.597 396.33 632.561 396.501 632.997C396.672 633.434 396.498 633.289 396.672 633.434C396.796 633.72 396.934 633.999 397.085 634.27L397.326 634.742C397.464 634.98 397.614 635.211 397.776 635.432L398.087 635.903L398.571 636.556L398.918 636.991L399.438 637.571C399.547 637.721 399.675 637.855 399.82 637.969L400.34 638.512L400.757 638.873L401.278 639.343L401.73 639.704L402.252 640.101L402.67 640.426L403.192 640.786L403.575 641.038L404.097 641.399L404.445 641.614L404.933 641.902L405.282 642.082L405.7 642.333L405.98 642.331L406.363 642.51L406.574 642.508L406.854 642.506L407.064 642.504C407.415 643.665 407.874 644.786 408.436 645.85C408.446 645.959 408.445 646.069 408.433 646.178C408.709 646.614 408.95 647.086 409.261 647.558L409.502 647.994L410.712 649.809C414.656 655.004 419.542 659.337 425.099 662.567C430.951 666.165 437.097 668.154 441.311 666.765C443.923 665.84 446.584 665.085 449.28 664.504L450.191 664.496L450.856 664.49C451.179 664.547 451.487 664.668 451.764 664.846C452.6 665.387 453.489 659.757 453.47 653.879C453.456 651.889 453.333 649.904 453.102 647.932C452.873 646.036 452.577 643.885 452.316 641.66C451.793 637.394 451.309 632.725 451.206 628.491C451.21 628.017 451.214 627.578 451.217 627.14C451.186 625.275 451.284 623.407 451.511 621.552C451.515 621.078 451.52 620.566 451.524 620.055C451.529 619.544 451.528 619.69 451.529 619.508C451.531 619.325 451.535 618.851 451.538 618.486L451.539 618.339C451.56 618.011 451.563 617.682 451.548 617.354C451.568 617.098 451.57 616.842 451.555 616.587L451.587 612.936C451.589 612.607 451.592 612.315 451.595 611.987L451.603 611.038C451.606 610.709 451.608 610.417 451.611 610.088L451.62 609.139C451.38 605.106 451.415 601.056 451.725 597.018C452.543 591.571 458.255 583.16 461.099 594.379C464.022 611.131 465.689 628.119 466.083 645.187C465.692 649.937 466.15 661.651 463.485 665.983L460.821 670.278C460.821 670.278 474.636 668.329 482.607 661.905C483.253 661.41 483.856 660.854 484.407 660.246L485.82 658.81L486.067 658.588L487.232 657.519L487.407 657.518L488.607 656.521C489.013 656.178 489.437 655.857 489.876 655.561C492.412 653.568 495.276 652.081 498.319 651.177C498.319 651.177 497.717 635.887 496.965 621.693C496.971 621.072 496.976 620.451 496.981 619.83L496.993 618.516C496.999 617.786 497.006 617.056 497.012 616.326L497.019 615.522C497.027 614.646 497.034 613.806 496.866 613.005L496.87 612.494C496.879 611.472 496.712 610.524 496.65 609.612C496.588 608.7 496.661 608.407 496.666 607.786C496.672 607.166 496.669 607.458 496.67 607.312L496.473 605.817L496.478 605.342C494.413 594.844 491.395 584.591 487.465 574.721L486.334 571.884C485.683 570.21 485.066 568.646 484.448 567.228C483.522 565.046 482.698 563.155 481.976 561.628C481.254 560.101 480.771 559.193 480.357 558.503C477.114 552.983 470.002 541.182 475.976 534.886C480.04 530.615 482.382 531.178 484.679 536.743L484.677 536.998C484.849 537.398 484.985 537.799 485.122 538.199C485.194 538.35 485.251 538.509 485.293 538.672L485.839 540.274L485.835 540.748C486.006 541.258 486.141 541.804 486.311 542.35L486.308 542.752C486.512 543.407 486.716 544.135 486.885 544.864L487.055 545.447C487.258 546.175 487.462 546.976 487.665 547.778C488.375 550.655 489.222 553.933 490.137 557.43C494.137 572.617 499.781 591.988 504.884 601.105C505.401 602.05 505.883 602.994 506.33 604.012L506.638 604.74C507.05 605.685 507.462 606.667 507.804 607.65C508.145 608.706 508.485 609.798 508.791 610.89C508.789 611.073 508.788 611.255 508.786 611.474C509.057 612.531 509.327 613.623 509.563 614.68C510.959 621.481 511.312 628.488 510.608 635.443C510.3 639.138 509.293 642.745 507.644 646.056C507.644 646.056 526.552 626.246 535.461 616.602L536.415 615.571L536.698 615.24L537.37 614.504L537.688 614.172L538.184 613.584L538.467 613.253L538.856 612.775C538.947 612.698 539.03 612.612 539.104 612.517L539.387 612.149L539.67 611.782C539.762 611.624 539.823 611.45 539.85 611.269C539.874 611.014 539.876 610.757 539.857 610.502L539.869 609.115C539.872 608.713 539.876 608.312 539.88 607.837C539.884 607.399 539.888 606.888 539.893 606.377L539.894 606.158C539.899 605.647 539.903 605.135 539.908 604.588L539.91 604.332C539.915 603.785 539.745 603.239 539.68 602.655C539.685 602.034 539.516 601.415 539.416 600.796C538.355 593.978 536.808 586.654 536.808 586.654C536.808 586.654 526.113 564.116 524.711 552.301C523.308 540.485 511.003 517.962 507.162 512.593C503.322 507.225 494.409 489.27 505.69 496.763C516.971 504.255 535.694 533.73 540.3 543.582C540.276 546.393 544.347 553.403 548.734 560.336C553.658 569.893 558.788 579.959 560.121 583.744C561.454 587.529 563.339 592.221 564.642 595.385L564.848 595.858L564.845 596.187L565.051 596.66L565.049 596.915L565.289 597.534L565.286 597.826L565.284 598.045L565.282 598.337L565.278 598.738C567.958 595.942 570.334 592.847 572.363 589.512C574.229 586.603 575.805 583.506 577.066 580.27C581.436 569.06 590.125 552.554 586.328 546.236C586.208 545.983 586.07 545.74 585.914 545.51L585.915 545.327L585.536 544.674L585.539 544.382L585.124 543.692L585.126 543.473L584.609 542.528C584.195 541.875 583.781 541.148 583.332 540.349L583.022 539.804C582.772 539.431 582.541 539.043 582.332 538.642C576.258 528.329 566.664 512.206 561.598 506.775C554.658 499.536 523.584 472.764 520.971 471.181C518.359 469.598 518.141 462.445 529.67 469.57C540.01 475.832 549.302 483.783 557.2 493.125C565.59 502.797 576.871 510.289 579.858 517.089C581.609 521.315 583.034 525.685 584.122 530.157L584.391 531.359C584.391 531.359 592.03 510.737 591.068 500.67C591.075 499.794 591.083 498.918 591.091 498.005L591.096 497.385C591.106 496.253 591.116 495.158 591.126 493.989C591.145 491.799 591.165 489.499 591.186 487.089C591.207 486.736 591.21 486.383 591.196 486.03L591.197 485.811C591.183 485.52 591.185 485.227 591.205 484.935L591.208 484.643L591.215 483.803L591.218 483.475C591.237 483.195 591.239 482.914 591.225 482.635C591.225 482.635 591.227 482.416 591.228 482.27C591.23 482.124 591.233 481.759 591.235 481.467C591.253 481.345 591.254 481.222 591.239 481.101C591.241 480.846 591.243 480.554 591.246 480.262C591.23 480.153 591.231 480.042 591.249 479.933C591.252 479.605 591.079 479.314 591.012 479.023C591 478.926 591.001 478.828 591.014 478.731C591.018 478.329 590.776 477.93 590.639 477.529C590.643 477.128 590.367 476.692 590.195 476.292L590.197 476.109L589.785 475.054L589.614 474.691L589.236 473.818C589.143 473.681 589.062 473.535 588.995 473.382L588.581 472.583L588.305 472.111L587.892 471.348L587.581 470.803C587.583 470.584 587.27 470.331 587.097 470.077L586.752 469.533L586.233 468.771L585.818 468.227L585.229 467.502C585.101 467.312 584.962 467.13 584.813 466.958C584.613 466.676 584.393 466.409 584.155 466.161L583.739 465.653L582.942 464.748L582.525 464.314L581.241 463.011C580.685 462.468 580.13 461.926 579.539 461.42L579.018 460.95L577.662 459.83L577.14 459.397L575.401 458.062C574.74 457.557 574.044 457.088 573.347 456.62L573.069 456.403L571.223 455.215L570.875 454.999C568.855 453.74 566.799 452.59 564.708 451.404L562.511 450.292L562.093 450.077L560.245 449.217L559.859 449.221L555.464 447.252L555.149 447.255L553.335 446.468L552.914 446.472L550.925 445.687C542.933 442.546 536.193 440.416 533.476 438.761C527.519 435.163 536.561 426.284 540.593 425.737C545.061 426.556 549.347 428.172 553.264 430.515L556.157 432.023L557.447 432.705L557.761 432.885L558.876 433.495L559.259 433.711L560.304 434.322L560.688 434.538L561.733 435.149L562.116 435.364L563.162 435.976L563.51 436.192L564.764 436.947L566.088 437.775L566.263 437.773L567.377 438.493L567.725 438.746L568.561 439.286L569.013 439.61L569.744 440.078L570.162 440.403L570.823 440.872L571.241 441.16L571.867 441.629L572.25 441.918L572.841 442.424L573.154 442.64L573.953 443.363L575.448 444.627L580.315 448.672L582.541 450.441C588.454 455.134 593.951 459.21 593.951 459.21C593.951 459.21 589.224 451.111 583.888 440.536L582.408 437.592C581.41 435.593 580.413 433.521 579.45 431.412C578.488 429.304 577.491 427.195 576.564 425.05C569.149 408.031 565.8 398.497 561.42 394.776L560.308 393.8C566.564 387.173 575.224 378.042 580.422 372.3L581.376 371.233L581.659 370.938L582.331 370.166L582.614 369.834L583.145 369.246L583.428 368.915L583.817 368.473L584.064 368.215C584.17 368.089 584.265 367.954 584.348 367.811L584.631 367.443C584.702 367.264 584.762 367.081 584.811 366.894C584.834 366.627 584.836 366.358 584.818 366.091L584.83 364.74C584.833 364.339 584.837 363.901 584.841 363.462C584.845 362.988 584.85 362.477 584.854 361.966C584.859 361.454 584.863 360.907 584.868 360.396L584.889 357.95C584.894 357.402 584.724 356.819 584.659 356.236C584.664 355.652 584.494 355.033 584.395 354.413C583.334 347.596 581.787 340.272 581.787 340.272C581.787 340.272 571.092 317.734 569.69 305.918C568.287 294.103 555.981 271.616 552.141 266.211C548.301 260.806 539.388 242.888 550.669 250.38C561.949 257.872 580.672 287.384 585.279 297.236C585.255 300.011 589.326 307.02 593.713 313.953C598.637 323.547 603.767 333.577 605.1 337.361C606.433 341.146 608.317 345.875 609.621 349.003L609.619 349.185L609.825 349.658L609.822 349.987L609.994 350.423L609.992 350.679L610.231 351.297L610.228 351.626L610.227 351.808L610.224 352.137L610.221 352.502C612.962 349.728 615.397 346.645 617.48 343.31C619.332 340.393 620.907 337.297 622.183 334.069C626.553 322.859 635.242 306.353 631.445 299.998C631.292 299.779 631.153 299.549 631.031 299.308L631.033 299.126L630.653 298.472L630.446 298.145L630.067 297.455L630.069 297.236L629.516 296.328C629.137 295.638 628.723 294.912 628.24 294.15L627.929 293.605L627.239 292.443C621.166 282.093 611.571 266.007 606.505 260.576C599.565 253.337 568.491 226.564 565.914 224.944C563.336 223.325 563.083 216.245 574.577 223.37C584.94 229.598 594.247 237.539 602.142 246.889C610.533 256.561 621.814 264.053 624.766 270.89C626.559 275.098 627.986 279.471 629.029 283.957C629.14 284.34 629.23 284.729 629.299 285.123C629.299 285.123 636.938 264.501 635.975 254.471C635.983 253.595 635.99 252.718 635.998 251.806L636.004 251.149C636.014 250.053 636.023 248.921 636.034 247.753C636.053 245.563 636.073 243.263 636.094 240.889C636.096 240.561 636.1 240.196 636.102 239.867L636.104 239.648L636.112 238.735L636.115 238.443L636.122 237.604L636.127 237.019C636.13 236.764 636.132 236.472 636.134 236.216C636.152 236.095 636.153 235.972 636.137 235.851C636.156 235.584 636.159 235.315 636.144 235.048C636.165 234.927 636.166 234.803 636.148 234.683C636.15 234.391 636.153 234.099 636.155 233.843L636.158 233.478L635.956 232.567L635.959 232.275C635.962 231.91 635.755 231.51 635.619 231.11C635.622 230.708 635.31 230.31 635.174 229.873L634.763 228.818C634.692 228.692 634.634 228.558 634.591 228.418L634.179 227.582L633.972 227.109L633.559 226.346C633.48 226.169 633.388 225.999 633.283 225.837L632.87 225.075L632.524 224.567L632.075 223.804C631.957 223.628 631.83 223.458 631.694 223.296C631.545 223.025 631.372 222.77 631.176 222.534L630.795 221.99L630.207 221.229L629.791 220.685C629.583 220.431 629.34 220.178 629.133 219.888L628.717 219.38L627.919 218.511L627.503 218.077L626.219 216.738L624.482 215.147L623.96 214.677L622.639 213.557L622.083 213.124L620.378 211.825L618.325 210.383L618.046 210.203L616.201 209.015L615.852 208.799C613.832 207.54 611.741 206.354 609.65 205.204L607.488 204.128L607.07 203.913L605.222 203.017L604.838 202.838C603.373 202.17 601.908 201.526 600.443 200.906L600.127 200.909L598.278 200.159L597.894 199.98L595.905 199.194C587.913 196.017 581.173 193.887 578.456 192.268C575.199 188.282 584.24 179.476 588.166 179.039ZM226.722 119.926C226.728 120.01 226.727 120.096 226.72 120.181L226.718 120.364L226.263 120.368L226.722 119.926ZM223.943 117.395L223.962 115.204C224.091 115.476 224.205 115.756 224.305 116.041L223.943 117.395ZM242.429 503.065L241.802 502.669L241.35 502.381L240.827 502.057L239.853 501.335L239.539 501.119C236.856 499.122 234.388 496.832 232.175 494.285L231.863 493.923C231.308 493.271 230.719 492.583 230.165 491.858L229.681 491.205C229.161 490.516 228.677 489.826 228.193 489.101L227.606 488.193L226.259 486.015L225.638 484.889C225.26 484.126 224.846 483.363 224.468 482.563L223.849 481.254C223.506 480.454 223.163 479.618 222.855 478.744C222.548 477.871 222.444 477.762 222.273 477.289C222.102 476.816 221.693 475.469 221.421 474.522C221.15 473.576 221.08 473.503 220.945 472.957C220.81 472.41 220.473 470.844 220.237 469.751C220.242 469.24 220.001 468.767 219.935 468.257C219.634 466.653 219.404 464.939 219.244 463.188C217.646 445.68 222.796 433.404 227.497 428.397L228.169 427.697C228.561 427.351 228.973 427.03 229.403 426.737L229.966 426.44C230.186 426.299 230.422 426.186 230.669 426.105L231.159 426.101L231.79 426.095L232.21 426.091C232.403 426.14 232.591 426.212 232.768 426.305L233.116 426.558C233.293 426.726 233.445 426.922 233.566 427.138L233.774 427.464C233.989 427.898 234.139 428.364 234.217 428.848C234.305 429.378 234.359 429.914 234.378 430.453L234.374 430.891C234.37 431.329 234.367 431.767 234.363 432.205C234.382 432.301 234.381 432.401 234.36 432.497C233.785 438.234 230.333 444.507 229.751 455.026C229.74 456.304 229.728 457.655 229.716 459.079L229.714 459.334C229.704 460.466 229.693 461.671 229.927 462.983C229.908 463.202 229.906 463.422 229.921 463.64C229.911 464.772 230.181 465.974 230.344 467.287C230.342 467.579 230.339 467.908 230.336 468.236C230.58 469.767 230.881 471.371 231.24 473.047L232.081 476.946L232.386 478.184C232.587 479.168 232.789 480.079 233.027 480.953C233.264 481.827 233.262 482.083 233.397 482.629L233.905 484.669L234.311 486.235C234.308 486.673 234.549 487.072 234.651 487.51C234.752 487.947 235.161 489.257 235.398 490.095C235.396 490.387 235.568 490.677 235.671 490.932L236.183 492.497C236.173 492.655 236.171 492.814 236.179 492.972C236.521 493.918 236.863 494.828 237.24 495.7C237.233 495.798 237.232 495.895 237.238 495.992L237.856 497.374C238.29 498.24 238.773 499.077 239.305 499.88C240.087 501.07 240.981 502.175 241.973 503.178L242.429 503.065ZM429.152 599.411C429.149 599.739 428.901 600.034 428.759 600.363L428.757 600.582C428.635 600.828 428.492 601.061 428.33 601.28L428.329 601.463C425.03 604.854 421.934 608.454 419.06 612.242C418.633 612.939 418.207 613.673 417.815 614.444C417.447 615.097 417.114 615.77 416.817 616.46L416.814 616.789C416.528 617.448 416.241 618.181 415.955 618.877L415.74 619.463C415.417 620.379 415.093 621.367 414.769 622.393C414.445 623.418 414.299 624.04 414.047 624.808L413.83 625.577C413.65 626.163 413.505 626.748 413.325 627.297C413.145 627.847 413.144 627.993 413.036 628.359L412.71 629.603C412.706 629.968 412.528 630.298 412.456 630.591L412.238 631.432C412.234 631.98 411.984 632.53 411.874 633.078L411.869 633.626L411.65 634.65C411.666 634.759 411.665 634.87 411.647 634.979C411.642 635.599 411.461 636.222 411.386 636.806L411.384 637.025C411.364 637.342 411.361 637.659 411.376 637.975C411.335 638.595 411.329 639.217 411.36 639.837C411.415 640.738 411.56 641.63 411.792 642.498L411.585 642.098L411.588 641.806C411.544 641.678 411.487 641.556 411.416 641.442L411.107 640.715L411.109 640.496C410.27 638.526 409.642 636.463 409.236 634.343C409.217 634.247 409.218 634.148 409.239 634.051L408.938 632.375C408.957 632.192 408.959 632.009 408.943 631.827C408.948 631.316 408.952 630.768 408.957 630.221C408.962 629.673 408.961 629.746 408.963 629.527C408.965 629.308 408.973 628.432 408.978 627.884L408.985 627.081C408.989 626.533 408.994 625.985 408.999 625.401C409.004 624.817 409.004 624.817 409.007 624.489C409.048 623.924 409.123 623.363 409.232 622.807L409.241 621.785C409.246 621.201 409.496 620.614 409.606 620.029C409.67 619.683 409.755 619.341 409.86 619.005C410.021 618.337 410.214 617.677 410.438 617.029C410.513 616.717 410.609 616.411 410.726 616.113C411.053 615.091 411.436 614.088 411.873 613.109C416.269 602.994 422.756 597.971 426.794 596.767L427.354 596.762L428.3 596.753L428.685 596.75L429.175 596.746L429.455 596.743L429.839 596.922L430.048 597.103L430.255 597.393C430.274 597.477 430.273 597.564 430.253 597.649C430.271 597.806 430.27 597.966 430.249 598.123L430.247 598.379C429.975 598.817 429.597 599.174 429.152 599.411ZM470.09 322.472C469.065 323.613 464.077 329.389 458.586 336.557L458.374 336.814L455.858 340.122L455.539 340.563C454.76 341.593 454.015 342.658 453.235 343.724L452.845 344.311C452.03 345.414 451.25 346.552 450.469 347.691L450.008 348.425C449.618 348.976 449.263 349.527 448.907 350.115C447.051 350.131 445.055 350.149 442.986 350.46C446.679 339.956 451.256 329.799 456.663 320.11C457.125 319.339 457.657 318.604 458.189 317.833C458.704 317.113 459.26 316.425 459.853 315.774L459.855 315.591C460.456 314.892 461.057 314.229 461.693 313.603L461.87 313.419C462.506 312.756 463.177 312.13 463.847 311.503L466 309.658C468.221 307.881 470.578 306.297 473.045 304.922C478.288 302.028 482.953 301.183 484.86 303.356C489.197 308.027 471.683 320.559 469.95 322.473L470.09 322.472ZM455.426 397.733L455.219 397.334C455.246 397.469 455.28 397.603 455.321 397.734L455.426 397.733ZM454.308 397.415L454.553 397.413L454.763 397.411L455.043 397.408L455.253 397.406C455.597 398.57 456.057 399.692 456.625 400.753L456.622 401.081L456.967 401.662C454.561 400.642 452.231 399.443 449.995 398.074L454.308 397.415ZM428.183 232.932L429.203 232.376C429.203 232.376 429.203 232.376 429.413 232.374L430.188 231.965L430.433 231.963L431.276 231.627L432.857 230.992L433.42 230.768L434.755 230.209L435.388 229.911L436.97 229.24L437.498 228.979L439.818 227.936C442.736 226.596 445.971 225.107 449.276 223.653L454.548 221.452L455.11 221.228L456.199 220.817L457.288 220.406L458.237 220.068L459.431 219.656L460.274 219.393L461.608 218.98L462.275 218.755L464.241 218.226L465.785 217.847L466.1 217.844L467.644 217.502L467.96 217.499L469.503 217.193L471.117 216.85L471.572 216.846L473.081 216.54L473.571 216.536L474.869 216.269L475.254 216.265L476.728 215.997L477.288 215.992L478.691 215.723L479.216 215.719L480.304 215.526L480.794 215.522L482.022 215.292L482.617 215.287L483.809 215.093L484.23 215.09L485.14 215.081L485.56 215.078L486.613 214.886L486.963 214.883L487.979 214.874L488.994 214.864L489.87 214.857L490.535 214.851C483.801 220.095 476.217 226.296 468.064 233.597C458.201 236.241 447.882 238.816 439.245 241.412L436.296 242.315L433.556 243.216L430.957 244.115C430.36 244.303 429.833 244.527 429.27 244.751C428.74 241.324 428.174 238.007 427.429 235.02L427.922 234.687L428.183 232.932ZM280.467 161.244C299.717 161.131 318.806 164.226 337.013 170.411C356.149 176.628 377.68 177.348 387.04 184.273C392.542 188.397 397.702 192.99 402.468 198.007C401.287 201.011 400.243 204.197 399.34 207.344C383.447 198.652 363.298 188.1 353.621 185.412C338.599 181.276 274.639 170.897 269.631 170.942C264.623 170.987 259 161.253 280.535 161.389L280.467 161.244ZM254.772 296.547C257.164 287.29 260.783 285.98 268.331 291.789L268.679 292.078C269.201 292.475 269.723 292.872 270.244 293.342L270.835 293.848L272.781 295.583L273.371 296.125L275.247 297.897L275.733 298.367L278.163 300.755L278.788 301.406C279.656 302.275 280.559 303.179 281.461 304.157C284.688 307.487 288.401 311.396 292.36 315.267L295.137 318.053C297.986 326.034 300.633 334.285 303.08 342.806L301.377 341.397L297.689 338.619L291.427 333.82C288.505 331.62 285.86 329.745 283.702 328.268C281.543 326.79 280.22 325.926 279.035 325.316C270.321 320.612 251.396 310.267 254.841 296.729L254.772 296.547ZM307.877 467.359C307.046 466.198 306.146 465.038 305.247 463.732C301.267 458.328 297.011 452.379 293.595 446.642L292.56 444.862C291.09 442.314 289.779 439.668 288.636 436.939C288.362 436.26 288.053 435.533 287.71 434.757L287.366 433.993C287.125 433.521 286.92 433.012 286.644 432.503C286.368 431.995 286.335 431.849 286.162 431.522L285.474 430.177C285.302 429.814 285.095 429.451 284.888 429.087C284.681 428.724 284.44 428.215 284.199 427.779L283.579 426.617L282.855 425.309L282.165 424.11L281.44 422.839L280.751 421.604C280.474 421.168 280.233 420.733 279.992 420.297L279.232 419.026C275.867 413.658 272.862 408.05 270.239 402.24C267.193 394.09 268.701 377.868 281.265 390.825C290.045 399.909 307.581 425.014 318.397 441.601C318.394 442.002 318.39 442.404 318.387 442.806C314.919 450.978 311.415 459.186 307.945 467.541L307.877 467.359ZM328.002 464.587L329.61 460.922L330.23 462.121L328.002 464.587ZM346.18 388.016L344.66 385.62L344.349 385.112L341.86 381.484C341.341 380.722 340.823 379.923 340.234 379.162L339.784 378.545L338.33 376.66C338.331 376.477 338.018 376.298 337.879 376.08C334.829 372.456 331.153 368.364 327.126 364.348C325.645 357.425 324.059 350.613 322.331 344.021C329.967 351.176 338.208 357.601 346.957 363.221C348.42 364.048 349.813 365.021 351.205 365.994L352.214 366.715C353.536 367.689 354.823 368.7 356.039 369.784L356.56 370.29C353.008 376.054 349.56 381.962 346.283 388.198L346.18 388.016ZM371.423 404.802C368.757 410.343 368.128 416.679 369.656 422.596L373.17 421.214L369.291 424.352C365.837 418.797 361.52 411.936 357.063 404.93C361.015 397.594 364.999 390.512 369.05 383.686C372.037 387.673 374.761 391.869 377.205 396.244C375.062 399.014 373.105 401.935 371.351 404.985L371.423 404.802ZM386.768 323.693C382.851 319.092 379.835 315.651 379.835 315.651C379.835 315.651 347.563 293.781 336.522 278.803C325.482 263.824 291.062 243.251 281.538 239.138C280.491 238.673 279.201 238.064 277.842 237.31C273.977 230.7 270.156 224.492 266.378 218.685L267.218 218.677C288.713 219.507 337.525 244.186 351.624 253.77C353.903 257.4 364.844 263.764 376.279 269.612C386.031 275.767 396.061 282.139 402.954 286.823C402.949 287.444 402.943 288.028 402.938 288.648C402.881 289.39 402.874 290.134 402.919 290.875C402.912 291.605 403.046 292.371 403.319 293.172C403.312 293.975 403.69 294.775 403.893 295.576C404.096 296.377 404.369 297.178 404.607 298.015L404.606 298.198L404.812 298.671C398.928 306.755 392.89 315.157 386.697 323.876L386.768 323.693ZM403.726 346.796C403.726 346.796 403.452 346.068 403.246 345.632L403.248 345.413C403.016 344.922 402.751 344.448 402.455 343.996L402.457 343.777C402.129 343.189 401.772 342.619 401.386 342.071C400.971 341.454 400.522 340.801 400.037 340.148L399.864 339.894L398.722 338.335C403.828 331.134 408.907 324.261 413.961 317.718C415.339 320.225 416.306 321.786 416.306 321.786L416.661 321.308L417.157 320.61L418.008 319.471L419.177 317.89C419.602 317.302 420.064 316.605 420.595 315.906L424.636 310.321L425.38 309.329C425.877 308.594 426.443 307.859 427.011 307.087L427.401 306.536L427.649 306.205L427.927 306.385L428.762 307.035L429.18 307.323L429.423 307.54L429.876 307.828L430.397 308.225C431.177 305.447 431.798 302.625 432.257 299.776L437.291 292.831C451.469 273.246 462.2 267.491 472.249 263.751C482.297 260.01 499.689 253.429 498.975 262.927C498.262 272.425 488.376 273.645 471.044 281.43C453.711 289.215 437.735 302.063 433.125 308.639C428.515 315.215 429.543 317.834 424.742 326.31C419.94 334.786 419.561 338.038 421.996 344.004C422.819 346.004 424.158 349.095 425.739 352.44L426.393 353.821C425.877 354.028 425.372 354.264 424.881 354.528C415.52 359.686 404.157 365.666 410.762 367.213C417.367 368.76 430.075 369.23 434.15 371.786L440.037 375.383L440.21 375.601L442.544 377.04C442.536 377.953 442.703 378.901 442.835 379.776C442.968 380.651 443.069 381.051 443.169 381.671C439.305 382.983 435.371 384.406 431.188 386.159C428.473 384.249 426.107 382.554 424.433 381.729C417.463 377.849 405.034 373.47 397.052 377.192C398.758 370.35 400.391 363.838 401.59 358.899L401.592 358.606C401.774 357.838 401.956 357.07 402.102 356.375C402.12 356.156 402.122 355.936 402.108 355.718C402.112 355.17 402.397 354.62 402.507 354.108L402.513 353.414C402.517 352.976 402.52 352.575 402.769 352.171C402.787 351.94 402.789 351.708 402.775 351.477C402.778 351.149 402.781 350.82 402.993 350.526L402.998 349.978C403.001 349.686 403.003 349.431 403.005 349.212C403.007 348.993 403.007 348.956 403.008 348.847C403.034 348.616 403.036 348.383 403.014 348.153C403.305 347.813 403.524 347.412 403.655 346.979L403.726 346.796ZM458.66 428.443C450.436 431.766 416.943 429.437 408.344 427.579C404.557 426.875 400.723 426.446 396.869 426.295C404.024 421.235 411.442 416.598 419.088 412.406C431.091 413.6 442.945 415.937 454.501 419.39C458.443 421.143 466.885 424.901 458.66 428.443ZM501.273 360.853L500.16 359.913C500.06 357.296 500.153 354.671 500.439 352.062C501.257 346.579 506.968 338.204 509.777 349.387C511.369 357.17 512.47 365.062 513.073 373.013C512.311 372.071 511.514 371.129 510.681 370.187L508.878 368.232C506.591 365.441 504.091 362.945 501.379 360.669L501.273 360.853ZM516.529 426.427L516.522 427.231L516.524 426.975C516.526 426.792 516.353 426.502 516.216 426.211L516.218 425.919C516.218 425.919 516.221 425.664 516.222 425.517L516.224 425.298C516.215 425.116 516.217 424.933 516.229 424.751C516.23 424.568 516.232 424.386 516.233 424.24L518.164 423.711C517.915 424.759 517.73 425.822 517.611 426.892L516.529 426.427ZM517.341 425.69L518.121 424.588C518.12 424.77 518.118 424.953 518.116 425.135L517.341 425.69ZM518.019 428.276L518.231 428.055C518.244 428.115 518.243 428.177 518.229 428.237L518.019 428.276ZM553.29 355.276C553.807 356.22 554.289 357.202 554.735 358.183L555.044 358.911C555.456 359.88 555.833 360.863 556.174 361.857C556.55 362.949 556.891 364.041 557.161 365.134L557.332 365.68C557.602 366.773 557.873 367.829 558.074 368.923C559.321 375.056 559.749 381.354 559.346 387.639C556.747 384.559 554.815 381.182 555.609 378.436C556.946 373.788 559.227 365.225 554.285 365.671L553.164 365.681L552.779 365.685L551.831 365.912L551.341 365.916L550.323 366.254L549.831 366.441L548.636 366.853L548.181 366.857L546.811 367.417L546.46 367.42L545.37 367.941L545.385 366.262L545.39 365.714L545.205 362.832C545.21 362.248 545.215 361.664 545.22 361.043C545.205 360.873 545.206 360.702 545.225 360.532C545.229 360.057 545.233 359.546 544.993 359.037C545.011 358.892 545.012 358.744 544.996 358.599C542.929 348.097 539.899 337.844 535.948 327.978C535.607 326.996 535.23 326.05 534.853 325.141C534.202 323.467 533.55 321.903 532.968 320.448C532.041 318.303 531.217 316.412 530.495 314.885C529.773 313.358 529.29 312.45 528.876 311.76C525.632 306.24 518.522 294.403 524.495 288.143C528.56 283.835 530.901 284.435 533.199 289.963L533.196 290.255C533.371 290.644 533.52 291.045 533.641 291.456C533.719 291.604 533.776 291.764 533.812 291.929C533.808 292.404 534.153 292.948 534.323 293.494L534.494 294.004C534.49 294.515 534.8 295.023 534.971 295.57L534.967 296.008C535.171 296.663 535.34 297.355 535.544 298.12L535.714 298.666C535.707 299.433 536.086 300.196 536.324 301.033C537.034 303.911 537.881 307.189 538.796 310.685C542.649 326.641 548.258 346.048 553.395 355.275L553.29 355.276ZM561.713 180.663L562.493 179.525C562.472 179.719 562.47 179.915 562.488 180.109L561.713 180.663ZM562.39 183.249L562.602 183.065C562.585 183.125 562.585 183.188 562.601 183.247L562.39 183.249Z" fill="black" fill-opacity="0.15"/>
</svg>
