<svg width="607" height="636" viewBox="0 0 607 636" fill="none" xmlns="http://www.w3.org/2000/svg">
<path d="M554.67 168.843C558.901 169.588 562.958 171.114 566.652 173.349L569.381 174.77L570.63 175.448L570.926 175.617L571.944 176.193L572.306 176.396L573.292 176.938L573.686 177.176L574.639 177.718L575.033 177.956L576.019 178.532L576.347 178.736L577.53 179.448L578.778 180.263L578.943 180.262L579.994 180.941L580.322 181.145L581.11 181.688L581.537 181.96L582.194 182.436L582.621 182.708L583.244 183.184L583.638 183.456L584.228 183.898L584.589 184.17L585.147 184.613L585.442 184.851L586.196 185.499L587.605 186.725C589.048 187.952 590.622 189.246 592.196 190.506L594.295 192.208C599.87 196.634 605.022 200.443 605.022 200.443C605.022 200.443 600.597 192.84 595.565 182.833C595.111 181.942 594.623 181.016 594.169 180.056C593.228 178.171 592.287 176.217 591.38 174.263C590.472 172.309 589.532 170.252 588.658 168.263C581.632 152.179 578.507 143.222 574.376 139.713C570.246 136.204 564.288 130.164 565.548 125.815C566.808 121.465 568.959 113.356 564.266 113.776C563.925 113.75 563.583 113.753 563.242 113.786L562.846 113.789L561.985 114.003L561.523 114.008L560.562 114.292L560.1 114.296L558.974 114.719L558.544 114.723L557.218 115.286L556.921 115.288C551.683 117.607 545.672 121.379 543.623 125.426C541.105 130.062 542.45 134.869 541.508 140.627C541.437 141.128 541.333 141.623 541.198 142.11C541.194 142.558 540.959 143.008 540.823 143.491C540.808 143.559 540.807 143.629 540.821 143.697C540.681 144.157 540.511 144.607 540.314 145.044L540.311 145.354C540.075 145.907 539.806 146.461 539.537 147.048C538.529 149.02 537.489 150.923 536.482 152.791C534.575 156.101 532.943 159.571 531.602 163.163C531.009 163.835 530.512 164.593 530.13 165.413C529.622 166.921 529.298 168.485 529.164 170.07L528.966 170.072L528.96 170.795L528.962 170.554C528.848 170.31 528.75 170.058 528.671 169.799L528.674 169.523C528.674 169.523 528.676 169.282 528.677 169.145C528.664 168.973 528.666 168.8 528.681 168.628L528.683 168.422L528.49 167.838C528.418 167.615 528.365 167.385 528.331 167.151L528.334 166.807L528.143 165.948C528.143 165.948 528.145 165.741 528.146 165.638C527.988 164.847 527.864 163.953 527.74 163.025C527.755 162.911 527.756 162.795 527.743 162.681L527.753 161.544L527.756 161.166C527.76 160.718 527.764 160.271 527.768 159.823C527.772 159.375 527.768 159.823 527.769 159.616C527.771 159.41 527.779 158.549 527.784 157.998C527.788 157.447 527.785 157.792 527.786 157.688C527.787 157.585 527.794 156.793 527.798 156.346C527.783 156.174 527.785 156.001 527.802 155.829L528.011 154.588L528.016 154.071C528.021 153.486 528.29 152.898 528.461 152.312C528.835 151.034 529.242 149.757 529.65 148.514C530.906 144.972 531.844 141.321 532.453 137.61L532.449 138.057C532.468 137.966 532.469 137.873 532.451 137.782C532.451 137.782 532.453 137.575 532.454 137.472L532.468 135.923L532.472 135.441C532.476 134.959 532.48 134.511 532.484 134.029C532.488 133.547 532.487 133.65 532.489 133.444L532.302 132.137L532.308 131.483C532.312 131.07 532.117 130.659 531.989 130.212L531.797 129.525C531.658 129.093 531.497 128.669 531.313 128.256C531.241 128.021 531.155 127.792 531.054 127.57C530.86 127.124 530.6 126.679 530.373 126.199C530.146 125.719 530.178 125.787 530.048 125.582C529.918 125.376 529.234 124.281 528.777 123.596C527.407 121.715 525.838 119.801 524.203 117.923C523.648 117.273 523.091 116.659 522.502 116.044C520.212 113.586 517.756 111.232 515.296 109.223L513.428 107.656C512.214 106.669 511.001 105.716 509.82 104.831C507.331 102.921 504.642 101.305 501.803 100.014C501.342 99.8087 500.869 99.6291 500.388 99.4763L499.959 99.4801L499.463 99.4846L498.837 99.3181L498.177 99.324L497.452 99.1583L497.253 99.1601L496.494 99.1669L495.471 99.004L495.042 99.0078L494.613 99.0117L493.622 99.0205L492.763 99.0282L492.301 99.0324L490.716 99.0466L489.824 99.0546L488.8 99.0638L487.908 99.0718L486.851 99.0812L479.651 99.1457L478.826 99.1531L478.099 99.1597L477.273 99.1671L476.712 99.1721L474.761 99.4306L473.636 99.6472C468.607 100.725 450.882 99.6102 442.055 104.475C433.228 109.339 422.545 114.978 428.741 116.437C434.937 117.896 446.954 118.339 450.797 120.715L471.097 133.305C473.265 134.638 475.348 136.114 477.333 137.725C479.36 139.168 481.094 141.011 482.438 143.153L482.664 143.668C482.759 143.853 482.835 144.048 482.89 144.251C483.955 147.099 484.411 151.605 477.154 150.706C476.89 150.725 476.625 150.727 476.361 150.713C467.094 149.212 448.469 133.921 441.633 130.161C434.797 126.401 422.451 122.002 414.95 126.269C407.449 130.536 395.901 144.48 391.606 152.161C389.092 157.387 388.499 163.362 389.941 168.942C399.65 165.019 409.613 161.846 419.746 159.448L422.69 158.906L425.368 158.572L431.742 158.515L432.964 158.504L433.162 158.502L434.517 158.49L436.003 158.476C447.488 159.581 458.833 161.785 469.895 165.058C473.611 166.918 481.572 170.427 473.817 173.595C466.061 176.763 434.476 174.533 426.334 172.782C418.192 171.03 393.529 170.252 387.153 174.303C384.018 177.276 381.644 181.017 380.255 185.175C378.618 175.895 374.184 154.245 367.563 144.734C366.812 143.708 366.129 142.578 365.446 141.31L364.958 140.488C364.178 139.072 363.398 137.599 362.619 136.068C361.125 133.189 359.566 130.139 357.71 127.126C357.417 126.681 357.156 126.236 356.863 125.826C356.88 125.734 356.88 125.641 356.865 125.55L356.115 124.421C356.031 124.313 355.955 124.198 355.887 124.079L355.136 123.052L354.843 122.676C354.614 122.334 354.353 122.027 354.124 121.719C354.005 121.579 353.896 121.431 353.798 121.274L353.013 120.352L352.654 119.942L351.803 118.985L351.443 118.61L350.494 117.62L350.167 117.313L348.824 116.051C348.365 115.642 347.873 115.199 347.349 114.791L347.152 114.62L345.84 113.599L345.347 113.26L344.198 112.478L343.575 112.07L342.458 111.358L341.768 110.916L340.618 110.307C340.366 110.139 340.102 109.992 339.829 109.866L338.678 109.291L337.823 108.886L336.606 108.312L335.685 107.941L334.368 107.402L333.414 107.032L331.965 106.528L331.043 106.227L329.363 105.725L328.507 105.458L325.838 104.793L322.541 104.065L321.519 103.902L318.914 103.478L317.89 103.487L314.59 103.138L314.26 103.141L310.53 102.899L310.002 102.904L306.699 102.933L306.039 102.939C302.505 102.971 298.905 103.003 295.369 103.276L291.733 103.584L291.007 103.59L287.966 103.893L287.305 103.899C284.892 104.196 282.478 104.493 280.13 104.859L279.602 104.863L276.626 105.337L275.998 105.343L272.691 105.855C259.891 108.104 249.532 110.641 244.842 110.614C234.341 110.536 239.886 92.0335 244.674 88.238C246.736 86.6014 254.972 85.2194 264.853 84.4079L269.744 84.0887L269.942 84.0869L272.155 84.0671L272.881 84.0606L274.797 84.0434L288.008 83.925L289.99 83.9072L290.65 83.9013L292.136 83.888L292.929 83.8809L294.25 83.8691L295.043 83.862L296.265 83.851L297.024 83.8442L298.18 83.8338L298.874 83.8276L300.061 83.9891L300.623 83.984L302.206 84.2452L305.075 84.736L314.409 86.0982L318.664 86.6454C329.848 88.0256 339.979 88.9332 339.979 88.9332C339.979 88.9332 327.918 82.1558 313.204 72.7857L309.132 70.1369C306.374 68.3369 303.55 66.4688 300.76 64.5314C297.969 62.5941 295.113 60.6228 292.357 58.6163C270.239 42.496 258.929 32.82 250.454 31.45C241.979 30.08 229.061 26.8563 227.438 19.8133C225.815 12.7702 222.558 -0.0419321 216.443 4.38514C215.982 4.73314 215.538 5.10479 215.113 5.49871C214.943 5.61914 214.786 5.75913 214.647 5.91599L213.581 6.92396L213.047 7.514C212.681 7.89599 212.314 8.27799 211.947 8.72884C211.753 8.90862 211.574 9.1061 211.413 9.31888L210.145 10.8106C210 11.0153 209.843 11.2121 209.678 11.4L208.275 13.2717L207.941 13.6878C202.393 21.2427 196.921 31.4134 196.989 38.7802C196.914 47.2844 202.614 52.6728 205.708 61.3896C205.966 62.1103 206.224 62.8654 206.448 63.6552C206.64 64.3421 206.832 65.0977 206.99 65.8537C207.005 65.9792 207.003 66.1066 206.987 66.2324C206.98 66.9555 207.238 67.6761 207.364 68.4668C207.346 68.6387 207.344 68.8117 207.359 68.9832C207.479 69.9639 207.548 70.9518 207.564 71.9422C207.534 75.3852 207.702 78.8264 207.739 82.2688C207.645 88.4633 208.066 94.6451 208.997 100.745C208.676 102.147 208.574 103.589 208.696 105.017C209.129 107.52 209.885 109.945 210.945 112.226L210.548 112.23C210.545 112.574 210.906 112.915 211.101 113.258C211.005 113.15 210.895 113.059 210.773 112.985L209.789 112.237L209.428 111.93L208.969 111.521L208.74 111.317L208.117 110.771L207.888 110.532L207.168 109.85L206.382 109.065L205.989 108.656C205.695 108.349 205.367 108.007 205.073 107.631L204.746 107.29C203.828 106.2 202.967 105.058 202.167 103.87C202.061 103.747 201.973 103.609 201.906 103.459C201.547 102.981 201.221 102.502 200.895 101.988C200.775 101.825 200.667 101.654 200.57 101.475L199.496 99.6596C199.454 99.5609 199.399 99.4686 199.333 99.3856C198.943 98.6661 198.553 97.8779 198.197 97.0892C198.109 96.9483 198.033 96.7992 197.97 96.6437C197.678 96.0266 197.419 95.3748 197.161 94.723L196.838 93.8996C196.612 93.2819 196.386 92.6643 196.194 92.0464C196.093 91.7772 196.007 91.5021 195.937 91.2223C195.637 90.3242 195.391 89.4066 195.201 88.4748C194.724 86.379 194.312 84.3171 193.901 82.2896C192.94 76.4237 191.453 70.6741 189.46 65.1157L189.463 64.8402L189.268 64.4289L189.074 63.983C188.75 63.2285 188.393 62.4743 188.036 61.7546L187.646 61.1039C187.309 60.456 186.939 59.8274 186.539 59.2204L186.018 58.4332L184.777 56.7918C184.549 56.5184 184.353 56.2448 184.124 56.0059C183.895 55.7669 183.208 55.0156 182.716 54.538C182.46 54.2588 182.186 53.9968 181.898 53.7536C181.406 53.276 180.849 52.8335 180.291 52.3909L179.373 51.6761C178.749 51.2341 178.059 50.8272 177.37 50.3858L176.45 49.8088C175.398 49.233 174.313 48.6919 173.162 48.1858C169.648 46.661 166.055 45.3371 162.397 44.2198L158.609 43.0833C153.503 41.6487 148.262 40.4562 143.184 39.5722L139.424 38.9862C136.917 38.63 134.509 38.3417 132.199 38.1559C127.242 37.6489 122.237 37.6937 117.271 38.2896C116.43 38.3129 115.592 38.3894 114.759 38.5187L114.031 38.6973L113.236 38.911L112.243 39.1954L111.216 39.5489L110.057 39.9035L109.727 39.9065L108.567 40.3644L107.009 40.9636L106.38 41.2447L105.75 41.5258L104.258 42.1933L103.031 42.7551L102.334 43.1055L101.605 43.4564L100.344 44.0873L98.851 44.8926L98.1847 45.5527L97.4215 45.9726L95.928 46.8122L94.667 47.5121L94.3679 47.7214C94.0146 47.899 93.6711 48.0975 93.339 48.3159L92.1106 49.0498L90.882 49.8183L90.4836 50.0628L89.5537 50.6564L88.3248 51.4593L87.1622 52.2271L86.0326 52.9946L84.9031 53.7621L83.9393 54.4593L82.8758 55.2262L82.1444 55.7836C81.2136 56.4805 80.3492 57.1424 79.6171 57.7686L78.2195 58.9861C72.0271 64.6877 46.4489 77.9649 37.8394 91.9506C29.23 105.936 18.2536 122.457 28.1883 119.338C38.123 116.219 55.0485 106.738 62.2807 106.776L100.29 107.021C104.344 107.049 108.388 107.324 112.403 107.842C116.342 108.133 120.178 109.209 123.703 111.011L124.425 111.521L125.18 112.134C128.852 115.165 132.93 120.947 122.12 125.932L120.926 126.46C106.874 132.128 69.1392 126.924 56.652 127.345C44.1649 127.767 23.5845 132.221 16.4444 144.334C9.3044 156.448 3.86908 185.14 3.81255 199.187C3.75601 213.234 14.3662 223.536 14.3662 223.536C24.8714 210.086 36.2956 197.442 48.547 185.703C49.7786 184.591 51.01 183.512 52.2404 182.538C53.3823 181.581 54.5696 180.686 55.7975 179.855L57.3588 178.808L57.9896 178.423L59.0522 177.76L60.0148 177.2L60.8447 176.711L62.0728 176.011L62.7363 175.661L64.2295 174.856L64.6943 174.576L66.4522 173.7L66.751 173.525L68.708 172.544L70.8635 171.526C90.7612 162.052 118.22 152.717 123.277 152.259C129.888 151.649 143.708 149.838 135.291 160.655C126.874 171.472 81.0962 194.81 68.41 199.124C55.7238 203.438 20.6448 223.101 14.836 234.032C9.02732 244.963 18.5008 290.907 26.0788 296.726L27.4564 297.816L28.9979 299.041L29.1945 299.212L30.9324 300.642L31.1618 300.846L33.0632 302.447L33.2599 302.618C33.9597 303.162 34.6482 303.741 35.3253 304.355L42.2419 310.283C49.4529 316.519 55.9747 322.279 55.9747 322.279C55.9747 322.279 57.1246 319.17 58.9148 314.61L60.6034 310.325L60.6058 310.05L61.4156 308.08L61.4192 307.667C61.7231 306.907 62.0272 306.113 62.3641 305.352L62.3659 305.146C62.6361 304.455 62.9397 303.729 63.2429 303.038L63.4792 302.45L64.3896 300.308L64.3917 300.067L65.4024 297.785L65.7056 297.094C65.9419 296.507 66.2113 295.919 66.4806 295.331C66.5841 295.13 66.6742 294.923 66.7502 294.709C67.0868 293.983 67.4234 293.257 67.793 292.531C67.8578 292.352 67.9366 292.179 68.0287 292.012L68.8361 290.318L69.139 289.661L70.0804 287.76L70.0819 287.587L71.0562 285.685L71.3579 285.166L72.1296 283.782L72.3644 283.367C72.6664 282.813 73.0012 282.294 73.3027 281.809L73.5036 281.498L74.2064 280.424L74.4737 280.077C74.7745 279.661 75.042 279.28 75.309 278.968L76.9781 276.922L77.5462 276.159L78.8826 274.392L79.5176 273.525L81.0885 271.377L81.6233 270.649L83.8968 267.461C86.739 263.442 89.9154 258.973 93.2569 254.502C94.9948 252.145 96.7987 249.788 98.6014 247.568C98.8017 247.325 98.9689 247.083 99.1689 246.875L100.304 245.453L101.439 244.1L102.44 242.886L103.708 241.429L104.642 240.388C105.109 239.833 105.609 239.312 106.076 238.791L106.842 237.993C107.542 237.229 108.275 236.499 109.008 235.804C109.741 235.109 110.174 234.658 110.773 234.101L111.139 233.754L112.937 232.085L113.304 231.738L115.068 230.104L115.268 229.93L117.132 228.261L117.664 227.774L119.462 226.174L119.994 225.687L121.558 224.331L121.991 223.983L123.754 222.452L124.42 221.861L126.051 220.469L126.683 219.947L127.98 218.834L128.579 218.312L130.043 217.059L130.775 216.502L132.205 215.284L132.704 214.867L133.802 213.962L134.268 213.544L135.565 212.5L135.965 212.152L137.228 211.142L138.426 210.168L139.457 209.332L141.153 207.974C141.153 207.974 154.496 192.741 161.011 203.011C167.527 213.281 147.992 226.573 127.934 246.892C117.162 258.832 103.839 271.758 93.3042 283.145L89.9714 286.617C88.9379 287.728 87.9375 288.839 87.0034 289.915L84.2341 293.141L81.6973 296.228L79.4256 299.209C78.7233 300.214 78.0543 301.184 77.485 302.084C68.914 315.449 68.9346 328.222 68.4217 337.797C67.9089 347.373 71.9306 359.558 80.9774 374.935C81.5218 375.874 82.1204 376.777 82.7702 377.639C83.4563 378.493 84.1751 379.382 84.9599 380.27L87.4472 382.864L90.1989 385.422L90.4283 385.626C100.073 393.652 110.465 400.662 121.454 406.555L121.462 405.66C121.465 405.316 121.469 404.868 121.473 404.386L121.723 402.249C121.731 401.389 121.97 400.388 122.113 399.251C122.255 398.113 122.397 396.907 122.574 395.563L122.576 395.322C122.932 392.392 123.358 388.946 123.855 384.982L124.069 383.156L124.601 378.951L124.61 377.952C125.498 370.818 126.53 362.34 127.772 352.482C132.25 316.087 142.231 300.195 152.711 287.467C163.192 274.738 181.385 252.507 187.284 265.33C193.182 278.153 180.88 287.662 163.964 311.189C147.048 334.717 135.035 364.054 133.674 376.184C132.314 388.315 135.528 390.868 135.433 405.569C135.337 420.271 137.081 424.765 144.66 430.55C147.153 432.49 151.223 435.38 155.687 438.507L158.543 440.444L159.265 440.919L160.644 441.836L161.564 442.448L163.534 443.738L164.782 444.553L165.8 445.233L167.574 446.319L168.362 446.828L170.07 447.88L170.792 448.321L171.975 448.999L172.665 449.44L173.257 449.779L173.488 449.777L174.441 450.319L174.868 450.557L175.953 451.132L176.282 451.301L176.513 451.299L177.171 451.603L177.534 451.6L177.995 451.802L178.325 451.799L178.622 451.797L179.577 452.133L183.694 453.438C188.073 454.879 191.167 456.057 191.167 456.057L177.043 424.648C177.043 424.648 171.482 392.026 172.519 371.567C172.531 370.224 172.741 368.845 172.918 367.432C172.918 367.432 172.918 367.432 172.921 367.157C172.932 365.848 173.34 364.502 173.616 363.157C173.633 363.031 173.634 362.904 173.62 362.778C173.895 361.468 174.237 360.122 174.579 358.811L174.582 358.432C174.968 357.074 175.376 355.728 175.806 354.393L175.809 354.117C176.283 352.736 176.791 351.354 177.331 350.007C178.896 345.967 180.809 342.078 183.046 338.388C187.837 330.565 193.264 325.558 197.412 327.07C206.431 330.432 192.466 360.268 191.607 364.097C191.091 366.374 188.712 377.894 186.646 391.339C186.645 391.546 186.643 391.718 186.642 391.89C186.327 393.924 186.011 395.993 185.728 398.13L185.722 398.922L184.977 404.815L184.967 405.883C184.718 407.985 184.502 410.053 184.318 412.12L184.307 413.428C184.289 415.528 183.973 417.631 183.889 419.663C183.675 423.682 183.94 427.704 184.676 431.637C186.26 439.815 189.453 447.534 194.056 454.309C195.229 456.089 196.437 457.731 197.612 459.304C198.787 460.877 200.03 462.277 201.174 463.575C202.319 464.873 203.399 466.034 204.447 466.989C204.928 467.492 205.442 467.959 205.987 468.387L206.545 468.795L207.661 469.577L208.384 469.983L209.436 470.559L210.225 470.896L211.278 471.334C211.547 471.45 211.822 471.551 212.101 471.637L213.155 471.972L213.979 472.205L215.066 472.471L215.891 472.636L216.913 472.799L217.739 472.791L218.729 472.782L219.489 472.776L220.48 472.767L227.085 472.707L227.449 472.704C228.73 473.953 230.151 475.038 231.681 475.937L232.141 476.208L234.211 477.395L234.869 477.733C235.756 478.207 236.71 478.646 237.763 479.118C246.711 482.712 256.274 484.45 265.921 484.237C267.969 484.218 269.951 484.201 271.902 483.908C266.818 498.792 271.11 491.386 266.609 507.607L279.104 517.651C283.57 501.637 282.528 503.677 287.577 489C296.943 475.648 306.977 462.813 317.635 450.551C318.449 452.737 318.865 455.067 318.863 457.425L318.466 465.072C324.347 460.182 329.691 454.625 334.397 448.507L336.169 453.552C338.133 459.318 339.904 464.604 339.904 464.604L343.796 461.368L345.991 459.592L346.989 458.792L347.221 458.617L348.418 457.677L349.516 456.841L349.848 456.597L350.978 455.726L352.208 454.786L352.541 454.507L353.505 453.81L353.837 453.566L355.067 452.694L355.333 452.485L356.263 451.823L356.629 451.579L357.725 450.846L358.821 450.148L359.153 449.938L359.95 449.449L360.214 449.447L361.177 448.887L361.375 448.885L362.104 448.534L362.336 448.532L363.131 448.181L364.622 447.617L365.153 447.406L366.412 446.878L367.009 446.597L368.501 445.93L368.998 445.719L371.187 444.7C373.939 443.436 376.989 442.032 380.105 440.696C381.763 439.958 383.421 439.255 385.077 438.62L385.608 438.409L386.635 438.021L387.662 437.633L388.556 437.315L389.683 436.926L390.478 436.644L391.736 436.254L392.398 436.041L394.219 435.577L395.675 435.22L395.972 435.217L397.428 434.895L397.725 434.892L399.181 434.569L400.703 434.28L401.132 434.276L402.588 434.022L403.017 434.018L404.241 433.801L404.604 433.797L405.993 433.544L406.522 433.539L407.845 433.321L408.34 433.316L409.366 433.135L409.828 433.131L410.985 432.948L411.547 432.943L412.671 432.761L413.101 432.757L413.926 432.75L414.323 432.746L415.314 432.738L415.644 432.735L416.635 432.726L417.559 432.717L418.352 432.71L419.642 432.492C419.642 432.492 431.335 428.497 431.828 436.308C432.321 444.118 417.783 444.937 400.9 449.495C390.705 452.237 379.684 454.953 370.611 457.685L367.83 458.536L365.213 459.386L362.762 460.268L360.475 461.149L358.387 462.029L356.463 462.976C349.841 466.805 344.414 472.566 340.863 479.537C337.714 484.626 336.159 492.593 336.389 503.986C336.337 504.674 336.331 505.365 336.371 506.052C336.365 506.787 336.491 507.508 336.749 508.218C336.743 508.941 337.099 509.695 337.291 510.451C337.482 511.206 337.74 511.996 337.997 512.751L337.995 512.957C340.742 520.514 344.197 527.759 348.309 534.589L348.643 534.104L349.111 533.48L349.88 532.406L350.983 530.881C351.384 530.327 351.852 529.703 352.32 529.01L356.164 523.743L356.833 522.807L358.37 520.693L358.738 520.208C361.379 516.569 364.454 512.273 368.098 507.283C381.469 488.847 391.622 483.42 401.065 479.893C410.507 476.366 426.942 470.125 426.27 479.082C425.597 488.039 416.274 489.224 399.929 496.531C383.583 503.839 368.517 515.989 364.169 522.225C359.822 528.461 360.792 530.862 356.263 538.89C351.735 546.917 351.378 549.916 353.674 555.576C354.45 557.428 355.746 560.342 357.204 563.531L358.144 565.519L358.371 566.034L358.858 566.993L359.15 567.611L359.832 568.947C359.953 569.243 360.094 569.529 360.254 569.804C360.36 570.051 360.479 570.291 360.611 570.524L361.195 571.723L361.487 572.237L362.072 573.368L362.332 573.848C362.33 574.123 362.625 574.362 362.755 574.601L363.015 575.047L363.243 575.423C363.374 575.621 363.494 575.827 363.601 576.04L363.598 576.315L363.989 576.966L363.987 577.172L364.215 577.549L364.378 577.754L364.541 578.028L364.54 578.2L364.538 578.372L364.963 578.851L366.761 580.934C368.691 583.155 370.03 584.796 370.03 584.796L371.905 562.986C375.55 552.442 380.059 542.23 385.381 532.466C385.817 531.774 386.318 531.046 386.853 530.353C387.354 529.694 387.855 529.036 388.422 528.377L388.589 528.203C389.123 527.578 389.69 526.954 390.289 526.329L390.455 526.327C391.054 525.736 391.687 525.111 392.319 524.555L394.382 522.815C396.465 521.11 398.689 519.603 401.026 518.314C405.938 515.619 410.37 514.788 412.136 516.837C415.992 521.554 399.475 533.373 397.841 535.178C396.907 536.288 392.203 541.735 386.992 548.46L386.791 548.738C386.023 549.743 385.221 550.783 384.452 551.857L384.152 552.239L381.946 555.253L381.578 555.773C380.82 556.836 380.084 557.909 379.37 558.995L378.902 559.653C378.166 560.761 377.463 561.869 376.793 562.942C375.469 565.111 374.395 567.432 373.595 569.857C371.992 574.863 371.384 580.141 371.809 585.365C371.797 586.708 372.05 588.014 372.204 589.252C372.358 590.49 372.612 591.658 372.835 592.689C373.057 593.72 373.279 594.785 373.502 595.678C373.725 596.571 373.759 596.536 373.92 596.948C374.082 597.36 373.918 597.223 374.082 597.36C374.198 597.629 374.328 597.893 374.471 598.148L374.698 598.593C374.828 598.818 374.97 599.035 375.122 599.244L375.415 599.689L375.872 600.304L376.199 600.715L376.69 601.261C376.792 601.403 376.914 601.529 377.05 601.636L377.541 602.148L377.934 602.489L378.425 602.932L378.852 603.273L379.344 603.647L379.738 603.953L380.23 604.293L380.591 604.531L381.084 604.871L381.412 605.075L381.872 605.346L382.201 605.515L382.595 605.752L382.859 605.75L383.221 605.919L383.419 605.917L383.683 605.915L383.882 605.913C384.212 607.008 384.645 608.065 385.175 609.069C385.185 609.172 385.184 609.276 385.172 609.379C385.433 609.789 385.66 610.235 385.954 610.68L386.181 611.091L387.322 612.802C391.042 617.702 395.649 621.787 400.889 624.833C406.408 628.227 412.204 630.103 416.179 628.793C418.641 627.921 421.151 627.208 423.694 626.66L424.553 626.653L425.18 626.647C425.484 626.701 425.775 626.815 426.036 626.983C426.824 627.493 427.663 622.183 427.645 616.641C427.632 614.764 427.516 612.892 427.298 611.032C427.082 609.244 426.803 607.215 426.557 605.118C426.064 601.094 425.607 596.691 425.509 592.699C425.513 592.251 425.517 591.838 425.52 591.425C425.49 589.666 425.583 587.904 425.798 586.155C425.802 585.707 425.806 585.225 425.81 584.743C425.814 584.261 425.813 584.399 425.814 584.227C425.816 584.055 425.82 583.607 425.823 583.263L425.824 583.125C425.843 582.815 425.846 582.505 425.832 582.195C425.851 581.955 425.853 581.713 425.839 581.472L425.869 578.029C425.871 577.719 425.874 577.444 425.876 577.134L425.884 576.239C425.887 575.929 425.889 575.654 425.892 575.344L425.9 574.449C425.673 570.646 425.707 566.826 426 563.018C426.771 557.881 432.157 549.949 434.839 560.529C437.596 576.327 439.168 592.347 439.54 608.444C439.17 612.923 439.602 623.97 437.09 628.055L434.578 632.105C434.578 632.105 447.606 630.267 455.122 624.21C455.732 623.742 456.3 623.219 456.82 622.645L458.153 621.291L458.386 621.082L459.484 620.074L459.65 620.072L460.781 619.132C461.164 618.808 461.563 618.506 461.977 618.227C464.369 616.347 467.07 614.945 469.939 614.093C469.939 614.093 469.372 599.673 468.663 586.287C468.668 585.702 468.673 585.116 468.678 584.531L468.689 583.292C468.695 582.603 468.701 581.914 468.707 581.226L468.714 580.468C468.721 579.642 468.728 578.85 468.569 578.094L468.574 577.612C468.582 576.648 468.425 575.754 468.366 574.894C468.308 574.034 468.376 573.758 468.381 573.173C468.386 572.588 468.384 572.863 468.385 572.725L468.199 571.315L468.203 570.868C466.256 560.968 463.41 551.299 459.703 541.991L458.637 539.315C458.023 537.737 457.442 536.261 456.859 534.924C455.985 532.866 455.208 531.083 454.527 529.643C453.846 528.203 453.391 527.347 453.001 526.696C449.942 521.491 443.236 510.362 448.869 504.424C452.702 500.396 454.91 500.927 457.077 506.175L457.075 506.416C457.237 506.794 457.365 507.171 457.494 507.549C457.562 507.691 457.616 507.841 457.655 507.995L458.171 509.505L458.167 509.953C458.328 510.433 458.455 510.948 458.616 511.463L458.613 511.842C458.805 512.46 458.997 513.147 459.157 513.834L459.317 514.383C459.509 515.07 459.701 515.826 459.892 516.582C460.562 519.295 461.361 522.387 462.224 525.684C465.996 540.006 471.318 558.274 476.131 566.872C476.619 567.763 477.073 568.654 477.494 569.614L477.785 570.3C478.174 571.192 478.562 572.118 478.884 573.044C479.206 574.04 479.527 575.07 479.815 576.1C479.814 576.272 479.812 576.444 479.81 576.651C480.066 577.647 480.321 578.678 480.544 579.674C481.86 586.088 482.192 592.696 481.529 599.254C481.239 602.739 480.288 606.141 478.733 609.263C478.733 609.263 496.565 590.582 504.966 581.486L505.866 580.514L506.133 580.202L506.767 579.508L507.067 579.195L507.534 578.64L507.801 578.328L508.168 577.877C508.254 577.805 508.332 577.723 508.401 577.634L508.669 577.287L508.936 576.941C509.022 576.792 509.08 576.628 509.105 576.457C509.128 576.216 509.13 575.975 509.112 575.734L509.123 574.426C509.126 574.047 509.13 573.668 509.134 573.221C509.137 572.808 509.141 572.326 509.146 571.844L509.147 571.637C509.152 571.155 509.156 570.673 509.16 570.157L509.162 569.915C509.167 569.399 509.006 568.884 508.945 568.334C508.95 567.749 508.79 567.165 508.696 566.58C507.695 560.151 506.237 553.244 506.237 553.244C506.237 553.244 496.151 531.99 494.828 520.847C493.506 509.705 481.901 488.464 478.279 483.401C474.658 478.338 466.252 461.406 476.891 468.472C487.529 475.538 505.186 503.334 509.53 512.625C509.507 515.276 513.346 521.886 517.484 528.425C522.127 537.438 526.965 546.931 528.222 550.5C529.479 554.069 531.257 558.494 532.486 561.478L532.68 561.924L532.677 562.234L532.871 562.68L532.869 562.921L533.095 563.504L533.093 563.78L533.091 563.986L533.089 564.262L533.086 564.64C535.612 562.003 537.853 559.084 539.766 555.939C541.526 553.196 543.013 550.275 544.202 547.224C548.323 536.652 556.517 521.086 552.936 515.128C552.824 514.889 552.693 514.66 552.546 514.443L552.548 514.271L552.19 513.654L552.192 513.379L551.801 512.728L551.803 512.522L551.316 511.631C550.925 511.015 550.534 510.33 550.112 509.576L549.819 509.062C549.583 508.71 549.365 508.344 549.168 507.967C543.44 498.24 534.392 483.036 529.615 477.915C523.07 471.088 493.766 445.84 491.302 444.347C488.838 442.854 488.633 436.108 499.505 442.828C509.256 448.734 518.019 456.231 525.467 465.042C533.38 474.163 544.018 481.228 546.835 487.641C548.486 491.626 549.831 495.747 550.856 499.964L551.11 501.098C551.11 501.098 558.314 481.651 557.406 472.157C557.414 471.331 557.421 470.505 557.428 469.644L557.433 469.058C557.443 467.991 557.452 466.958 557.461 465.856C557.479 463.791 557.498 461.622 557.518 459.349C557.537 459.017 557.54 458.683 557.527 458.351L557.529 458.144C557.515 457.869 557.517 457.593 557.536 457.318L557.538 457.042L557.545 456.251L557.548 455.941C557.566 455.677 557.568 455.412 557.555 455.149C557.555 455.149 557.557 454.942 557.558 454.805C557.559 454.667 557.562 454.322 557.564 454.047C557.581 453.933 557.582 453.817 557.567 453.703C557.57 453.462 557.572 453.186 557.574 452.911C557.56 452.808 557.561 452.704 557.577 452.601C557.58 452.291 557.417 452.017 557.353 451.742C557.343 451.651 557.344 451.558 557.356 451.467C557.359 451.088 557.131 450.711 557.002 450.334C557.006 449.955 556.745 449.544 556.583 449.167L556.585 448.995L556.197 448L556.035 447.657L555.679 446.834C555.591 446.705 555.515 446.567 555.451 446.423L555.062 445.669L554.801 445.224L554.411 444.505L554.119 443.991C554.12 443.784 553.825 443.546 553.662 443.306L553.336 442.793L552.847 442.074L552.455 441.561L551.9 440.878C551.78 440.698 551.649 440.527 551.508 440.365C551.319 440.098 551.112 439.847 550.887 439.613L550.495 439.134L549.743 438.281L549.35 437.871L548.139 436.642C547.615 436.131 547.091 435.619 546.534 435.142L546.042 434.699L544.764 433.643L544.272 433.234L542.632 431.975C542.008 431.499 541.352 431.057 540.695 430.615L540.433 430.411L538.692 429.291L538.364 429.087C536.458 427.899 534.519 426.815 532.548 425.696L530.476 424.648L530.082 424.445L528.339 423.634L527.975 423.637L523.83 421.781L523.533 421.784L521.822 421.042L521.426 421.045L519.55 420.305C512.013 417.343 505.657 415.334 503.094 413.773C497.477 410.381 506.004 402.007 509.807 401.491C514.02 402.263 518.062 403.788 521.755 405.998L524.484 407.419L525.7 408.062L525.996 408.232L527.048 408.808L527.409 409.011L528.395 409.587L528.757 409.791L529.742 410.367L530.104 410.57L531.09 411.147L531.418 411.35L532.601 412.063L533.849 412.844L534.014 412.842L535.065 413.521L535.393 413.759L536.181 414.269L536.608 414.575L537.297 415.016L537.691 415.322L538.315 415.764L538.709 416.036L539.299 416.478L539.66 416.751L540.217 417.227L540.513 417.432L541.266 418.113L542.676 419.306L547.266 423.12L549.365 424.788C554.941 429.214 560.125 433.058 560.125 433.058C560.125 433.058 555.668 425.42 550.636 415.447L549.24 412.671C548.299 410.786 547.358 408.832 546.451 406.843C545.543 404.855 544.603 402.866 543.729 400.843C536.736 384.794 533.578 375.802 529.447 372.293L528.398 371.373C534.298 365.123 542.465 356.512 547.366 351.098L548.267 350.091L548.534 349.813L549.167 349.085L549.434 348.772L549.935 348.217L550.201 347.905L550.568 347.488L550.802 347.245C550.901 347.127 550.991 346.999 551.069 346.864L551.336 346.518C551.403 346.348 551.459 346.176 551.506 346C551.528 345.747 551.53 345.494 551.513 345.242L551.524 343.968C551.527 343.589 551.531 343.176 551.534 342.763C551.538 342.316 551.542 341.834 551.547 341.352C551.551 340.87 551.555 340.353 551.56 339.871L551.58 337.564C551.584 337.048 551.424 336.498 551.363 335.948C551.367 335.397 551.207 334.813 551.113 334.229C550.113 327.8 548.654 320.893 548.654 320.893C548.654 320.893 538.569 299.639 537.246 288.496C535.923 277.353 524.318 256.147 520.697 251.05C517.075 245.953 508.669 229.055 519.308 236.121C529.946 243.186 547.603 271.017 551.947 280.308C551.924 282.925 555.764 289.535 559.901 296.074C564.544 305.121 569.383 314.579 570.639 318.149C571.896 321.718 573.674 326.177 574.903 329.127L574.901 329.299L575.096 329.745L575.093 330.055L575.255 330.467L575.252 330.708L575.478 331.291L575.476 331.601L575.474 331.773L575.472 332.083L575.469 332.427C578.053 329.811 580.35 326.903 582.314 323.759C584.061 321.008 585.547 318.088 586.75 315.043C590.871 304.472 599.065 288.906 595.485 282.913C595.339 282.707 595.209 282.489 595.094 282.263L595.095 282.091L594.737 281.474L594.542 281.166L594.184 280.515L594.186 280.309L593.665 279.453C593.308 278.802 592.917 278.117 592.461 277.398L592.169 276.884L591.518 275.788C585.79 266.028 576.742 250.857 571.965 245.736C565.419 238.909 536.115 213.661 533.685 212.134C531.254 210.606 531.015 203.93 541.855 210.649C551.628 216.523 560.405 224.011 567.85 232.828C575.763 241.95 586.401 249.015 589.185 255.462C590.876 259.431 592.222 263.555 593.206 267.786C593.311 268.147 593.396 268.514 593.46 268.885C593.46 268.885 600.664 249.438 599.756 239.979C599.763 239.152 599.771 238.326 599.778 237.465L599.783 236.846C599.792 235.813 599.802 234.745 599.811 233.644C599.829 231.578 599.848 229.409 599.868 227.171C599.871 226.861 599.874 226.517 599.876 226.207L599.878 226L599.886 225.139L599.888 224.864L599.895 224.072L599.9 223.521C599.902 223.28 599.904 223.005 599.906 222.764C599.923 222.649 599.924 222.533 599.909 222.419C599.927 222.167 599.929 221.914 599.916 221.662C599.935 221.548 599.936 221.431 599.919 221.318C599.921 221.042 599.924 220.767 599.926 220.526L599.929 220.181L599.738 219.322L599.741 219.047C599.744 218.703 599.549 218.326 599.42 217.948C599.423 217.57 599.129 217.193 599.001 216.782L598.613 215.787C598.546 215.668 598.491 215.541 598.451 215.409L598.062 214.621L597.868 214.175L597.478 213.456C597.404 213.289 597.317 213.128 597.218 212.976L596.828 212.257L596.502 211.777L596.079 211.058C595.967 210.892 595.847 210.732 595.719 210.58C595.579 210.324 595.415 210.083 595.23 209.861L594.872 209.348L594.316 208.63L593.925 208.117C593.728 207.878 593.499 207.639 593.304 207.365L592.911 206.887L592.159 206.067L591.766 205.657L590.555 204.395L588.917 202.894L588.426 202.451L587.18 201.395L586.655 200.987L585.048 199.762L583.111 198.402L582.848 198.232L581.108 197.112L580.779 196.908C578.874 195.72 576.903 194.602 574.93 193.518L572.892 192.503L572.497 192.3L570.754 191.455L570.392 191.286C569.011 190.656 567.629 190.049 566.247 189.464L565.95 189.467L564.206 188.76L563.844 188.591L561.968 187.85C554.431 184.854 548.075 182.845 545.513 181.319C542.441 177.559 550.968 169.255 554.67 168.843ZM213.81 113.096C213.816 113.176 213.815 113.256 213.808 113.337L213.807 113.509L213.377 113.513L213.81 113.096ZM211.189 110.709L211.207 108.643C211.329 108.9 211.437 109.163 211.531 109.432L211.189 110.709ZM228.623 474.415L228.032 474.042L227.605 473.77L227.112 473.465L226.193 472.784L225.898 472.58C223.367 470.697 221.039 468.537 218.953 466.136L218.658 465.794C218.135 465.179 217.58 464.53 217.057 463.846L216.6 463.231C216.11 462.581 215.654 461.931 215.197 461.246L214.643 460.391L213.373 458.336L212.788 457.274C212.431 456.555 212.041 455.835 211.684 455.081L211.101 453.847C210.777 453.092 210.454 452.303 210.164 451.48C209.874 450.656 209.776 450.554 209.614 450.108C209.453 449.661 209.068 448.391 208.811 447.498C208.555 446.606 208.49 446.537 208.362 446.022C208.234 445.507 207.917 444.029 207.695 442.998C207.699 442.516 207.472 442.071 207.41 441.589C207.126 440.077 206.909 438.461 206.758 436.81C205.251 420.298 210.108 408.722 214.541 404L215.174 403.34C215.544 403.013 215.933 402.711 216.338 402.434L216.869 402.154C217.077 402.021 217.3 401.915 217.532 401.838L217.995 401.834L218.589 401.829L218.985 401.825C219.168 401.872 219.345 401.939 219.512 402.027L219.84 402.265C220.007 402.424 220.15 402.609 220.265 402.812L220.46 403.12C220.663 403.529 220.804 403.969 220.878 404.425C220.961 404.925 221.012 405.43 221.03 405.938L221.027 406.351C221.023 406.765 221.019 407.178 221.016 407.591C221.034 407.682 221.033 407.775 221.013 407.866C220.471 413.276 217.216 419.193 216.667 429.113C216.656 430.318 216.645 431.591 216.633 432.934L216.631 433.175C216.622 434.243 216.612 435.379 216.832 436.616C216.814 436.823 216.812 437.03 216.827 437.236C216.818 438.303 217.072 439.437 217.226 440.675C217.224 440.951 217.221 441.26 217.218 441.57C217.448 443.014 217.732 444.526 218.071 446.107L218.864 449.784L219.151 450.952C219.341 451.88 219.532 452.738 219.756 453.563C219.98 454.387 219.978 454.628 220.105 455.143L220.584 457.067L220.967 458.544C220.964 458.957 221.192 459.334 221.287 459.746C221.383 460.158 221.768 461.394 221.992 462.184C221.99 462.459 222.153 462.733 222.25 462.973L222.732 464.449C222.723 464.599 222.721 464.748 222.728 464.897C223.051 465.789 223.373 466.647 223.73 467.47C223.723 467.562 223.722 467.654 223.727 467.746L224.31 469.049C224.719 469.865 225.175 470.654 225.677 471.412C226.414 472.534 227.257 473.576 228.192 474.522L228.623 474.415ZM404.712 565.274C404.709 565.584 404.475 565.862 404.341 566.173L404.339 566.379C404.224 566.611 404.09 566.831 403.937 567.037L403.935 567.209C400.824 570.408 397.905 573.803 395.194 577.375C394.792 578.032 394.39 578.725 394.02 579.451C393.674 580.067 393.359 580.702 393.079 581.353L393.076 581.663C392.806 582.285 392.536 582.976 392.266 583.632L392.063 584.185C391.759 585.048 391.453 585.981 391.147 586.947C390.842 587.914 390.705 588.501 390.467 589.226L390.263 589.95C390.093 590.503 389.956 591.055 389.786 591.573C389.616 592.091 389.615 592.228 389.513 592.574L389.206 593.747C389.203 594.091 389.035 594.403 388.966 594.679L388.761 595.472C388.757 595.989 388.521 596.507 388.418 597.025L388.413 597.541L388.206 598.507C388.222 598.609 388.221 598.714 388.204 598.817C388.199 599.402 388.028 599.989 387.958 600.54L387.956 600.747C387.937 601.045 387.934 601.344 387.948 601.642C387.909 602.227 387.904 602.814 387.933 603.398C387.985 604.248 388.121 605.089 388.34 605.907L388.145 605.531L388.148 605.255C388.107 605.134 388.052 605.019 387.985 604.912L387.694 604.226L387.696 604.02C386.905 602.162 386.313 600.217 385.93 598.217C385.912 598.127 385.913 598.033 385.933 597.942L385.649 596.361C385.667 596.189 385.668 596.016 385.654 595.844C385.658 595.362 385.662 594.846 385.667 594.329C385.671 593.813 385.671 593.882 385.673 593.675C385.674 593.469 385.682 592.642 385.686 592.126L385.693 591.369C385.697 590.852 385.702 590.336 385.707 589.785C385.711 589.234 385.711 589.234 385.714 588.924C385.752 588.392 385.823 587.862 385.926 587.338L385.935 586.374C385.939 585.823 386.175 585.27 386.279 584.719C386.34 584.392 386.42 584.069 386.519 583.753C386.67 583.123 386.852 582.501 387.064 581.889C387.134 581.595 387.225 581.307 387.335 581.026C387.644 580.062 388.005 579.116 388.417 578.193C392.562 568.654 398.68 563.917 402.488 562.781L403.016 562.776L403.908 562.768L404.271 562.765L404.734 562.761L404.998 562.759L405.36 562.927L405.556 563.098L405.752 563.371C405.77 563.45 405.769 563.533 405.75 563.612C405.767 563.761 405.766 563.911 405.746 564.06L405.744 564.301C405.488 564.715 405.132 565.051 404.712 565.274ZM443.318 304.107C442.351 305.183 437.647 310.63 432.469 317.39L432.269 317.633L429.897 320.752L429.596 321.168C428.861 322.139 428.159 323.144 427.424 324.149L427.056 324.703C426.287 325.742 425.551 326.816 424.815 327.89L424.38 328.583C424.012 329.102 423.677 329.622 423.342 330.175C421.592 330.191 419.709 330.208 417.758 330.501C421.24 320.595 425.557 311.017 430.656 301.88C431.092 301.153 431.593 300.46 432.095 299.732C432.581 299.053 433.105 298.405 433.664 297.79L433.666 297.618C434.233 296.959 434.8 296.334 435.399 295.743L435.566 295.57C436.166 294.945 436.799 294.354 437.431 293.763L439.461 292.023C441.556 290.347 443.779 288.853 446.105 287.557C451.049 284.827 455.449 284.031 457.247 286.08C461.337 290.485 444.82 302.303 443.186 304.108L443.318 304.107ZM429.489 375.082L429.294 374.705C429.32 374.833 429.352 374.959 429.39 375.083L429.489 375.082ZM428.435 374.782L428.666 374.78L428.864 374.778L429.128 374.776L429.327 374.774C429.651 375.872 430.084 376.929 430.62 377.93L430.617 378.24L430.943 378.788C428.674 377.825 426.477 376.694 424.367 375.404L428.435 374.782ZM403.798 219.667L404.76 219.142C404.76 219.142 404.76 219.142 404.958 219.14L405.688 218.755L405.919 218.753L406.715 218.436L408.206 217.837L408.736 217.626L409.996 217.098L410.593 216.817L412.084 216.184L412.582 215.939L414.77 214.955C417.522 213.691 420.573 212.287 423.689 210.916L428.661 208.841L429.191 208.629L430.219 208.241L431.246 207.853L432.14 207.536L433.266 207.147L434.061 206.899L435.319 206.509L435.949 206.296L437.803 205.798L439.259 205.44L439.556 205.438L441.012 205.115L441.309 205.112L442.765 204.824L444.287 204.5L444.716 204.497L446.139 204.208L446.601 204.204L447.825 203.952L448.189 203.949L449.578 203.696L450.106 203.691L451.429 203.438L451.925 203.433L452.95 203.252L453.413 203.248L454.57 203.031L455.132 203.026L456.256 202.844L456.653 202.84L457.511 202.833L457.908 202.829L458.9 202.648L459.23 202.645L460.188 202.636L461.146 202.628L461.972 202.621L462.599 202.615C456.248 207.56 449.097 213.408 441.408 220.294C432.106 222.787 422.375 225.215 414.23 227.664L411.448 228.515L408.865 229.364L406.414 230.213C405.851 230.39 405.354 230.601 404.823 230.812C404.323 227.58 403.789 224.452 403.087 221.636L403.552 221.322L403.798 219.667ZM264.494 152.061C282.648 151.955 300.65 154.873 317.82 160.706C335.866 166.569 356.171 167.248 364.998 173.779C370.187 177.667 375.053 181.999 379.548 186.731C378.433 189.564 377.449 192.568 376.598 195.536C361.61 187.339 342.608 177.388 333.482 174.853C319.316 170.952 258.998 161.164 254.275 161.207C249.552 161.249 244.249 152.07 264.559 152.198L264.494 152.061ZM240.263 279.659C242.519 270.928 245.931 269.693 253.05 275.172L253.378 275.444C253.87 275.819 254.362 276.193 254.853 276.636L255.411 277.113L257.246 278.749L257.803 279.261L259.571 280.932L260.03 281.375L262.322 283.627L262.911 284.241C263.73 285.06 264.581 285.913 265.431 286.835C268.475 289.975 271.977 293.662 275.71 297.312L278.329 299.94C281.015 307.467 283.512 315.248 285.82 323.283L284.213 321.955L280.736 319.335L274.831 314.809C272.075 312.734 269.58 310.966 267.545 309.573C265.509 308.179 264.261 307.364 263.144 306.789C254.926 302.353 237.079 292.598 240.327 279.83L240.263 279.659ZM290.343 440.743C289.56 439.648 288.711 438.554 287.863 437.322C284.11 432.226 280.097 426.616 276.874 421.206L275.898 419.527C274.512 417.124 273.276 414.629 272.199 412.055C271.94 411.415 271.649 410.729 271.325 409.998L271.001 409.278C270.774 408.832 270.58 408.352 270.32 407.872C270.06 407.392 270.028 407.255 269.865 406.947L269.216 405.679C269.054 405.336 268.859 404.993 268.663 404.651C268.468 404.308 268.241 403.828 268.014 403.417L267.429 402.321L266.746 401.087L266.095 399.957L265.412 398.758L264.762 397.594C264.501 397.183 264.274 396.772 264.046 396.361L263.33 395.162C260.156 390.1 257.323 384.811 254.849 379.333C251.977 371.647 253.398 356.348 265.246 368.567C273.527 377.134 290.064 400.81 300.264 416.452C300.261 416.83 300.258 417.209 300.255 417.588C296.984 425.294 293.68 433.036 290.408 440.914L290.343 440.743ZM309.322 438.128L310.839 434.672L311.423 435.803L309.322 438.128ZM326.465 365.918L325.032 363.659L324.739 363.18L322.391 359.758C321.901 359.04 321.413 358.286 320.857 357.568L320.433 356.987L319.062 355.209C319.063 355.037 318.767 354.867 318.637 354.662C315.761 351.245 312.294 347.386 308.496 343.598C307.1 337.07 305.604 330.645 303.974 324.429C311.175 331.176 318.947 337.236 327.197 342.536C328.578 343.315 329.891 344.233 331.204 345.151L332.155 345.831C333.402 346.749 334.616 347.702 335.763 348.725L336.254 349.202C332.904 354.638 329.652 360.209 326.563 366.09L326.465 365.918ZM350.27 381.748C347.756 386.974 347.163 392.949 348.604 398.529L351.918 397.226L348.26 400.185C345.003 394.947 340.931 388.476 336.729 381.87C340.455 374.951 344.212 368.273 348.033 361.835C350.849 365.595 353.418 369.552 355.723 373.678C353.702 376.29 351.857 379.045 350.202 381.921L350.27 381.748ZM364.742 305.259C361.048 300.92 358.203 297.675 358.203 297.675C358.203 297.675 327.769 277.05 317.357 262.925C306.945 248.8 274.486 229.398 265.504 225.519C264.517 225.081 263.3 224.506 262.018 223.795C258.374 217.562 254.77 211.707 251.207 206.231L252 206.224C272.271 207.006 318.303 230.279 331.599 239.318C333.749 242.741 344.066 248.742 354.85 254.257C364.046 260.062 373.505 266.071 380.006 270.488C380.001 271.074 379.996 271.624 379.991 272.21C379.937 272.909 379.931 273.611 379.972 274.31C379.966 274.999 380.092 275.72 380.35 276.475C380.343 277.233 380.7 277.987 380.891 278.743C381.083 279.499 381.34 280.254 381.565 281.043L381.563 281.216L381.758 281.661C376.209 289.285 370.514 297.209 364.674 305.432L364.742 305.259ZM380.734 327.046C380.734 327.046 380.476 326.359 380.281 325.948L380.283 325.742C380.064 325.278 379.814 324.832 379.535 324.406L379.537 324.199C379.228 323.644 378.891 323.107 378.527 322.59C378.136 322.008 377.712 321.392 377.255 320.777L377.092 320.537L376.015 319.067C380.83 312.276 385.62 305.795 390.385 299.624C391.686 301.988 392.598 303.46 392.598 303.46L392.932 303.009L393.4 302.351L394.202 301.277L395.305 299.786C395.706 299.232 396.141 298.574 396.642 297.915L400.453 292.648L401.155 291.713C401.623 291.02 402.157 290.326 402.692 289.599L403.06 289.079L403.294 288.767L403.557 288.937L404.344 289.549L404.738 289.821L404.967 290.026L405.394 290.297L405.886 290.672C406.621 288.051 407.207 285.39 407.64 282.703L412.387 276.154C425.758 257.684 435.878 252.258 445.354 248.73C454.83 245.202 471.231 238.996 470.559 247.953C469.886 256.91 460.563 258.061 444.218 265.403C427.872 272.745 412.806 284.86 408.459 291.062C404.111 297.263 405.081 299.733 400.552 307.727C396.024 315.72 395.667 318.787 397.963 324.413C398.739 326.299 400.002 329.214 401.493 332.368L402.109 333.671C401.623 333.866 401.147 334.089 400.684 334.338C391.856 339.202 381.14 344.841 387.369 346.3C393.598 347.759 405.582 348.202 409.425 350.612L414.977 354.005L415.14 354.21L417.341 355.568C417.334 356.429 417.491 357.322 417.616 358.147C417.741 358.972 417.836 359.35 417.93 359.935C414.287 361.172 410.576 362.514 406.632 364.167C404.072 362.366 401.84 360.767 400.262 359.99C393.688 356.331 381.968 352.201 374.44 355.711C376.049 349.259 377.588 343.117 378.719 338.459L378.721 338.184C378.893 337.459 379.064 336.735 379.202 336.079C379.219 335.873 379.221 335.666 379.207 335.46C379.212 334.943 379.481 334.424 379.584 333.942L379.59 333.287C379.593 332.874 379.597 332.495 379.831 332.115C379.848 331.897 379.85 331.678 379.837 331.46C379.84 331.151 379.842 330.841 380.043 330.563L380.047 330.047C380.05 329.772 380.052 329.531 380.054 329.324C380.055 329.117 380.056 329.083 380.057 328.98C380.081 328.762 380.083 328.543 380.062 328.326C380.337 328.005 380.543 327.627 380.666 327.218L380.734 327.046ZM432.539 404.043C424.784 407.176 393.198 404.981 385.089 403.229C381.517 402.564 377.901 402.16 374.267 402.018C381.015 397.246 388.011 392.873 395.22 388.919C406.54 390.045 417.719 392.25 428.617 395.506C432.335 397.159 440.296 400.703 432.539 404.043ZM472.725 340.302L471.676 339.416C471.581 336.948 471.669 334.473 471.939 332.012C472.71 326.841 478.096 318.943 480.745 329.489C482.247 336.829 483.285 344.272 483.853 351.77C483.135 350.881 482.383 349.993 481.598 349.105L479.897 347.261C477.74 344.629 475.383 342.275 472.826 340.129L472.725 340.302ZM487.113 402.142L487.106 402.9L487.108 402.659C487.11 402.487 486.947 402.213 486.817 401.938L486.82 401.663C486.82 401.663 486.822 401.422 486.823 401.284L486.825 401.078C486.817 400.906 486.818 400.733 486.829 400.561C486.831 400.389 486.832 400.217 486.833 400.079L488.654 399.581C488.419 400.569 488.245 401.571 488.133 402.581L487.113 402.142ZM487.878 401.447L488.614 400.407C488.612 400.58 488.611 400.752 488.609 400.924L487.878 401.447ZM488.518 403.886L488.718 403.677C488.73 403.734 488.729 403.793 488.716 403.849L488.518 403.886ZM521.78 335.043C522.268 335.933 522.722 336.859 523.143 337.785L523.434 338.471C523.823 339.385 524.178 340.312 524.5 341.25C524.854 342.279 525.176 343.309 525.431 344.34L525.591 344.855C525.847 345.885 526.102 346.881 526.291 347.913C527.468 353.696 527.872 359.636 527.491 365.563C525.04 362.659 523.218 359.473 523.967 356.884C525.227 352.501 527.379 344.426 522.718 344.846L521.661 344.856L521.298 344.859L520.405 345.073L519.942 345.078L518.982 345.396L518.518 345.572L517.392 345.961L516.962 345.965L515.67 346.493L515.339 346.496L514.311 346.987L514.325 345.403L514.33 344.887L514.155 342.169C514.16 341.618 514.165 341.067 514.17 340.482C514.155 340.321 514.157 340.16 514.174 339.999C514.178 339.552 514.182 339.07 513.955 338.59C513.972 338.453 513.974 338.314 513.959 338.177C512.009 328.273 509.152 318.604 505.426 309.3C505.104 308.373 504.749 307.481 504.393 306.624C503.779 305.046 503.164 303.571 502.615 302.199C501.741 300.175 500.964 298.392 500.283 296.952C499.602 295.512 499.147 294.656 498.757 294.005C495.698 288.8 488.992 277.636 494.625 271.733C498.458 267.671 500.666 268.236 502.833 273.45L502.83 273.725C502.996 274.092 503.136 274.47 503.25 274.858C503.323 274.997 503.378 275.148 503.411 275.304C503.407 275.751 503.733 276.265 503.894 276.78L504.055 277.26C504.05 277.742 504.343 278.222 504.504 278.737L504.5 279.15C504.693 279.768 504.853 280.421 505.044 281.142L505.205 281.657C505.199 282.38 505.556 283.1 505.78 283.889C506.45 286.603 507.249 289.694 508.111 292.992C511.745 308.038 517.034 326.341 521.879 335.042L521.78 335.043ZM529.723 170.375L530.459 169.301C530.439 169.484 530.438 169.669 530.454 169.852L529.723 170.375ZM530.362 172.813L530.562 172.639C530.546 172.696 530.545 172.755 530.56 172.811L530.362 172.813Z" fill="#5EC1CE" fill-opacity="0.15"/>
<path opacity="0.8" d="M554.67 168.843C558.901 169.588 562.958 171.114 566.652 173.349L569.381 174.77L570.63 175.448L570.926 175.617L571.944 176.193L572.306 176.396L573.292 176.938L573.686 177.176L574.639 177.718L575.033 177.956L576.019 178.532L576.347 178.736L577.53 179.448L578.778 180.263L578.943 180.262L579.994 180.941L580.322 181.145L581.11 181.688L581.537 181.96L582.194 182.436L582.621 182.708L583.244 183.184L583.638 183.456L584.228 183.898L584.589 184.17L585.147 184.613L585.442 184.851L586.196 185.499L587.605 186.725C589.048 187.952 590.622 189.246 592.196 190.506L594.295 192.208C599.87 196.634 605.022 200.443 605.022 200.443C605.022 200.443 600.597 192.84 595.565 182.833C595.111 181.942 594.623 181.016 594.169 180.056C593.228 178.171 592.288 176.217 591.38 174.263C590.472 172.309 589.532 170.252 588.658 168.263C581.632 152.179 578.507 143.222 574.376 139.713C570.246 136.204 564.288 130.164 565.548 125.815C566.808 121.465 568.959 113.356 564.266 113.776C563.925 113.75 563.583 113.753 563.242 113.786L562.846 113.789L561.985 114.003L561.523 114.008L560.562 114.292L560.1 114.296L558.974 114.719L558.544 114.723L557.218 115.286L556.921 115.288C551.683 117.607 545.672 121.379 543.623 125.426C541.105 130.061 542.45 134.869 541.508 140.627C541.437 141.128 541.333 141.623 541.198 142.11C541.194 142.558 540.959 143.008 540.823 143.491C540.808 143.559 540.807 143.629 540.821 143.697C540.681 144.157 540.512 144.607 540.314 145.044L540.311 145.354C540.075 145.907 539.806 146.461 539.537 147.048C538.529 149.02 537.489 150.923 536.482 152.791C534.575 156.101 532.943 159.571 531.602 163.163C531.009 163.835 530.512 164.593 530.13 165.413C529.622 166.921 529.298 168.485 529.164 170.07L528.966 170.072L528.96 170.795L528.962 170.554C528.848 170.31 528.75 170.058 528.671 169.799L528.674 169.523C528.674 169.523 528.676 169.282 528.677 169.145C528.664 168.973 528.666 168.8 528.681 168.628L528.683 168.422L528.49 167.838C528.418 167.615 528.365 167.385 528.331 167.151L528.334 166.807L528.143 165.948C528.143 165.948 528.145 165.741 528.146 165.638C527.988 164.847 527.864 163.953 527.74 163.025C527.755 162.911 527.756 162.795 527.743 162.681L527.753 161.544L527.756 161.166C527.76 160.718 527.764 160.271 527.768 159.823C527.772 159.375 527.768 159.823 527.769 159.616C527.771 159.41 527.779 158.549 527.784 157.998C527.788 157.447 527.785 157.792 527.786 157.688C527.787 157.585 527.794 156.793 527.798 156.346C527.783 156.174 527.785 156.001 527.802 155.829L528.011 154.588L528.016 154.071C528.021 153.486 528.29 152.898 528.461 152.312C528.835 151.034 529.243 149.757 529.65 148.514C530.906 144.972 531.844 141.321 532.453 137.61L532.449 138.057C532.469 137.966 532.469 137.873 532.451 137.782C532.451 137.782 532.453 137.575 532.454 137.472L532.468 135.923L532.472 135.441C532.476 134.959 532.48 134.511 532.484 134.029C532.488 133.547 532.487 133.65 532.489 133.444L532.302 132.137L532.308 131.483C532.312 131.07 532.117 130.659 531.989 130.212L531.797 129.525C531.658 129.093 531.497 128.669 531.313 128.256C531.241 128.021 531.155 127.792 531.054 127.57C530.86 127.124 530.6 126.679 530.373 126.199C530.146 125.719 530.178 125.787 530.048 125.582C529.918 125.376 529.234 124.281 528.777 123.596C527.407 121.715 525.838 119.801 524.203 117.923C523.648 117.273 523.091 116.659 522.502 116.044C520.212 113.586 517.756 111.232 515.296 109.223L513.428 107.656C512.214 106.669 511.001 105.716 509.82 104.831C507.331 102.921 504.642 101.305 501.804 100.014C501.342 99.8087 500.869 99.6291 500.388 99.4763L499.959 99.4801L499.463 99.4846L498.837 99.3181L498.177 99.324L497.452 99.1583L497.253 99.1601L496.494 99.1669L495.471 99.004L495.042 99.0078L494.613 99.0117L493.622 99.0205L492.763 99.0282L492.301 99.0324L490.716 99.0466L489.824 99.0546L488.8 99.0638L487.908 99.0717L486.851 99.0812L479.651 99.1457L478.826 99.1531L478.099 99.1596L477.273 99.167L476.712 99.1721L474.761 99.4306L473.636 99.6472C468.607 100.725 450.882 99.6102 442.055 104.475C433.228 109.339 422.545 114.978 428.741 116.437C434.937 117.896 446.954 118.339 450.797 120.715L471.097 133.305C473.265 134.638 475.348 136.114 477.333 137.725C479.36 139.168 481.094 141.011 482.438 143.153L482.664 143.668C482.759 143.853 482.835 144.048 482.89 144.251C483.955 147.099 484.411 151.605 477.154 150.706C476.89 150.725 476.625 150.727 476.361 150.713C467.094 149.212 448.469 133.921 441.633 130.161C434.797 126.401 422.451 122.002 414.95 126.269C407.449 130.536 395.901 144.48 391.606 152.161C389.092 157.387 388.499 163.362 389.941 168.942C399.65 165.019 409.613 161.846 419.746 159.448L422.69 158.906L425.368 158.572L431.742 158.515L432.964 158.504L433.162 158.502L434.517 158.49L436.003 158.476C447.488 159.581 458.833 161.785 469.895 165.058C473.611 166.918 481.572 170.427 473.817 173.595C466.061 176.763 434.476 174.533 426.334 172.782C418.192 171.03 393.529 170.252 387.153 174.303C384.018 177.276 381.644 181.017 380.255 185.175C378.618 175.894 374.184 154.245 367.563 144.734C366.812 143.708 366.129 142.578 365.446 141.31L364.958 140.488C364.178 139.072 363.398 137.599 362.619 136.068C361.125 133.189 359.566 130.139 357.71 127.126C357.417 126.681 357.156 126.236 356.863 125.826C356.88 125.734 356.88 125.641 356.865 125.55L356.115 124.421C356.031 124.313 355.955 124.198 355.887 124.079L355.136 123.052L354.843 122.676C354.614 122.334 354.353 122.027 354.124 121.719C354.005 121.579 353.896 121.431 353.798 121.274L353.013 120.352L352.654 119.942L351.803 118.985L351.443 118.61L350.494 117.62L350.167 117.313L348.824 116.051C348.365 115.642 347.873 115.199 347.349 114.791L347.152 114.62L345.84 113.599L345.347 113.26L344.198 112.478L343.575 112.07L342.458 111.358L341.768 110.916L340.618 110.307C340.366 110.139 340.102 109.992 339.829 109.866L338.678 109.291L337.823 108.886L336.606 108.312L335.685 107.941L334.368 107.402L333.414 107.032L331.965 106.528L331.043 106.227L329.363 105.725L328.507 105.458L325.838 104.793L322.541 104.065L321.519 103.902L318.914 103.478L317.89 103.487L314.59 103.138L314.26 103.141L310.53 102.899L310.002 102.904L306.699 102.933L306.039 102.939C302.505 102.971 298.905 103.003 295.369 103.276L291.733 103.584L291.007 103.59L287.966 103.893L287.305 103.899C284.892 104.196 282.478 104.493 280.13 104.859L279.602 104.863L276.626 105.337L275.998 105.343L272.691 105.855C259.891 108.104 249.532 110.641 244.842 110.614C234.341 110.536 239.886 92.0335 244.674 88.238C246.736 86.6014 254.972 85.2194 264.853 84.4079L269.744 84.0887L269.942 84.0869L272.155 84.0671L272.881 84.0605L274.797 84.0434L288.008 83.925L289.99 83.9072L290.65 83.9013L292.136 83.888L292.929 83.8809L294.25 83.8691L295.043 83.8619L296.265 83.851L297.024 83.8442L298.18 83.8338L298.874 83.8276L300.061 83.9891L300.623 83.984L302.206 84.2452L305.075 84.736L314.409 86.0982L318.664 86.6454C329.848 88.0256 339.979 88.9332 339.979 88.9332C339.979 88.9332 327.918 82.1558 313.204 72.7857L309.132 70.1369C306.374 68.3369 303.55 66.4688 300.76 64.5314C297.969 62.5941 295.113 60.6228 292.357 58.6163C270.239 42.496 258.929 32.82 250.454 31.45C241.979 30.08 229.061 26.8563 227.438 19.8133C225.815 12.7702 222.559 -0.041932 216.443 4.38514C215.982 4.73314 215.538 5.10479 215.113 5.49871C214.943 5.61914 214.786 5.75913 214.647 5.91599L213.581 6.92396L213.047 7.514C212.681 7.89599 212.314 8.27799 211.947 8.72884C211.753 8.90862 211.574 9.1061 211.413 9.31888L210.145 10.8106C210 11.0153 209.844 11.2121 209.678 11.4L208.275 13.2717L207.941 13.6878C202.393 21.2427 196.921 31.4134 196.989 38.7802C196.914 47.2844 202.614 52.6728 205.708 61.3896C205.966 62.1103 206.224 62.8654 206.448 63.6552C206.64 64.342 206.832 65.0977 206.99 65.8537C207.005 65.9792 207.003 66.1066 206.987 66.2324C206.98 66.9555 207.238 67.6761 207.364 68.4668C207.346 68.6387 207.344 68.8117 207.359 68.9832C207.479 69.9639 207.548 70.9518 207.564 71.9422C207.534 75.3852 207.703 78.8264 207.739 82.2688C207.645 88.4633 208.066 94.6451 208.997 100.745C208.676 102.147 208.574 103.589 208.696 105.017C209.129 107.52 209.885 109.945 210.945 112.226L210.548 112.23C210.545 112.574 210.906 112.915 211.101 113.258C211.005 113.15 210.895 113.059 210.773 112.985L209.789 112.237L209.428 111.93L208.969 111.521L208.74 111.316L208.117 110.771L207.888 110.532L207.168 109.85L206.382 109.065L205.989 108.656C205.695 108.349 205.367 108.007 205.073 107.631L204.746 107.29C203.828 106.2 202.967 105.058 202.167 103.87C202.061 103.747 201.973 103.609 201.906 103.459C201.547 102.981 201.221 102.502 200.895 101.988C200.775 101.825 200.667 101.654 200.57 101.475L199.496 99.6596C199.454 99.5608 199.399 99.4686 199.333 99.3856C198.943 98.6661 198.553 97.8779 198.197 97.0892C198.109 96.9483 198.033 96.7992 197.97 96.6437C197.678 96.0266 197.419 95.3748 197.161 94.723L196.838 93.8996C196.612 93.2819 196.386 92.6643 196.194 92.0464C196.093 91.7772 196.007 91.5021 195.937 91.2223C195.637 90.3242 195.391 89.4066 195.201 88.4748C194.724 86.379 194.313 84.3171 193.901 82.2896C192.94 76.4237 191.453 70.6741 189.46 65.1157L189.463 64.8402L189.268 64.4288L189.074 63.983C188.75 63.2285 188.393 62.4743 188.037 61.7546L187.646 61.1039C187.309 60.456 186.939 59.8274 186.539 59.2204L186.018 58.4332L184.777 56.7918C184.549 56.5184 184.353 56.2448 184.124 56.0059C183.895 55.7669 183.208 55.0156 182.716 54.538C182.46 54.2588 182.186 53.9968 181.898 53.7536C181.406 53.276 180.849 52.8335 180.291 52.3909L179.373 51.6761C178.749 51.2341 178.059 50.8272 177.37 50.3858L176.45 49.8088C175.398 49.233 174.313 48.6919 173.162 48.1858C169.648 46.661 166.055 45.3371 162.397 44.2198L158.609 43.0833C153.503 41.6487 148.262 40.4562 143.184 39.5722L139.424 38.9862C136.917 38.63 134.509 38.3417 132.199 38.1558C127.242 37.6489 122.237 37.6937 117.271 38.2896C116.43 38.3129 115.592 38.3894 114.759 38.5187L114.031 38.6973L113.236 38.911L112.243 39.1954L111.216 39.5489L110.057 39.9035L109.727 39.9065L108.567 40.3644L107.009 40.9636L106.38 41.2446L105.75 41.5258L104.258 42.1933L103.031 42.7551L102.334 43.1055L101.605 43.4564L100.344 44.0873L98.851 44.8926L98.1847 45.5527L97.4215 45.9726L95.928 46.8122L94.667 47.5121L94.3679 47.7214C94.0146 47.8989 93.6711 48.0975 93.339 48.3159L92.1106 49.0498L90.882 49.8183L90.4836 50.0628L89.5537 50.6564L88.3248 51.4593L87.1622 52.2271L86.0326 52.9946L84.9031 53.7621L83.9393 54.4593L82.8758 55.2262L82.1444 55.7836C81.2136 56.4805 80.3492 57.1424 79.6172 57.7686L78.2195 58.9861C72.0271 64.6877 46.4489 77.9649 37.8394 91.9506C29.23 105.936 18.2536 122.457 28.1883 119.338C38.123 116.219 55.0485 106.738 62.2807 106.776L100.29 107.021C104.344 107.049 108.388 107.324 112.403 107.842C116.342 108.133 120.178 109.209 123.703 111.011L124.425 111.521L125.18 112.134C128.852 115.165 132.93 120.947 122.12 125.932L120.926 126.46C106.874 132.128 69.1392 126.924 56.652 127.345C44.1649 127.767 23.5845 132.221 16.4444 144.334C9.3044 156.448 3.86908 185.14 3.81255 199.187C3.75601 213.234 14.3662 223.536 14.3662 223.536C24.8714 210.086 36.2956 197.442 48.547 185.703C49.7786 184.591 51.01 183.512 52.2404 182.537C53.3823 181.581 54.5696 180.686 55.7975 179.855L57.3588 178.808L57.9896 178.423L59.0522 177.76L60.0148 177.2L60.8447 176.711L62.0728 176.011L62.7363 175.661L64.2295 174.856L64.6943 174.576L66.4522 173.7L66.751 173.525L68.708 172.544L70.8635 171.526C90.7612 162.052 118.22 152.717 123.277 152.259C129.888 151.649 143.708 149.838 135.291 160.655C126.874 171.472 81.0962 194.81 68.41 199.124C55.7238 203.438 20.6448 223.101 14.836 234.032C9.02732 244.963 18.5008 290.907 26.0788 296.726L27.4564 297.816L28.9979 299.041L29.1945 299.211L30.9324 300.642L31.1618 300.846L33.0632 302.447L33.2599 302.618C33.9597 303.162 34.6482 303.741 35.3253 304.355L42.2419 310.283C49.4529 316.519 55.9747 322.279 55.9747 322.279C55.9747 322.279 57.1246 319.17 58.9148 314.61L60.6034 310.325L60.6058 310.05L61.4156 308.08L61.4192 307.667C61.7231 306.907 62.0272 306.113 62.3641 305.352L62.3659 305.146C62.6361 304.455 62.9397 303.729 63.2429 303.038L63.4792 302.45L64.3896 300.308L64.3917 300.067L65.4024 297.785L65.7056 297.094C65.9419 296.507 66.2113 295.919 66.4806 295.331C66.5841 295.13 66.6742 294.923 66.7502 294.709C67.0868 293.983 67.4234 293.257 67.793 292.531C67.8578 292.352 67.9366 292.178 68.0287 292.012L68.8361 290.318L69.1391 289.661L70.0804 287.759L70.0819 287.587L71.0562 285.685L71.3579 285.166L72.1296 283.782L72.3644 283.367C72.6665 282.813 73.0012 282.294 73.3027 281.809L73.5036 281.497L74.2064 280.424L74.4737 280.077C74.7745 279.661 75.042 279.28 75.309 278.968L76.9781 276.922L77.5462 276.159L78.8826 274.392L79.5176 273.525L81.0885 271.377L81.6233 270.649L83.8968 267.461C86.739 263.442 89.9154 258.973 93.2569 254.502C94.9948 252.145 96.7987 249.788 98.6014 247.568C98.8017 247.325 98.9689 247.083 99.1689 246.875L100.304 245.453L101.439 244.1L102.44 242.886L103.708 241.429L104.642 240.388C105.109 239.833 105.609 239.312 106.076 238.791L106.842 237.993C107.542 237.229 108.275 236.499 109.008 235.804C109.741 235.109 110.174 234.658 110.773 234.101L111.139 233.754L112.937 232.085L113.304 231.738L115.068 230.104L115.268 229.93L117.132 228.261L117.664 227.774L119.462 226.174L119.994 225.687L121.558 224.331L121.991 223.983L123.754 222.452L124.42 221.861L126.051 220.469L126.683 219.947L127.98 218.834L128.579 218.312L130.043 217.059L130.775 216.502L132.205 215.284L132.704 214.867L133.802 213.962L134.268 213.544L135.565 212.5L135.965 212.152L137.228 211.142L138.426 210.168L139.457 209.332L141.153 207.974C141.153 207.974 154.496 192.741 161.011 203.011C167.527 213.281 147.992 226.573 127.934 246.892C117.162 258.832 103.839 271.758 93.3042 283.145L89.9714 286.617C88.9379 287.728 87.9375 288.839 87.0034 289.915L84.2341 293.141L81.6973 296.228L79.4256 299.209C78.7233 300.214 78.0543 301.184 77.4851 302.084C68.914 315.449 68.9346 328.222 68.4217 337.797C67.9089 347.373 71.9307 359.558 80.9774 374.935C81.5218 375.874 82.1204 376.777 82.7702 377.639C83.4563 378.493 84.1751 379.382 84.9599 380.27L87.4472 382.864L90.1989 385.422L90.4283 385.626C100.073 393.652 110.465 400.662 121.454 406.555L121.462 405.66C121.465 405.316 121.469 404.868 121.473 404.386L121.723 402.249C121.731 401.389 121.971 400.388 122.113 399.251C122.255 398.113 122.397 396.907 122.574 395.563L122.576 395.322C122.932 392.392 123.358 388.946 123.855 384.982L124.069 383.156L124.601 378.951L124.61 377.952C125.498 370.818 126.53 362.34 127.772 352.482C132.25 316.087 142.231 300.195 152.711 287.467C163.192 274.738 181.385 252.507 187.284 265.33C193.182 278.153 180.88 287.662 163.964 311.189C147.048 334.717 135.035 364.054 133.674 376.184C132.314 388.315 135.528 390.868 135.433 405.569C135.337 420.271 137.081 424.765 144.66 430.55C147.153 432.49 151.223 435.38 155.687 438.507L158.543 440.444L159.265 440.919L160.644 441.836L161.564 442.448L163.534 443.738L164.782 444.553L165.8 445.233L167.574 446.319L168.362 446.828L170.07 447.88L170.792 448.321L171.975 448.999L172.665 449.44L173.257 449.779L173.488 449.777L174.441 450.319L174.868 450.557L175.953 451.132L176.282 451.301L176.513 451.299L177.171 451.603L177.534 451.6L177.995 451.802L178.325 451.799L178.622 451.797L179.577 452.133L183.694 453.438C188.073 454.879 191.167 456.057 191.167 456.057L177.043 424.648C177.043 424.648 171.482 392.026 172.519 371.567C172.531 370.224 172.741 368.845 172.918 367.432C172.918 367.432 172.918 367.432 172.921 367.157C172.932 365.848 173.34 364.502 173.616 363.157C173.633 363.031 173.634 362.904 173.62 362.778C173.895 361.468 174.237 360.122 174.579 358.81L174.582 358.432C174.968 357.074 175.376 355.728 175.806 354.393L175.809 354.117C176.283 352.736 176.791 351.354 177.331 350.007C178.896 345.967 180.809 342.078 183.046 338.388C187.837 330.565 193.264 325.558 197.412 327.07C206.431 330.432 192.466 360.268 191.607 364.097C191.091 366.374 188.712 377.894 186.646 391.339C186.645 391.546 186.643 391.718 186.642 391.89C186.327 393.924 186.011 395.993 185.728 398.13L185.722 398.922L184.977 404.815L184.967 405.883C184.718 407.985 184.502 410.053 184.318 412.12L184.307 413.428C184.289 415.528 183.973 417.631 183.889 419.663C183.675 423.682 183.94 427.704 184.676 431.637C186.26 439.815 189.453 447.534 194.056 454.309C195.229 456.089 196.437 457.731 197.612 459.304C198.787 460.877 200.03 462.277 201.174 463.575C202.319 464.873 203.399 466.034 204.447 466.989C204.928 467.492 205.442 467.959 205.987 468.387L206.545 468.795L207.661 469.577L208.384 469.983L209.436 470.559L210.225 470.896L211.278 471.334C211.547 471.45 211.822 471.551 212.101 471.637L213.155 471.972L213.979 472.205L215.066 472.471L215.891 472.636L216.913 472.799L217.739 472.791L218.729 472.782L219.489 472.776L220.48 472.767L227.085 472.707L227.449 472.704C228.73 473.953 230.151 475.038 231.681 475.937L232.141 476.208L234.211 477.395L234.869 477.733C235.756 478.207 236.71 478.646 237.763 479.118C246.711 482.712 256.274 484.45 265.921 484.237C267.969 484.218 269.951 484.201 271.902 483.908C266.818 498.791 271.11 491.386 266.609 507.607L279.104 517.651C283.57 501.637 282.528 503.677 287.577 489C296.943 475.648 306.977 462.813 317.635 450.551C318.449 452.737 318.865 455.067 318.863 457.425L318.466 465.072C324.347 460.182 329.691 454.625 334.397 448.507L336.169 453.552C338.133 459.318 339.904 464.604 339.904 464.604L343.796 461.368L345.991 459.592L346.989 458.792L347.221 458.617L348.418 457.677L349.516 456.841L349.848 456.597L350.978 455.726L352.209 454.786L352.541 454.507L353.505 453.81L353.837 453.566L355.067 452.694L355.333 452.485L356.263 451.823L356.629 451.579L357.725 450.846L358.821 450.148L359.153 449.938L359.95 449.449L360.214 449.447L361.177 448.887L361.375 448.885L362.104 448.534L362.336 448.532L363.131 448.181L364.622 447.617L365.153 447.406L366.412 446.878L367.009 446.597L368.501 445.93L368.998 445.719L371.187 444.7C373.939 443.436 376.989 442.032 380.106 440.696C381.763 439.958 383.421 439.255 385.077 438.62L385.608 438.409L386.635 438.021L387.662 437.633L388.556 437.315L389.683 436.926L390.478 436.644L391.736 436.254L392.398 436.041L394.219 435.577L395.675 435.22L395.972 435.217L397.428 434.894L397.725 434.892L399.181 434.569L400.703 434.28L401.132 434.276L402.588 434.022L403.017 434.018L404.241 433.801L404.604 433.797L405.993 433.544L406.522 433.539L407.845 433.321L408.34 433.316L409.366 433.135L409.828 433.131L410.985 432.948L411.547 432.943L412.671 432.761L413.101 432.757L413.926 432.75L414.323 432.746L415.314 432.737L415.644 432.735L416.635 432.726L417.559 432.717L418.352 432.71L419.642 432.492C419.642 432.492 431.335 428.497 431.828 436.308C432.321 444.118 417.783 444.937 400.901 449.495C390.705 452.237 379.684 454.953 370.611 457.685L367.83 458.536L365.213 459.386L362.762 460.268L360.475 461.149L358.387 462.029L356.463 462.976C349.841 466.805 344.414 472.566 340.863 479.537C337.714 484.626 336.159 492.593 336.389 503.986C336.337 504.674 336.331 505.365 336.371 506.052C336.365 506.787 336.491 507.508 336.749 508.218C336.743 508.941 337.099 509.695 337.291 510.45C337.482 511.206 337.74 511.996 337.997 512.751L337.995 512.957C340.742 520.514 344.197 527.759 348.309 534.589L348.643 534.104L349.111 533.48L349.88 532.406L350.983 530.881C351.384 530.326 351.852 529.703 352.32 529.01L356.164 523.742L356.833 522.807L358.37 520.693L358.738 520.208C361.379 516.569 364.454 512.273 368.098 507.283C381.469 488.847 391.622 483.42 401.065 479.893C410.507 476.366 426.942 470.125 426.27 479.082C425.597 488.039 416.274 489.224 399.929 496.531C383.584 503.839 368.517 515.989 364.169 522.225C359.822 528.461 360.792 530.862 356.263 538.89C351.735 546.917 351.378 549.916 353.674 555.576C354.45 557.428 355.746 560.342 357.204 563.531L358.144 565.519L358.371 566.034L358.858 566.993L359.15 567.611L359.832 568.947C359.953 569.243 360.094 569.529 360.254 569.804C360.36 570.051 360.479 570.291 360.611 570.524L361.195 571.723L361.487 572.237L362.072 573.368L362.332 573.848C362.33 574.123 362.625 574.361 362.755 574.601L363.015 575.047L363.243 575.423C363.374 575.621 363.494 575.827 363.601 576.04L363.598 576.315L363.989 576.966L363.987 577.172L364.215 577.549L364.378 577.754L364.541 578.028L364.54 578.2L364.538 578.372L364.963 578.851L366.761 580.934C368.691 583.155 370.03 584.795 370.03 584.795L371.905 562.986C375.55 552.442 380.059 542.23 385.381 532.466C385.817 531.774 386.318 531.046 386.853 530.353C387.354 529.694 387.855 529.036 388.422 528.376L388.589 528.203C389.123 527.578 389.69 526.954 390.289 526.329L390.455 526.327C391.054 525.736 391.687 525.111 392.319 524.555L394.382 522.815C396.465 521.109 398.689 519.603 401.026 518.314C405.938 515.619 410.37 514.788 412.136 516.837C415.992 521.554 399.475 533.373 397.841 535.178C396.907 536.288 392.203 541.735 386.992 548.46L386.791 548.738C386.023 549.743 385.221 550.783 384.452 551.857L384.152 552.238L381.946 555.253L381.578 555.773C380.82 556.836 380.084 557.909 379.37 558.995L378.902 559.653C378.166 560.761 377.463 561.869 376.793 562.942C375.469 565.111 374.395 567.432 373.595 569.857C371.992 574.863 371.384 580.141 371.809 585.365C371.797 586.708 372.05 588.014 372.204 589.252C372.358 590.49 372.612 591.658 372.835 592.689C373.057 593.719 373.279 594.785 373.502 595.678C373.725 596.571 373.759 596.536 373.92 596.948C374.082 597.36 373.918 597.223 374.082 597.36C374.198 597.629 374.328 597.893 374.471 598.148L374.698 598.593C374.828 598.818 374.97 599.035 375.122 599.244L375.415 599.689L375.872 600.304L376.199 600.714L376.69 601.261C376.792 601.403 376.914 601.529 377.05 601.636L377.541 602.148L377.934 602.489L378.425 602.932L378.852 603.273L379.344 603.647L379.738 603.953L380.23 604.293L380.591 604.531L381.084 604.871L381.412 605.074L381.872 605.346L382.201 605.515L382.595 605.752L382.859 605.75L383.221 605.919L383.419 605.917L383.683 605.915L383.882 605.913C384.212 607.008 384.645 608.065 385.175 609.069C385.185 609.172 385.184 609.275 385.172 609.379C385.433 609.789 385.66 610.235 385.954 610.68L386.181 611.091L387.322 612.802C391.042 617.702 395.649 621.787 400.89 624.833C406.408 628.227 412.204 630.103 416.179 628.793C418.641 627.921 421.151 627.208 423.694 626.66L424.553 626.652L425.18 626.647C425.484 626.701 425.775 626.815 426.036 626.983C426.824 627.493 427.663 622.183 427.645 616.641C427.632 614.764 427.516 612.891 427.298 611.032C427.082 609.244 426.803 607.215 426.557 605.118C426.064 601.094 425.607 596.691 425.509 592.699C425.513 592.251 425.517 591.838 425.52 591.425C425.49 589.666 425.583 587.904 425.798 586.155C425.802 585.707 425.806 585.225 425.81 584.743C425.814 584.261 425.813 584.399 425.815 584.227C425.816 584.055 425.82 583.607 425.823 583.263L425.824 583.125C425.843 582.815 425.846 582.505 425.832 582.195C425.851 581.955 425.853 581.713 425.839 581.472L425.869 578.029C425.871 577.719 425.874 577.444 425.876 577.134L425.884 576.239C425.887 575.929 425.889 575.654 425.892 575.344L425.9 574.449C425.673 570.646 425.707 566.826 426 563.018C426.771 557.881 432.157 549.949 434.839 560.529C437.596 576.327 439.168 592.347 439.54 608.444C439.17 612.923 439.602 623.97 437.09 628.055L434.578 632.105C434.578 632.105 447.605 630.267 455.122 624.21C455.732 623.742 456.3 623.219 456.82 622.645L458.153 621.291L458.386 621.082L459.484 620.074L459.65 620.072L460.781 619.132C461.164 618.808 461.563 618.506 461.977 618.227C464.369 616.347 467.07 614.945 469.939 614.093C469.939 614.093 469.372 599.673 468.663 586.287C468.668 585.702 468.673 585.116 468.678 584.531L468.689 583.292C468.695 582.603 468.701 581.914 468.707 581.226L468.714 580.468C468.721 579.642 468.728 578.85 468.569 578.094L468.574 577.612C468.582 576.648 468.425 575.754 468.366 574.894C468.308 574.034 468.376 573.758 468.381 573.173C468.386 572.587 468.384 572.863 468.385 572.725L468.199 571.315L468.203 570.868C466.256 560.968 463.41 551.299 459.703 541.991L458.637 539.315C458.023 537.737 457.442 536.261 456.859 534.924C455.985 532.866 455.208 531.083 454.527 529.643C453.846 528.203 453.391 527.347 453.001 526.696C449.942 521.491 443.236 510.362 448.869 504.424C452.702 500.396 454.91 500.927 457.077 506.175L457.075 506.416C457.237 506.794 457.365 507.171 457.494 507.549C457.562 507.691 457.616 507.841 457.655 507.995L458.171 509.505L458.167 509.953C458.328 510.433 458.455 510.948 458.616 511.463L458.613 511.842C458.805 512.46 458.997 513.147 459.157 513.834L459.317 514.383C459.509 515.07 459.701 515.826 459.892 516.582C460.562 519.295 461.361 522.387 462.224 525.684C465.996 540.006 471.318 558.274 476.131 566.872C476.619 567.763 477.073 568.654 477.494 569.614L477.785 570.3C478.174 571.192 478.562 572.118 478.884 573.044C479.206 574.04 479.527 575.07 479.815 576.1C479.814 576.272 479.812 576.444 479.81 576.651C480.066 577.647 480.321 578.678 480.544 579.674C481.86 586.088 482.192 592.696 481.529 599.254C481.239 602.739 480.288 606.141 478.733 609.263C478.733 609.263 496.565 590.581 504.966 581.486L505.867 580.514L506.133 580.202L506.767 579.508L507.067 579.195L507.534 578.64L507.801 578.328L508.168 577.877C508.254 577.805 508.332 577.723 508.402 577.634L508.669 577.287L508.936 576.941C509.022 576.792 509.08 576.628 509.105 576.457C509.128 576.216 509.13 575.974 509.112 575.734L509.123 574.426C509.126 574.047 509.13 573.668 509.134 573.221C509.137 572.808 509.141 572.326 509.146 571.844L509.147 571.637C509.152 571.155 509.156 570.673 509.16 570.157L509.162 569.915C509.167 569.399 509.006 568.884 508.945 568.334C508.95 567.748 508.79 567.165 508.696 566.58C507.695 560.151 506.237 553.244 506.237 553.244C506.237 553.244 496.151 531.99 494.828 520.847C493.506 509.705 481.901 488.464 478.279 483.401C474.658 478.338 466.252 461.406 476.891 468.472C487.529 475.537 505.186 503.334 509.53 512.625C509.507 515.276 513.346 521.886 517.484 528.425C522.127 537.438 526.965 546.931 528.222 550.5C529.479 554.069 531.257 558.494 532.486 561.478L532.68 561.924L532.677 562.234L532.871 562.68L532.869 562.921L533.095 563.504L533.093 563.78L533.091 563.986L533.089 564.261L533.086 564.64C535.612 562.003 537.853 559.084 539.766 555.939C541.526 553.196 543.013 550.275 544.202 547.224C548.323 536.652 556.517 521.086 552.936 515.128C552.824 514.889 552.693 514.66 552.546 514.443L552.548 514.271L552.19 513.654L552.192 513.379L551.801 512.728L551.803 512.522L551.316 511.631C550.925 511.015 550.534 510.33 550.112 509.576L549.819 509.062C549.583 508.71 549.365 508.344 549.168 507.966C543.44 498.24 534.392 483.036 529.615 477.915C523.07 471.088 493.766 445.84 491.302 444.347C488.838 442.854 488.633 436.108 499.505 442.828C509.256 448.734 518.019 456.231 525.467 465.041C533.38 474.163 544.018 481.228 546.835 487.641C548.486 491.626 549.831 495.747 550.856 499.964L551.11 501.098C551.11 501.098 558.314 481.651 557.406 472.157C557.414 471.331 557.421 470.505 557.428 469.644L557.433 469.058C557.443 467.991 557.452 466.958 557.461 465.856C557.479 463.791 557.498 461.622 557.518 459.349C557.537 459.016 557.54 458.683 557.527 458.351L557.529 458.144C557.515 457.869 557.517 457.593 557.536 457.318L557.538 457.042L557.545 456.25L557.548 455.941C557.566 455.677 557.568 455.412 557.555 455.149C557.555 455.149 557.557 454.942 557.558 454.804C557.559 454.667 557.562 454.322 557.564 454.047C557.581 453.933 557.582 453.817 557.567 453.703C557.57 453.462 557.572 453.186 557.574 452.911C557.56 452.808 557.561 452.704 557.577 452.601C557.58 452.291 557.417 452.017 557.353 451.742C557.343 451.651 557.344 451.558 557.356 451.467C557.359 451.088 557.131 450.711 557.002 450.334C557.006 449.955 556.745 449.544 556.583 449.167L556.585 448.995L556.197 448L556.035 447.657L555.679 446.834C555.591 446.705 555.515 446.567 555.451 446.423L555.062 445.669L554.801 445.224L554.411 444.504L554.119 443.991C554.12 443.784 553.825 443.546 553.662 443.306L553.336 442.793L552.847 442.074L552.455 441.561L551.9 440.878C551.78 440.698 551.649 440.527 551.508 440.365C551.319 440.098 551.112 439.847 550.887 439.613L550.495 439.134L549.743 438.28L549.35 437.871L548.139 436.642C547.615 436.131 547.091 435.619 546.534 435.142L546.042 434.699L544.764 433.643L544.272 433.234L542.632 431.975C542.008 431.499 541.352 431.057 540.695 430.615L540.433 430.411L538.692 429.291L538.364 429.087C536.459 427.899 534.519 426.815 532.548 425.696L530.476 424.648L530.082 424.445L528.339 423.634L527.975 423.637L523.83 421.781L523.533 421.784L521.822 421.042L521.426 421.045L519.55 420.305C512.013 417.343 505.657 415.334 503.094 413.773C497.477 410.381 506.004 402.007 509.807 401.491C514.02 402.263 518.062 403.788 521.755 405.997L524.484 407.419L525.7 408.062L525.996 408.232L527.048 408.808L527.409 409.011L528.395 409.587L528.757 409.791L529.742 410.367L530.104 410.57L531.09 411.147L531.418 411.35L532.601 412.063L533.849 412.843L534.014 412.842L535.065 413.521L535.393 413.759L536.181 414.268L536.608 414.575L537.297 415.016L537.691 415.322L538.315 415.764L538.709 416.036L539.299 416.478L539.66 416.751L540.217 417.227L540.513 417.431L541.266 418.113L542.676 419.306L547.266 423.12L549.365 424.788C554.941 429.214 560.125 433.058 560.125 433.058C560.125 433.058 555.668 425.42 550.636 415.447L549.24 412.671C548.299 410.786 547.358 408.832 546.451 406.843C545.543 404.855 544.603 402.866 543.729 400.843C536.736 384.794 533.578 375.802 529.447 372.293L528.398 371.373C534.298 365.123 542.465 356.512 547.367 351.098L548.267 350.091L548.534 349.813L549.167 349.085L549.434 348.772L549.935 348.217L550.201 347.905L550.568 347.488L550.802 347.245C550.901 347.127 550.991 346.999 551.069 346.864L551.336 346.518C551.403 346.348 551.46 346.175 551.506 346C551.528 345.747 551.53 345.494 551.513 345.242L551.524 343.968C551.527 343.589 551.531 343.176 551.534 342.763C551.538 342.316 551.542 341.834 551.547 341.352C551.551 340.87 551.555 340.353 551.56 339.871L551.58 337.564C551.584 337.048 551.424 336.498 551.363 335.948C551.367 335.397 551.207 334.813 551.113 334.229C550.113 327.8 548.654 320.893 548.654 320.893C548.654 320.893 538.569 299.639 537.246 288.496C535.923 277.353 524.318 256.147 520.697 251.05C517.075 245.953 508.669 229.055 519.308 236.121C529.946 243.186 547.603 271.017 551.947 280.308C551.924 282.925 555.764 289.535 559.901 296.074C564.544 305.121 569.383 314.579 570.639 318.149C571.896 321.718 573.674 326.177 574.903 329.127L574.901 329.299L575.096 329.745L575.093 330.055L575.255 330.467L575.252 330.708L575.478 331.291L575.476 331.601L575.474 331.773L575.472 332.083L575.469 332.427C578.053 329.811 580.35 326.903 582.314 323.759C584.061 321.008 585.547 318.088 586.75 315.043C590.871 304.472 599.065 288.906 595.485 282.913C595.339 282.707 595.209 282.489 595.094 282.263L595.095 282.091L594.737 281.474L594.542 281.166L594.184 280.515L594.186 280.309L593.665 279.453C593.308 278.802 592.917 278.117 592.461 277.398L592.169 276.884L591.518 275.788C585.79 266.028 576.742 250.857 571.965 245.736C565.419 238.909 536.115 213.661 533.685 212.134C531.254 210.606 531.015 203.93 541.855 210.649C551.628 216.523 560.405 224.011 567.85 232.828C575.763 241.949 586.401 249.015 589.185 255.462C590.876 259.431 592.222 263.555 593.206 267.786C593.311 268.147 593.396 268.514 593.46 268.885C593.46 268.885 600.664 249.438 599.756 239.979C599.763 239.152 599.771 238.326 599.778 237.465L599.783 236.846C599.792 235.813 599.802 234.745 599.811 233.644C599.829 231.578 599.848 229.409 599.868 227.171C599.871 226.861 599.874 226.517 599.876 226.207L599.878 226L599.886 225.139L599.888 224.864L599.895 224.072L599.9 223.521C599.902 223.28 599.904 223.005 599.906 222.764C599.923 222.649 599.924 222.533 599.909 222.419C599.927 222.167 599.929 221.914 599.916 221.662C599.935 221.548 599.936 221.431 599.919 221.318C599.921 221.042 599.924 220.767 599.926 220.526L599.929 220.181L599.738 219.322L599.741 219.047C599.744 218.703 599.549 218.326 599.42 217.948C599.423 217.57 599.129 217.193 599.001 216.782L598.613 215.787C598.546 215.668 598.491 215.541 598.451 215.409L598.062 214.621L597.868 214.175L597.478 213.456C597.404 213.289 597.317 213.128 597.218 212.976L596.828 212.257L596.502 211.777L596.079 211.058C595.967 210.892 595.847 210.732 595.719 210.58C595.579 210.324 595.415 210.083 595.23 209.861L594.872 209.348L594.316 208.63L593.925 208.117C593.728 207.878 593.499 207.639 593.304 207.365L592.912 206.887L592.159 206.067L591.766 205.657L590.555 204.395L588.917 202.894L588.426 202.451L587.18 201.395L586.655 200.987L585.048 199.762L583.111 198.402L582.848 198.232L581.108 197.112L580.779 196.908C578.874 195.72 576.903 194.602 574.93 193.518L572.892 192.503L572.497 192.3L570.754 191.455L570.393 191.286C569.011 190.656 567.629 190.049 566.247 189.464L565.95 189.467L564.206 188.76L563.844 188.591L561.968 187.85C554.432 184.854 548.075 182.845 545.513 181.319C542.441 177.559 550.968 169.255 554.67 168.843ZM213.81 113.096C213.816 113.176 213.815 113.256 213.808 113.337L213.807 113.509L213.377 113.513L213.81 113.096ZM211.189 110.709L211.207 108.643C211.329 108.9 211.437 109.163 211.531 109.432L211.189 110.709ZM228.623 474.415L228.032 474.042L227.605 473.77L227.112 473.465L226.193 472.784L225.898 472.58C223.367 470.697 221.039 468.537 218.953 466.136L218.658 465.794C218.135 465.179 217.58 464.53 217.057 463.846L216.6 463.231C216.11 462.581 215.654 461.931 215.197 461.246L214.643 460.391L213.373 458.336L212.788 457.274C212.431 456.555 212.041 455.835 211.684 455.081L211.101 453.847C210.777 453.092 210.454 452.303 210.164 451.48C209.874 450.656 209.776 450.554 209.614 450.108C209.453 449.661 209.068 448.391 208.811 447.498C208.555 446.605 208.49 446.537 208.362 446.022C208.234 445.507 207.917 444.029 207.695 442.998C207.699 442.516 207.472 442.071 207.41 441.589C207.126 440.077 206.909 438.461 206.758 436.81C205.251 420.298 210.108 408.722 214.541 404L215.174 403.34C215.544 403.013 215.933 402.711 216.338 402.434L216.869 402.154C217.077 402.021 217.3 401.915 217.532 401.838L217.995 401.834L218.589 401.829L218.985 401.825C219.168 401.872 219.345 401.939 219.512 402.027L219.84 402.265C220.007 402.424 220.15 402.609 220.265 402.812L220.46 403.12C220.663 403.529 220.804 403.969 220.878 404.425C220.961 404.925 221.012 405.43 221.03 405.938L221.027 406.351C221.023 406.765 221.019 407.178 221.016 407.591C221.034 407.682 221.033 407.775 221.013 407.866C220.471 413.276 217.216 419.193 216.667 429.113C216.656 430.318 216.645 431.591 216.633 432.934L216.631 433.175C216.622 434.243 216.612 435.379 216.832 436.616C216.814 436.823 216.812 437.03 216.827 437.236C216.818 438.303 217.072 439.437 217.226 440.675C217.224 440.95 217.221 441.26 217.218 441.57C217.448 443.014 217.732 444.526 218.071 446.107L218.864 449.784L219.151 450.952C219.341 451.879 219.532 452.738 219.756 453.563C219.98 454.387 219.978 454.628 220.105 455.143L220.584 457.067L220.967 458.544C220.964 458.957 221.192 459.334 221.287 459.746C221.383 460.158 221.768 461.394 221.992 462.184C221.99 462.459 222.153 462.733 222.25 462.973L222.732 464.449C222.723 464.599 222.721 464.748 222.728 464.897C223.051 465.789 223.373 466.647 223.73 467.47C223.723 467.562 223.722 467.654 223.727 467.745L224.31 469.049C224.719 469.865 225.175 470.655 225.677 471.412C226.414 472.534 227.257 473.576 228.192 474.522L228.623 474.415ZM404.712 565.274C404.709 565.584 404.475 565.862 404.341 566.173L404.339 566.379C404.224 566.611 404.09 566.831 403.937 567.037L403.935 567.209C400.824 570.408 397.905 573.803 395.194 577.375C394.792 578.032 394.39 578.725 394.02 579.451C393.674 580.067 393.359 580.702 393.079 581.353L393.076 581.663C392.806 582.285 392.536 582.976 392.266 583.632L392.063 584.185C391.759 585.048 391.453 585.981 391.147 586.947C390.842 587.914 390.705 588.5 390.467 589.226L390.263 589.95C390.093 590.503 389.956 591.055 389.786 591.573C389.617 592.091 389.615 592.228 389.513 592.574L389.206 593.747C389.203 594.091 389.035 594.403 388.966 594.679L388.761 595.472C388.757 595.989 388.521 596.507 388.418 597.025L388.413 597.541L388.206 598.507C388.222 598.609 388.221 598.714 388.204 598.817C388.199 599.402 388.028 599.989 387.958 600.54L387.956 600.747C387.937 601.045 387.934 601.344 387.948 601.642C387.909 602.227 387.904 602.813 387.933 603.398C387.985 604.248 388.121 605.089 388.34 605.907L388.145 605.531L388.148 605.255C388.107 605.134 388.052 605.019 387.985 604.912L387.694 604.226L387.696 604.02C386.905 602.162 386.313 600.217 385.93 598.217C385.912 598.127 385.913 598.033 385.933 597.942L385.649 596.361C385.667 596.189 385.668 596.016 385.654 595.844C385.658 595.362 385.662 594.846 385.667 594.329C385.671 593.813 385.671 593.882 385.673 593.675C385.674 593.469 385.682 592.642 385.686 592.126L385.693 591.369C385.697 590.852 385.702 590.335 385.707 589.785C385.711 589.234 385.711 589.234 385.714 588.924C385.752 588.392 385.823 587.862 385.926 587.338L385.935 586.374C385.939 585.823 386.175 585.27 386.279 584.719C386.34 584.392 386.42 584.069 386.519 583.753C386.67 583.123 386.852 582.5 387.063 581.889C387.134 581.595 387.225 581.307 387.335 581.026C387.644 580.062 388.005 579.116 388.417 578.193C392.562 568.654 398.68 563.917 402.488 562.781L403.016 562.776L403.908 562.768L404.271 562.765L404.734 562.761L404.998 562.759L405.36 562.927L405.556 563.098L405.752 563.371C405.77 563.45 405.769 563.533 405.75 563.612C405.767 563.761 405.766 563.911 405.746 564.06L405.744 564.301C405.488 564.715 405.132 565.051 404.712 565.274ZM443.318 304.107C442.351 305.183 437.647 310.63 432.469 317.39L432.269 317.633L429.897 320.752L429.596 321.168C428.861 322.139 428.159 323.144 427.424 324.149L427.056 324.703C426.287 325.742 425.551 326.816 424.815 327.89L424.38 328.583C424.012 329.102 423.677 329.622 423.342 330.175C421.592 330.191 419.709 330.208 417.758 330.501C421.24 320.595 425.557 311.017 430.656 301.88C431.092 301.153 431.593 300.46 432.095 299.732C432.581 299.053 433.105 298.405 433.664 297.79L433.666 297.618C434.233 296.959 434.8 296.334 435.399 295.743L435.566 295.57C436.166 294.945 436.799 294.354 437.431 293.763L439.461 292.023C441.556 290.347 443.779 288.853 446.105 287.557C451.049 284.827 455.449 284.031 457.247 286.08C461.337 290.485 444.82 302.303 443.186 304.108L443.318 304.107ZM429.489 375.082L429.294 374.705C429.32 374.833 429.352 374.959 429.39 375.083L429.489 375.082ZM428.435 374.782L428.666 374.78L428.864 374.778L429.128 374.776L429.327 374.774C429.651 375.872 430.084 376.929 430.62 377.93L430.617 378.24L430.943 378.788C428.674 377.825 426.477 376.694 424.367 375.404L428.435 374.782ZM403.798 219.667L404.76 219.142C404.76 219.142 404.76 219.142 404.958 219.14L405.688 218.755L405.919 218.753L406.715 218.436L408.206 217.837L408.736 217.626L409.996 217.098L410.593 216.817L412.085 216.184L412.582 215.939L414.77 214.955C417.522 213.691 420.573 212.287 423.689 210.916L428.661 208.84L429.191 208.629L430.219 208.241L431.246 207.853L432.14 207.536L433.266 207.147L434.061 206.899L435.319 206.509L435.949 206.296L437.803 205.798L439.259 205.44L439.556 205.438L441.012 205.115L441.309 205.112L442.765 204.824L444.287 204.5L444.716 204.496L446.139 204.208L446.601 204.204L447.825 203.952L448.189 203.949L449.578 203.696L450.106 203.691L451.429 203.438L451.925 203.433L452.95 203.252L453.413 203.248L454.57 203.031L455.132 203.026L456.256 202.844L456.653 202.84L457.511 202.833L457.908 202.829L458.9 202.648L459.23 202.645L460.188 202.636L461.146 202.628L461.972 202.62L462.599 202.615C456.248 207.56 449.097 213.408 441.408 220.294C432.106 222.787 422.375 225.215 414.23 227.664L411.448 228.515L408.865 229.364L406.414 230.213C405.851 230.39 405.354 230.601 404.823 230.812C404.323 227.58 403.789 224.452 403.087 221.636L403.552 221.322L403.798 219.667ZM264.494 152.061C282.648 151.955 300.65 154.873 317.82 160.706C335.866 166.569 356.171 167.248 364.998 173.779C370.187 177.667 375.053 181.999 379.548 186.731C378.433 189.564 377.449 192.568 376.598 195.536C361.61 187.339 342.608 177.388 333.482 174.853C319.316 170.952 258.998 161.164 254.275 161.207C249.552 161.249 244.249 152.07 264.559 152.198L264.494 152.061ZM240.263 279.659C242.519 270.928 245.931 269.693 253.05 275.172L253.378 275.444C253.87 275.819 254.362 276.193 254.853 276.636L255.411 277.113L257.246 278.749L257.803 279.261L259.571 280.932L260.03 281.375L262.322 283.627L262.911 284.241C263.73 285.06 264.581 285.913 265.431 286.835C268.475 289.975 271.977 293.662 275.71 297.312L278.329 299.94C281.015 307.467 283.512 315.248 285.82 323.283L284.213 321.955L280.736 319.335L274.83 314.809C272.075 312.734 269.58 310.966 267.545 309.573C265.509 308.179 264.261 307.364 263.144 306.789C254.926 302.353 237.079 292.598 240.327 279.83L240.263 279.659ZM290.343 440.743C289.56 439.648 288.711 438.554 287.863 437.322C284.11 432.226 280.097 426.616 276.874 421.206L275.898 419.527C274.512 417.124 273.276 414.629 272.199 412.055C271.94 411.415 271.649 410.729 271.325 409.998L271.001 409.278C270.774 408.832 270.58 408.352 270.32 407.872C270.06 407.392 270.028 407.255 269.865 406.947L269.216 405.679C269.054 405.336 268.859 404.993 268.663 404.651C268.468 404.308 268.241 403.828 268.014 403.417L267.429 402.321L266.746 401.087L266.095 399.957L265.412 398.758L264.762 397.594C264.501 397.183 264.274 396.772 264.046 396.361L263.33 395.162C260.156 390.1 257.323 384.811 254.849 379.333C251.977 371.647 253.398 356.348 265.246 368.567C273.527 377.134 290.064 400.81 300.264 416.452C300.261 416.83 300.258 417.209 300.255 417.588C296.984 425.294 293.68 433.036 290.408 440.914L290.343 440.743ZM309.322 438.128L310.839 434.672L311.423 435.803L309.322 438.128ZM326.465 365.918L325.032 363.659L324.739 363.18L322.391 359.758C321.901 359.04 321.413 358.286 320.858 357.568L320.433 356.987L319.062 355.209C319.063 355.037 318.767 354.867 318.637 354.662C315.761 351.245 312.294 347.386 308.496 343.598C307.1 337.07 305.604 330.645 303.974 324.429C311.175 331.176 318.947 337.236 327.197 342.536C328.578 343.315 329.891 344.233 331.204 345.151L332.155 345.831C333.402 346.749 334.616 347.702 335.763 348.725L336.254 349.202C332.904 354.638 329.652 360.209 326.563 366.09L326.465 365.918ZM350.27 381.748C347.756 386.974 347.163 392.949 348.604 398.529L351.918 397.226L348.26 400.185C345.003 394.947 340.931 388.476 336.729 381.87C340.455 374.951 344.212 368.273 348.033 361.835C350.849 365.595 353.418 369.552 355.723 373.678C353.702 376.29 351.857 379.045 350.202 381.921L350.27 381.748ZM364.742 305.259C361.048 300.92 358.203 297.675 358.203 297.675C358.203 297.675 327.769 277.05 317.357 262.925C306.945 248.8 274.486 229.398 265.504 225.519C264.517 225.081 263.3 224.506 262.018 223.795C258.374 217.562 254.77 211.707 251.207 206.231L252 206.224C272.271 207.006 318.303 230.279 331.599 239.318C333.749 242.741 344.066 248.742 354.85 254.257C364.046 260.062 373.505 266.071 380.006 270.488C380.001 271.074 379.996 271.624 379.991 272.21C379.937 272.909 379.931 273.611 379.972 274.31C379.966 274.998 380.092 275.72 380.35 276.475C380.343 277.233 380.7 277.987 380.891 278.743C381.083 279.499 381.34 280.254 381.565 281.043L381.563 281.216L381.758 281.661C376.209 289.285 370.514 297.209 364.674 305.432L364.742 305.259ZM380.734 327.046C380.734 327.046 380.476 326.359 380.281 325.948L380.283 325.741C380.064 325.278 379.814 324.832 379.535 324.406L379.537 324.199C379.228 323.644 378.891 323.107 378.527 322.59C378.136 322.008 377.712 321.392 377.255 320.777L377.092 320.537L376.015 319.066C380.83 312.276 385.62 305.795 390.385 299.624C391.686 301.988 392.598 303.46 392.598 303.46L392.932 303.009L393.4 302.351L394.202 301.277L395.305 299.786C395.706 299.232 396.141 298.574 396.642 297.915L400.453 292.648L401.155 291.713C401.623 291.02 402.157 290.326 402.692 289.599L403.06 289.079L403.294 288.767L403.557 288.937L404.344 289.549L404.738 289.821L404.967 290.026L405.394 290.297L405.886 290.672C406.621 288.051 407.207 285.39 407.64 282.703L412.387 276.154C425.758 257.684 435.878 252.258 445.354 248.73C454.83 245.202 471.231 238.996 470.559 247.953C469.886 256.91 460.563 258.061 444.218 265.403C427.872 272.745 412.806 284.86 408.459 291.062C404.111 297.263 405.081 299.733 400.552 307.727C396.024 315.72 395.667 318.787 397.963 324.413C398.739 326.299 400.002 329.214 401.493 332.368L402.109 333.671C401.623 333.866 401.147 334.089 400.684 334.338C391.856 339.202 381.14 344.841 387.369 346.3C393.598 347.759 405.582 348.202 409.425 350.612L414.977 354.005L415.14 354.21L417.341 355.568C417.334 356.428 417.491 357.322 417.616 358.147C417.741 358.972 417.836 359.35 417.93 359.935C414.287 361.172 410.576 362.514 406.632 364.167C404.072 362.366 401.84 360.767 400.262 359.99C393.688 356.331 381.968 352.201 374.44 355.711C376.049 349.259 377.589 343.117 378.719 338.459L378.721 338.184C378.893 337.459 379.064 336.735 379.202 336.079C379.219 335.873 379.221 335.666 379.207 335.46C379.212 334.943 379.481 334.424 379.584 333.941L379.59 333.287C379.593 332.874 379.597 332.495 379.831 332.115C379.848 331.897 379.85 331.678 379.837 331.46C379.84 331.151 379.842 330.841 380.043 330.563L380.047 330.047C380.05 329.772 380.052 329.531 380.054 329.324C380.055 329.117 380.056 329.083 380.057 328.98C380.081 328.762 380.083 328.543 380.062 328.326C380.337 328.005 380.543 327.627 380.666 327.218L380.734 327.046ZM432.539 404.043C424.784 407.176 393.198 404.981 385.089 403.229C381.517 402.564 377.901 402.16 374.267 402.017C381.015 397.246 388.011 392.872 395.22 388.919C406.54 390.045 417.719 392.25 428.617 395.506C432.335 397.159 440.296 400.703 432.539 404.043ZM472.725 340.302L471.676 339.416C471.581 336.948 471.669 334.473 471.939 332.012C472.71 326.841 478.096 318.943 480.745 329.489C482.247 336.829 483.285 344.272 483.854 351.77C483.135 350.881 482.383 349.993 481.598 349.105L479.897 347.261C477.74 344.629 475.383 342.275 472.826 340.129L472.725 340.302ZM487.113 402.142L487.106 402.9L487.108 402.659C487.11 402.487 486.947 402.213 486.817 401.938L486.82 401.663C486.82 401.663 486.822 401.422 486.823 401.284L486.825 401.078C486.817 400.906 486.818 400.733 486.829 400.561C486.831 400.389 486.832 400.217 486.834 400.079L488.654 399.581C488.419 400.569 488.245 401.571 488.133 402.581L487.113 402.142ZM487.878 401.447L488.614 400.407C488.613 400.58 488.611 400.752 488.61 400.924L487.878 401.447ZM488.518 403.885L488.718 403.677C488.73 403.734 488.729 403.793 488.716 403.849L488.518 403.885ZM521.78 335.043C522.268 335.933 522.722 336.859 523.143 337.785L523.434 338.471C523.823 339.385 524.178 340.312 524.5 341.25C524.854 342.279 525.176 343.309 525.431 344.34L525.591 344.855C525.847 345.885 526.102 346.881 526.291 347.912C527.468 353.696 527.872 359.636 527.491 365.563C525.04 362.659 523.218 359.473 523.967 356.884C525.227 352.501 527.379 344.426 522.718 344.846L521.661 344.856L521.298 344.859L520.405 345.073L519.942 345.077L518.982 345.396L518.518 345.572L517.392 345.961L516.962 345.965L515.67 346.493L515.339 346.496L514.311 346.987L514.325 345.403L514.33 344.887L514.155 342.169C514.16 341.618 514.165 341.067 514.17 340.482C514.155 340.321 514.157 340.16 514.174 339.999C514.178 339.552 514.182 339.07 513.955 338.59C513.972 338.453 513.974 338.314 513.959 338.177C512.009 328.273 509.152 318.604 505.426 309.3C505.104 308.373 504.749 307.481 504.393 306.624C503.779 305.046 503.164 303.571 502.615 302.199C501.741 300.175 500.964 298.392 500.283 296.952C499.602 295.512 499.147 294.656 498.757 294.005C495.698 288.8 488.992 277.636 494.625 271.733C498.458 267.671 500.666 268.236 502.833 273.45L502.83 273.725C502.996 274.092 503.136 274.47 503.25 274.858C503.324 274.997 503.378 275.148 503.411 275.304C503.407 275.751 503.733 276.265 503.894 276.78L504.055 277.26C504.05 277.742 504.343 278.222 504.504 278.737L504.5 279.15C504.693 279.768 504.853 280.421 505.044 281.142L505.205 281.657C505.199 282.38 505.556 283.1 505.78 283.889C506.45 286.603 507.249 289.694 508.111 292.992C511.745 308.038 517.034 326.341 521.879 335.042L521.78 335.043ZM529.723 170.375L530.459 169.301C530.439 169.484 530.438 169.669 530.454 169.852L529.723 170.375ZM530.362 172.813L530.562 172.639C530.546 172.696 530.545 172.755 530.56 172.811L530.362 172.813Z" fill="black" fill-opacity="0.15"/>
</svg>
