<svg width="385" height="566" viewBox="0 0 385 566" fill="none" xmlns="http://www.w3.org/2000/svg">
<path d="M12.5155 83.3518C16.8484 83.1931 25.4994 78.88 25.5142 78.8656C25.529 78.8512 20.8708 74.163 20.5306 73.9034C16.6709 70.8886 7.39878 67.2823 2.78488 70.2538C2.03186 70.7699 1.39877 71.435 0.926854 72.2057C0.454938 72.9764 0.154788 73.8355 0.0459631 74.7269C-0.0628622 75.6183 0.022079 76.5221 0.295251 77.3793C0.568424 78.2366 1.0237 79.0281 1.63141 79.7022C4.08624 82.6594 8.81844 83.4816 12.5155 83.3518Z" fill="#F4F2DA"/>
<path d="M101.984 43.5531C102.087 43.5531 100.771 37.1339 100.638 36.73C99.1591 32.1429 93.4213 24.137 87.8905 24.137C86.9745 24.1618 86.074 24.3738 85.2472 24.7593C84.4204 25.1447 83.6857 25.6951 83.0906 26.3749C82.4955 27.0546 82.0532 27.8486 81.7923 28.7055C81.5314 29.5623 81.4577 30.4631 81.576 31.3495C81.9753 35.1433 85.4505 38.3889 88.6151 40.2642C92.3122 42.4856 101.969 43.5531 101.984 43.5531Z" fill="#F4F2DA"/>
<path d="M112.808 0.306735C107.588 2.12429 104.971 11.5294 105.119 16.3474C105.119 16.7657 106.109 23.257 106.198 23.2137L106.287 23.2281C105.873 24.6706 105.429 26.3151 104.986 28.0605C104.202 31.2917 103.329 34.9557 102.679 39.0091C101.921 43.367 101.427 47.7647 101.2 52.1792C100.913 57.1214 101.071 62.0786 101.673 66.9937C101.68 67.0512 101.68 67.1093 101.673 67.1668C100.993 65.7243 98.9668 61.7719 98.7154 61.4834C96.0092 57.4444 88.3637 51.1983 83.0104 52.612C82.1268 52.8737 81.3097 53.3142 80.6124 53.9049C79.9152 54.4956 79.3536 55.2231 78.9642 56.0399C78.5749 56.8567 78.3665 57.7445 78.3528 58.6452C78.339 59.5459 78.5202 60.4393 78.8845 61.267C80.3633 64.8156 84.5188 67.037 88.0827 68.0468C92.0755 69.1575 101.008 67.8737 101.717 67.7583C102.498 72.696 103.615 77.5776 105.059 82.3708C105.858 85.2558 106.775 88.011 107.721 90.8383C107.085 89.6122 106.524 88.5159 106.42 88.3717C103.714 84.3327 96.0683 78.0866 90.715 79.5002C89.8314 79.762 89.0143 80.2025 88.3171 80.7932C87.6199 81.3839 87.0582 82.1114 86.6689 82.9282C86.2795 83.745 86.0711 84.6328 86.0574 85.5335C86.0436 86.4341 86.2248 87.3275 86.5891 88.1553C87.994 91.7038 92.2382 93.9253 95.7873 94.9351C99.3365 95.9448 107.026 94.9351 109.097 94.7043C109.481 95.7861 109.836 96.868 110.221 97.9355C112.039 103.1 113.873 108.249 115.515 113.356C116.091 115.145 116.594 116.933 117.112 118.722C116.55 117.64 116.062 116.731 115.973 116.601C113.282 112.562 105.621 106.302 100.283 107.73C99.3966 107.988 98.5764 108.426 97.8763 109.016C97.1761 109.606 96.6119 110.333 96.2207 111.151C95.8296 111.968 95.6204 112.858 95.6068 113.76C95.5933 114.662 95.7758 115.557 96.1423 116.385C97.6211 119.934 101.791 122.155 105.34 123.15C108.89 124.146 115.84 123.295 118.236 122.977C118.709 124.824 119.182 126.685 119.537 128.488C119.759 129.728 120.069 130.911 120.217 132.181C120.365 133.45 120.572 134.647 120.735 135.873C120.986 138.225 121.252 140.662 121.43 142.97C121.563 144.586 121.667 146.115 121.77 147.659C121.223 145.855 120.055 142.365 119.922 142.091C117.976 138.292 115.064 135.043 111.463 132.657C111.261 132.219 111.014 131.803 110.723 131.416C110.22 130.667 109.56 130.029 108.788 129.545C108.015 129.06 107.147 128.739 106.239 128.603C105.331 128.467 104.404 128.519 103.518 128.755C102.632 128.991 101.807 129.406 101.096 129.973C96.8965 133.493 97.9168 143.187 99.8393 147.63C99.9576 147.904 101.51 150.616 102.516 152.303C101.762 151.395 101.037 150.5 100.268 149.577C98.7893 147.745 97.1478 145.942 95.4472 144.009L92.8593 141.268C92.0164 140.331 90.996 139.451 90.0643 138.528C87.8609 136.436 85.5096 134.416 83.0991 132.426C84.7554 131.113 90.4932 126.367 92.2086 123.136C93.924 119.905 95.0775 115.375 93.3473 111.957C92.9712 111.138 92.4222 110.405 91.736 109.807C91.0499 109.21 90.2421 108.76 89.3655 108.488C88.4889 108.215 87.5632 108.127 86.649 108.227C85.7348 108.328 84.8527 108.616 84.0604 109.072C79.3577 111.957 78.8697 121.665 80.0824 126.382C80.0824 126.67 81.3985 129.93 82.1231 131.719C80.6443 130.536 79.1655 129.353 77.6867 128.199C73.2502 124.896 68.8138 121.679 64.2886 118.448L60.1775 115.462C60.7691 115 67.7786 109.49 69.6567 105.884C71.313 102.667 72.5108 98.1086 70.7954 94.6898C70.4141 93.8734 69.8617 93.1441 69.1737 92.5488C68.4857 91.9535 67.6774 91.5055 66.8009 91.2337C65.9245 90.9619 64.9994 90.8723 64.0853 90.9706C63.1711 91.069 62.2883 91.3532 61.4937 91.8048C56.8058 94.6898 56.3031 104.398 57.5157 109.115C57.6044 109.475 59.4086 114.164 59.9261 115.332C56.9685 113.139 54.0109 110.918 51.0533 108.61C47.187 105.523 43.5315 102.194 40.1101 98.6423C40.391 98.4259 47.7259 92.728 49.6484 89.0208C51.3047 85.804 52.5025 81.2457 50.7871 77.827C50.4092 77.0095 49.8592 76.2788 49.1728 75.6823C48.4864 75.0858 47.6789 74.6369 46.803 74.3648C45.9271 74.0927 45.0022 74.0035 44.0886 74.1029C43.175 74.2023 42.2931 74.4882 41.5001 74.9419C36.7975 77.827 36.3095 87.5206 37.5074 92.252C37.5813 92.5694 38.9862 96.1468 39.6516 97.8345L39.3854 97.9932C36.0476 94.3252 33.0487 90.3766 30.4238 86.1935C28.945 83.9143 27.6732 81.6496 26.4754 79.4137C27.9542 78.4905 34.668 74.1774 36.8271 71.0328C38.9862 67.8881 40.5537 63.6183 39.2228 60.0264C38.939 59.1772 38.4758 58.3955 37.8632 57.7317C37.2506 57.0678 36.5021 56.5367 35.666 56.1724C34.83 55.8081 33.9249 55.6189 33.0092 55.6168C32.0936 55.6148 31.1877 55.8 30.3499 56.1605C25.3515 58.4974 23.7692 68.1189 24.4347 72.8936C24.4347 73.1532 25.1445 75.7786 25.6621 77.6394C25.1445 76.6297 24.5825 75.5911 24.1833 74.6102C22.3643 70.9318 20.9299 67.3976 19.7468 64.354C19.0518 62.5941 18.4602 60.9785 17.9279 59.4783C18.8891 57.8338 22.7044 51.1406 23.0741 47.4622C23.4438 43.7838 22.8671 39.2111 19.9982 36.629C19.3421 35.9989 18.5576 35.5104 17.6954 35.1953C16.8332 34.8802 15.9128 34.7455 14.9938 34.7999C14.0747 34.8543 13.1777 35.0966 12.361 35.5112C11.5442 35.9257 10.826 36.5031 10.2528 37.206C6.9403 41.5335 10.0754 50.7656 12.9295 54.7036C13.1661 55.0498 17.6469 59.9399 17.7061 59.8533V59.7524C18.1941 61.1949 18.7264 62.7816 19.3475 64.4838C20.5158 67.5996 21.8763 71.1193 23.6065 74.8554C25.4372 78.9017 27.506 82.8416 29.8027 86.6551C32.3514 90.9309 35.2861 94.9764 38.5721 98.7433L38.7052 98.8731C37.3299 98.0364 33.3815 95.8438 33.0709 95.6996C28.531 93.7955 18.6081 92.6992 14.9555 96.7526C14.3711 97.4475 13.9432 98.2547 13.6996 99.1216C13.4561 99.9884 13.4023 100.896 13.5417 101.784C13.6812 102.672 14.0109 103.522 14.5092 104.278C15.0076 105.034 15.6635 105.68 16.4343 106.172C19.6137 108.379 24.4051 107.946 27.9246 106.879C31.9026 105.653 38.6165 99.7674 39.1488 99.2914C42.5573 102.972 46.2132 106.427 50.092 109.634C52.3546 111.553 54.7207 113.428 57.1016 115.26C55.8742 114.582 54.7947 113.976 54.632 113.918C50.092 112 40.1692 110.904 36.5165 114.971C35.9324 115.665 35.5048 116.471 35.2613 117.337C35.0179 118.203 34.9642 119.109 35.1037 119.996C35.2432 120.883 35.5728 121.732 36.0711 122.487C36.5693 123.242 37.225 123.885 37.9954 124.377C41.1748 126.584 45.9662 126.165 49.4857 125.083C53.0053 124.002 58.9058 119.083 60.4289 117.755L63.1056 119.876C67.542 123.208 71.9785 126.511 76.2374 129.873C77.7163 131.055 79.1951 132.281 80.6739 133.508C79.5943 132.902 78.6775 132.397 78.5296 132.339C73.9897 130.421 64.0668 129.324 60.4142 133.392C59.8301 134.086 59.4024 134.892 59.1589 135.758C58.9155 136.623 58.8618 137.529 59.0013 138.417C59.1408 139.304 59.4704 140.153 59.9687 140.908C60.4669 141.662 61.1226 142.306 61.893 142.797C65.0724 145.004 69.8638 144.586 73.3981 143.504C76.9325 142.422 82.271 137.979 84.0456 136.421C85.5244 137.705 86.9145 139.004 88.2454 140.316C89.1327 141.225 90.0495 142.047 90.8925 143.028L93.3177 145.841C94.7965 147.673 96.4528 149.563 97.9168 151.395C98.9372 152.65 99.8836 153.876 100.874 155.116C99.3956 153.919 96.438 151.625 96.1866 151.467C91.9868 148.899 82.3597 146.346 78.1155 149.822C77.4315 150.423 76.8846 151.157 76.5102 151.977C76.1358 152.797 75.9424 153.685 75.9424 154.583C75.9424 155.48 76.1358 156.368 76.5102 157.188C76.8846 158.008 77.4315 158.742 78.1155 159.343C80.9105 161.997 85.7166 162.228 89.3693 161.737C93.3917 161.132 100.667 156.53 101.584 155.967C103.167 158.001 104.675 160.006 106.021 161.911C108.416 165.156 110.546 168.171 112.409 170.883L115.633 169.368C113.607 166.555 111.285 163.411 108.668 160.021C107.071 157.944 105.311 155.693 103.492 153.515C105.375 151.505 107.138 149.391 108.771 147.183C112.661 148.625 120.764 148.755 121.8 148.755C121.962 151.308 122.11 153.789 122.199 156.141C122.347 159.776 122.426 163.117 122.436 166.166L125.896 164.536C125.807 161.896 125.659 159.026 125.467 155.982C125.319 153.385 125.097 150.616 124.831 147.774C125.866 147.529 134.296 145.437 137.49 142.956C140.447 140.72 143.405 137.085 143.405 133.262C143.411 132.365 143.225 131.477 142.857 130.655C142.488 129.832 141.947 129.095 141.268 128.49C140.589 127.885 139.788 127.425 138.915 127.142C138.043 126.858 137.119 126.756 136.203 126.843C130.717 127.521 126.088 136.162 125.171 140.893C125.171 141.167 124.876 144.269 124.757 146.231C124.654 145.062 124.565 143.937 124.432 142.754C124.195 140.388 123.885 138.037 123.559 135.542C123.367 134.315 123.16 133.089 122.953 131.849C122.746 130.608 122.436 129.339 122.184 128.069C121.519 125.184 120.705 122.184 119.818 119.241C121.933 119.025 129.445 118.188 132.669 116.356C135.893 114.524 139.442 111.423 139.945 107.701C140.093 106.816 140.049 105.91 139.815 105.042C139.581 104.174 139.163 103.364 138.587 102.665C138.011 101.965 137.29 101.392 136.472 100.982C135.653 100.573 134.756 100.336 133.837 100.287C128.292 100.142 122.391 107.99 120.75 112.548C120.646 112.822 119.848 116.212 119.434 118.087C118.886 116.327 118.354 114.553 117.733 112.779C115.973 107.672 114.006 102.551 112.084 97.4306C111.492 95.8727 110.916 94.3003 110.339 92.728C111.093 92.728 120.055 91.8481 123.648 89.843C126.842 88.0543 130.421 84.8952 130.924 81.1159C131.07 80.2296 131.024 79.3232 130.788 78.4555C130.553 77.5877 130.132 76.7781 129.555 76.0789C128.978 75.3798 128.256 74.8069 127.438 74.3973C126.619 73.9877 125.721 73.7506 124.802 73.7014C119.271 73.5571 113.356 81.4188 111.714 85.9627C111.596 86.3089 110.442 91.1845 110.235 92.4395C108.964 88.9919 107.736 85.5444 106.657 82.0823C105.186 77.4289 104.025 72.6876 103.181 67.8881C103.536 67.8881 112.882 67.0514 116.579 65.0031C119.774 63.2144 123.352 60.0697 123.855 56.3481C124.002 55.4626 123.956 54.5569 123.72 53.6899C123.484 52.823 123.063 52.0142 122.486 51.3162C121.908 50.6182 121.187 50.0466 120.368 49.6386C119.549 49.2305 118.651 48.9953 117.733 48.948C112.202 48.8038 106.287 56.651 104.645 61.1949C104.542 61.4978 103.669 65.2195 103.3 66.9649H102.886C102.16 62.0363 101.892 57.0538 102.087 52.0782C102.087 49.3808 102.368 46.8131 102.634 44.3031C104.394 44.3031 112.424 44.3031 115.944 42.8606C119.463 41.4181 123.234 38.6774 124.151 34.9846C124.398 34.1198 124.456 33.2141 124.321 32.3262C124.186 31.4382 123.861 30.5878 123.367 29.8302C122.874 29.0726 122.222 28.4247 121.456 27.9285C120.689 27.4323 119.823 27.0988 118.916 26.9498C113.43 26.2141 106.671 33.3834 104.527 37.7397C104.409 37.9705 103.492 40.5093 102.856 42.3558C103.004 41.2306 103.122 40.0622 103.27 38.9803C103.847 34.9413 104.616 31.2629 105.34 28.0173C105.755 26.1853 106.183 24.5264 106.583 22.9685C108.328 22.1174 115.278 18.641 117.659 15.756C120.04 12.871 122.095 8.75982 121.223 5.06701C121.033 4.19205 120.657 3.36571 120.119 2.64144C119.581 1.91717 118.894 1.31109 118.1 0.8624C117.307 0.413715 116.427 0.132424 115.515 0.036706C114.603 -0.0590118 113.681 0.0329787 112.808 0.306735Z" fill="#F4F2DA"/>
<path d="M196.702 131.56C196.702 131.56 198.299 140.575 196.288 145.278C194.276 149.981 191.467 151.149 190.668 153.111C189.869 155.073 191.467 159.775 191.881 161.766C192.295 163.757 193.079 165.689 189.869 166.093C188.399 166.298 186.918 166.428 185.433 166.483C185.433 166.483 177.802 175.888 172.582 175.888C167.362 175.888 162.955 168.012 156.567 157.381C150.178 146.749 154.555 140.532 162.186 135.44C169.817 130.348 196.702 131.56 196.702 131.56Z" fill="white" stroke="#263238" stroke-miterlimit="10"/>
<path d="M185.758 153.154C185.108 154.77 184.073 155.88 183.451 155.635C182.83 155.39 182.86 153.904 183.451 152.289C184.043 150.673 185.137 149.577 185.758 149.808C186.379 150.038 186.424 151.611 185.758 153.154Z" fill="#263238"/>
<path d="M184.664 146.057C184.664 146.057 188.672 142.927 190.683 147.629" stroke="#263238" stroke-miterlimit="10"/>
<path d="M176.205 134.301L175.007 229.925C175.007 229.925 167.362 230.314 157.72 229.925C148.078 229.535 134.429 225.597 118.753 215.817C103.078 206.037 109.511 174.691 109.511 174.691L133.615 146.086L176.205 134.301Z" fill="#263238" stroke="#263238" stroke-miterlimit="10"/>
<path d="M143.257 104.527C143.257 104.527 134.828 114.712 131.205 123.727C127.582 132.743 132.018 142.148 132.018 142.148L196.287 120.986C196.287 120.986 196.287 115.88 187.858 108.826C179.429 101.772 154.511 99.0315 148.892 99.8249C143.272 100.618 143.257 104.527 143.257 104.527Z" fill="#7D7D7D" stroke="#263238" stroke-miterlimit="10"/>
<path d="M147.28 80.2212C147.28 80.2212 130.007 85.3277 126.798 93.2038C123.589 101.08 132.418 108.869 138.436 110.831C144.455 112.793 162.541 106.504 165.366 100.647C168.19 94.7905 166.918 88.1406 161.742 82.9764C156.567 77.8122 149.291 79.4855 147.28 80.2212Z" fill="white" stroke="#263238" stroke-miterlimit="10"/>
<path d="M142.858 133.132C142.858 133.132 132.418 137.041 129.549 138.614C126.68 140.186 127.937 143.316 129.149 145.667C130.362 148.019 129.948 150.37 131.959 150.37C133.97 150.37 172.124 138.224 185.389 135.094C198.654 131.964 199.851 135.094 200.65 131.17C201.449 127.247 202.262 119.024 199.452 117.063C196.642 115.101 164.153 124.116 142.858 133.132Z" fill="#7D7D7D" stroke="#263238" stroke-miterlimit="10"/>
<path d="M80.9993 338.675L90.2271 416.238C90.2271 416.238 77.7755 435.438 74.5665 449.546C71.3575 463.653 54.8835 496.961 54.8835 496.961L69.7455 504.794C69.7455 504.794 97.0592 465.211 105.902 451.493C114.746 437.775 119.212 431.904 119.212 426.812C119.212 421.72 130.466 347.301 130.466 347.301L80.9993 338.675Z" fill="#263238" stroke="#263238" stroke-miterlimit="10"/>
<path d="M78.5888 504.375C78.5888 504.375 84.2527 506.741 82.907 510.434C81.5612 514.127 65.9154 519.911 65.3682 520.69C64.8211 521.469 78.5888 504.375 78.5888 504.375Z" fill="#7D7D7D" stroke="#263238" stroke-miterlimit="10"/>
<path d="M48.0958 488.32C48.9091 489.113 80.2156 503.322 80.2156 503.322C80.2156 503.322 67.5274 522.334 64.8803 526.489C62.2332 530.643 68.9175 540.178 70.7956 543.597C72.6737 547.016 83.75 553.074 85.909 554.127C88.0681 555.18 86.4414 556.493 85.909 560.171C85.3766 563.85 84.2823 564.643 81.5909 564.643C78.8995 564.643 61.3459 562.811 55.6821 559.652C50.0182 556.493 48.6725 550.997 46.2473 548.862C43.822 546.727 43.0087 546.756 43.0087 546.756L40.5686 550.175C40.5686 550.175 37.3448 550.434 31.9472 547.016C28.7185 544.97 26.182 542.039 24.6566 538.591C24.6566 538.591 30.3205 528.595 34.1062 525.955C37.892 523.315 41.1158 517.805 42.1953 514.415C43.2749 511.025 48.0958 488.32 48.0958 488.32Z" fill="#7D7D7D" stroke="#263238" stroke-miterlimit="10"/>
<path d="M69.8195 519.694C69.8195 519.694 76.4889 512.092 79.3874 515.367C82.2858 518.641 69.8195 519.694 69.8195 519.694Z" stroke="#263238" stroke-miterlimit="10"/>
<path d="M69.8195 519.695C69.8195 519.695 84.0752 523.388 80.7331 524.47C77.391 525.551 69.8195 519.695 69.8195 519.695Z" stroke="#263238" stroke-miterlimit="10"/>
<path d="M70.0413 530.34C68.9763 526.878 68.8996 523.197 69.8195 519.695C71.5062 525.149 72.6259 530.755 73.1616 536.428" stroke="#263238" stroke-miterlimit="10"/>
<path d="M76.4298 560.171C69.6864 559.652 55.3863 555.699 50.2548 547.535C45.9367 540.669 42.9791 543.856 35.4667 539.385C32.4496 537.734 30.1132 535.114 28.8564 531.97C26.5495 535.288 24.6714 538.591 24.6714 538.591C26.1968 542.039 28.7333 544.97 31.9619 547.016C37.3596 550.434 40.5834 550.175 40.5834 550.175L43.0234 546.756C43.0234 546.756 43.822 546.756 46.262 548.862C48.7021 550.968 50.033 556.493 55.6969 559.652C61.3607 562.811 78.8994 564.643 81.6056 564.643C84.3119 564.643 85.3323 563.878 85.8794 560.315C83.2471 560.431 79.8015 560.431 76.4298 560.171Z" fill="white" stroke="#263238" stroke-miterlimit="10"/>
<path d="M93.4509 342.988L132.817 424.461C132.817 424.461 129.608 442.492 133.615 455.806C137.623 469.121 157.276 505.573 157.276 505.573L159.288 511.458L176.161 503.221C176.161 503.221 165.72 470.707 163.31 457.768C160.899 444.829 162.911 427.201 158.874 415.055C154.836 402.91 142 342.209 142 342.209L93.4509 342.988Z" fill="#263238" stroke="#263238" stroke-miterlimit="10"/>
<path d="M94.9741 352.335L118.147 401.741" stroke="#858585" stroke-miterlimit="10"/>
<path d="M183.185 508.212C183.185 508.212 185.418 494.955 187.193 494.955C188.967 494.955 196.066 496.254 193.212 500.61C190.358 504.966 184.339 516.03 184.339 516.03L183.185 508.212Z" fill="#7D7D7D" stroke="#263238" stroke-miterlimit="10"/>
<path d="M181.825 496.571L149.69 511.068L169.373 542.804C170.064 546.982 171.281 551.062 172.996 554.949C175.407 559.652 176.605 561.614 176.605 561.614L193.877 556.132C193.877 556.132 193.877 553.392 195.888 553.002C196.921 552.867 197.97 552.896 198.994 553.089C200.717 553.369 202.487 553.111 204.051 552.353C210.484 549.237 226.855 541.289 229.738 539.717C233.361 537.755 233.657 532.619 232.444 530.658C231.232 528.696 227.224 526.33 223.202 526.33C219.18 526.33 203.977 528.292 198.299 526.72C192.62 525.147 191.467 525.941 189.056 523.2C186.646 520.459 181.825 496.571 181.825 496.571Z" fill="#7D7D7D" stroke="#263238" stroke-miterlimit="10"/>
<path d="M184.294 516.031C184.294 516.031 190.979 508.429 193.877 511.703C196.775 514.977 184.294 516.031 184.294 516.031Z" stroke="#263238" stroke-miterlimit="10"/>
<path d="M184.294 516.031C184.294 516.031 198.55 519.724 195.208 520.82C191.866 521.916 184.294 516.031 184.294 516.031Z" stroke="#263238" stroke-miterlimit="10"/>
<path d="M184.516 526.662C183.461 523.197 183.384 519.519 184.294 516.016C185.987 521.469 187.107 527.075 187.636 532.749" stroke="#263238" stroke-miterlimit="10"/>
<path d="M229.738 539.716C232.992 536.932 233.672 532.143 232.267 530.412C223.606 536.993 214.174 542.547 204.17 546.958C184.945 555.454 177.373 555.454 173.514 555.916C175.584 559.897 174.993 561.412 176.634 561.686C189.943 563.301 193.907 556.204 193.907 556.204C193.907 556.204 193.907 553.463 195.918 553.074C196.897 552.915 197.896 552.915 198.875 553.074C200.813 553.362 204.791 553.939 206.506 553.074C213.161 549.828 223.113 545.414 229.738 539.716Z" fill="white" stroke="#263238" stroke-miterlimit="10"/>
<path d="M146.082 208.762C146.082 208.762 163.828 302.237 170.186 321.047C173.93 331.702 176.488 342.719 177.817 353.907L148.078 356.648L146.082 208.762Z" fill="#7D7D7D" stroke="#263238" stroke-miterlimit="10"/>
<path d="M111.522 169.57C111.522 169.57 98.2126 182.899 88.2306 209.542C78.2487 236.185 71.7567 307.719 69.3462 320.615C66.9357 333.511 65.7231 352.061 68.1336 352.84C70.544 353.619 107.514 364.207 128.395 364.207C149.276 364.207 161.343 364.597 161.343 361.856C161.343 359.115 156.907 238.897 152.899 218.514C148.892 198.132 142.858 196.184 136.44 184.024C130.022 171.864 111.522 169.57 111.522 169.57Z" fill="#7D7D7D" stroke="#263238" stroke-miterlimit="10"/>
<path d="M145.268 193.443C141.718 186.14 137.247 179.298 131.959 173.075C123.515 163.281 117.496 153.472 112.276 156.616C107.056 159.761 101.821 166.411 103.034 170.724C104.246 175.037 128.469 186.029 133.615 189.116C138.762 192.203 144.071 198.175 145.268 193.443Z" fill="white" stroke="#263238" stroke-miterlimit="10"/>
<path d="M146.215 201.435C146.215 201.435 131.885 193.184 121.223 197.107C114.316 199.895 108.155 204.188 103.211 209.657L99.5288 195.304C99.5288 195.304 114.228 184.197 124.89 184.197C135.553 184.197 143.597 190.313 146.215 201.435Z" fill="#263238" stroke="#263238" stroke-miterlimit="10"/>
<path d="M206.61 222.928L204.672 221.485L223.113 190.428C223.2 190.282 223.317 190.156 223.457 190.058C223.598 189.96 223.758 189.892 223.927 189.86C224.097 189.827 224.271 189.83 224.44 189.868C224.608 189.906 224.766 189.979 224.903 190.082C225.138 190.255 225.3 190.507 225.357 190.789C225.415 191.071 225.363 191.364 225.213 191.611L206.61 222.928Z" fill="#263238" stroke="#263238" stroke-miterlimit="10"/>
<path d="M186.424 232.29C189.086 230.228 190.977 227.369 191.807 224.154C192.842 219.163 193.981 211.792 195.947 210.176C197.914 208.561 206.299 205.849 207.63 205.3C208.961 204.752 211.638 205.3 210.055 209.022C208.473 212.744 202.942 213.97 202.942 213.97L209.641 217.302C209.641 217.302 213.678 209.7 214.861 209.945C216.044 210.191 216.503 211.864 217.287 216.018C218.07 220.173 216.473 221.788 214.255 224.673C212.037 227.558 212.421 229.506 210.602 232.347C208.783 235.189 195.016 243.931 193.3 244.45C191.585 244.969 186.424 232.29 186.424 232.29Z" fill="white" stroke="#263238" stroke-miterlimit="10"/>
<path d="M118.354 203.671C118.354 203.671 111.921 213.076 118.354 229.535C124.787 245.994 138.85 289.486 143.671 288.678C148.492 287.87 197.101 252.226 197.899 248.706C198.698 245.186 188.258 232.636 187.06 231.396C185.862 230.155 177.004 237.267 170.985 239.618C164.966 241.969 155.724 246.816 155.724 246.816C155.724 246.816 150.903 206.426 143.671 199.401C136.44 192.376 128.794 196.66 127.597 197.05" fill="#7D7D7D"/>
<path d="M118.354 203.671C118.354 203.671 111.921 213.076 118.354 229.535C124.787 245.994 138.85 289.486 143.671 288.678C148.492 287.87 197.101 252.226 197.899 248.706C198.698 245.186 188.258 232.636 187.06 231.396C185.862 230.155 177.004 237.267 170.985 239.618C164.966 241.969 155.724 246.816 155.724 246.816C155.724 246.816 150.903 206.426 143.671 199.401C136.44 192.376 128.794 196.66 127.597 197.05" stroke="#263238" stroke-miterlimit="10"/>
<path d="M184.649 259.712L179.015 251.085L184.235 247.162L189.47 256.177L184.649 259.712Z" fill="white" stroke="#263238" stroke-miterlimit="10"/>
<path d="M101.244 193.126C101.673 194.684 101.643 222.452 100.446 250.22C99.2477 277.989 93.229 308.844 90.4192 321.019C87.6095 333.193 80.3929 334.694 67.9709 333.915C55.5488 333.136 37.8918 330.005 29.8767 323.745C21.8615 317.484 22.6601 303.81 27.0669 292.457C31.4738 281.104 38.2615 245.143 38.2615 229.896C38.2615 218.759 39.4594 207.032 43.3191 196.502C49.7963 178.932 64.4069 179.018 81.1471 179.538C90.7446 179.841 98.5823 183.562 101.244 193.126Z" fill="#FFCB58" stroke="#263238" stroke-miterlimit="10"/>
<path d="M100.209 190.284C96.8818 182.826 89.7243 179.811 81.1768 179.537C64.407 179.004 49.7964 178.931 43.3488 196.501C39.4891 207.031 38.2912 218.759 38.2912 229.895C38.2912 245.142 31.4739 281.118 27.067 292.457C22.9116 303.146 21.9651 315.897 28.5458 322.576C27.1558 316.806 29.9359 304.646 38.2764 285.417C48.3028 262.337 47.5042 223.245 47.5042 223.245C47.5042 223.245 47.5042 197.035 50.7132 190.774C53.9223 184.514 66.3443 185.307 85.1844 187.255C90.2887 187.741 95.3255 188.756 100.209 190.284Z" fill="#FFCB58" stroke="#263238" stroke-miterlimit="10"/>
<path d="M100.845 199.776L101.466 199.242C101.501 197.201 101.427 195.159 101.244 193.126C98.5823 183.562 90.7446 179.84 81.1767 179.537C64.407 179.004 49.7963 178.931 43.3487 196.501C39.489 207.031 38.2912 218.759 38.2912 229.895C38.1959 234.822 37.8108 239.739 37.1377 244.623C39.6813 246.282 43.4226 248.013 44.7092 244.753C46.7204 239.661 49.1456 207.248 50.3287 197.814C51.5117 188.38 63.9486 188.827 78.7958 190.774C93.6431 192.722 100.845 199.776 100.845 199.776Z" fill="#263238" stroke="#263238" stroke-miterlimit="10"/>
<path d="M65.9598 286.989L63.15 243.57L85.5984 245.532L82.8034 288.937L65.9598 286.989Z" fill="white" stroke="#263238" stroke-miterlimit="10"/>
<path d="M51.5266 282.302L51.9258 256.87L73.5756 260.39L70.7659 288.548L51.5266 282.302Z" fill="white" stroke="#263238" stroke-miterlimit="10"/>
<path d="M92.4157 279.994C61.9522 283.124 45.5078 275.291 45.5078 275.291C45.5078 275.291 36.2948 299.943 33.485 309.32C30.6753 318.696 36.2948 320.658 49.1161 324.971C61.9374 329.284 81.1915 333.179 84.7998 326.529C88.4081 319.879 92.4157 279.994 92.4157 279.994Z" fill="#263238" stroke="#263238" stroke-miterlimit="10"/>
<path d="M11.9344 562.693H384.336" stroke="#263238" stroke-miterlimit="10"/>
</svg>
