<svg width="232" height="575" viewBox="0 0 232 575" fill="none" xmlns="http://www.w3.org/2000/svg">
<path d="M3.8581e-05 0C7.07193e-06 89.1859 3.8581e-05 37.1146 1.15732e-05 77.553C4.50129e-06 186.681 2.57064e-06 143.122 2.57064e-06 199.976C2.57063e-06 318.553 3.8581e-05 575 3.8581e-05 575C3.8581e-05 575 232 332.946 232 214.37C231.93 157.493 207.456 102.967 163.955 62.7725C120.454 22.5775 61.4844 -3.70593e-05 3.8581e-05 0ZM3.8581e-05 292.032C3.8581e-05 274.205 3.8581e-05 292.032 3.8581e-05 274.205C3.8581e-05 229.335 3.8581e-05 270.505 3.8581e-05 247.616C3.8581e-05 214.37 3.8581e-05 227.119 3.8581e-05 206.623C3.8581e-05 191.113 3.8581e-05 193.882 3.8581e-05 171.171C3.8581e-05 154.552 3.8581e-05 162.307 3.8581e-05 144.027C14.8824 144.027 15.8876 145.068 30.4056 150.631C44.9235 156.194 57.3318 165.614 66.0621 177.701C74.7924 189.787 79.452 203.998 79.452 218.534C79.452 238.027 71.0817 256.722 56.1816 270.505C41.2814 284.289 21.072 292.032 3.8581e-05 292.032Z" fill="#263238" fill-opacity="0.08"/>
</svg>
