<svg width="203" height="605" viewBox="0 0 203 605" fill="none" xmlns="http://www.w3.org/2000/svg">
<path opacity="0.4" d="M173.203 484.365C178.333 479.214 184.027 473.051 190.132 465.637C189.954 459.691 189.076 453.782 187.515 448.017C185.07 438.897 181.543 430.064 176.999 421.682C167.56 430.155 160.583 435.74 160.583 435.74L144.424 448.931C145.706 462.027 146.424 474.351 146.886 484.365H173.203ZM144.424 446.572L151.554 440.651C155.658 437.281 162.789 424.234 170.638 409.165C167.295 402.826 164.332 396.316 161.763 389.666C153.299 404.398 145.655 415.857 141.243 422.067C142.526 430.252 143.552 438.532 144.424 446.572Z" fill="white"/>
</svg>
