<svg width="811" height="576" viewBox="0 0 811 576" fill="none" xmlns="http://www.w3.org/2000/svg">
<path d="M0.000207782 576C43.838 555.8 50.8787 546.863 131.445 462.355C174.706 416.977 202.97 432.702 320.641 394.962C404.855 350.034 422.736 308.7 445.233 256.516C467.337 205.241 523.678 178.407 609.047 162.682C694.416 146.957 744.458 97.5852 765.364 57.1005C794.849 -7.74713e-06 811 -7.74713e-06 811 -7.74713e-06C218.613 -7.74713e-06 445.233 -7.74713e-06 0.000207782 -7.74713e-06C0.000207782 192.192 0.000207782 152.946 0.000207782 275.303C0.000207782 416.706 0.000207782 498.084 0.000207782 451.335C0.000207782 614.669 0.000207782 398.236 0.000207782 576Z" fill="#64989A" fill-opacity="0.25"/>
</svg>
