<svg width="204" height="605" viewBox="0 0 204 605" fill="none" xmlns="http://www.w3.org/2000/svg">
<path d="M52.8774 217.986C68.2891 239.506 89.9682 267.526 101.476 289.961C97.0576 275.133 92.7937 261.075 88.8894 248.509C82.9816 237.677 67.2103 210.283 49.0245 192.036C25.907 168.831 15.9921 153.907 28.4756 152.655C37.1061 151.74 62.3299 183.274 78.1526 214.568C74.7106 203.832 71.9879 195.695 70.344 190.929C69.6248 188.763 68.8542 186.355 68.135 183.852C51.7717 162.378 36.8616 139.963 23.4925 116.74C0.118078 75.8173 -7.3309 37.2061 8.08079 53.8157C22.4137 69.1254 47.3806 145.289 67.2103 180.915C65.5664 174.753 63.9739 167.916 62.5354 161.224C59.7613 154.677 56.0625 148.081 53.9562 141.967C50.7198 132.771 47.8943 123.432 45.5826 113.947C41.8149 99.1532 39.9012 83.9979 39.8802 68.7884C39.5005 50.948 44.6969 33.3931 54.8296 18.2856C57.5009 14.4822 73.9401 -8.48235 78.9746 3.36101C79.6349 5.30633 79.7586 7.37673 79.3342 9.37898C76.9197 28.9735 69.3679 46.9312 64.6931 65.9961C57.655 94.4972 62.3299 142.352 64.6931 162.717L68.0836 174.56C64.7958 139.078 81.1836 97.0488 96.3898 89.7309C115.192 80.6318 96.7494 116.306 82.2624 147.503C75.3729 161.139 72.1454 176.146 72.8613 191.218C75.7895 201.473 79.18 212.979 82.7247 224.63C83.4439 226.234 84.1118 227.839 84.7282 229.444C83.209 221.877 82.623 214.172 82.9816 206.48C84.42 186.163 109.027 145.385 125.364 151.114C141.7 156.843 114.01 178.364 99.2153 203.398C91.5109 217.175 88.5327 232.846 90.6874 248.268L91.1498 251.013C92.8451 256.308 94.489 261.412 96.287 266.274C100.14 277.636 103.685 288.372 107.127 298.819C102.927 283.677 101.075 268.046 101.63 252.409C103.685 222.56 122.179 194.395 137.899 190.544C153.619 186.692 123.925 235.366 114.01 262.76C108.648 278.728 107.746 295.719 111.39 312.107C116.168 326.935 120.689 341.475 125.261 356.977C123.973 336.755 124.437 316.468 126.648 296.316C129.679 263.097 150.742 241.865 165.229 242.732C179.716 243.598 164.612 262.471 143.652 302.767C132.608 323.897 127.632 347.36 129.217 370.842C131.117 377.39 133.018 384.082 135.022 391.063C137.231 399.006 139.08 407.672 140.621 416.531C142.728 408.635 145.759 397.273 149.509 384.323C153.73 370.116 156.804 355.632 158.704 340.993C160.656 324.047 165.434 302.96 183.158 294.149C184.372 293.401 185.742 292.902 187.177 292.686C188.612 292.47 190.079 292.542 191.482 292.897C192.885 293.252 194.192 293.882 195.317 294.745C196.441 295.608 197.357 296.685 198.004 297.904C199.648 301.521 200.026 305.533 199.083 309.363C196.722 320.892 192.659 332.056 187.011 342.534C190.486 348.789 192.084 355.811 191.634 362.851C191.634 365.498 191.634 368.146 191.172 370.746C192.713 368.05 194.203 365.595 195.641 363.38C198.154 359.388 203 353.5 203 353.5L203 371.5L203 449.5C203 458.5 203 450 203 463V466C203 466 203 467.563 203 468.5L194.922 467.563C189.785 473.581 185.058 479.262 180.435 484.51L203.552 484.365L203.552 510.748L203.552 604.243H110.569L94.3349 510.748H74.4024V484.51H141.186C141.704 473.139 141.361 461.749 140.159 450.424C135.694 446.194 130.75 442.432 125.415 439.206C95.9788 420.19 46.0963 418.601 32.945 381.915C29.7599 373.057 33.4073 361.743 44.6579 362.225C52.7747 362.562 61.4052 369.254 66.4397 374.742C83.2385 392.94 95.9274 411.813 117.812 425.63C118.788 426.256 132.607 436.559 139.44 442.913C138.721 436.944 137.744 430.589 136.512 423.656C131.226 414.861 125.178 406.488 118.428 398.621C100.551 377.775 73.3236 365.547 53.9049 345.663C47.9971 339.597 40.1885 317.692 58.2715 323.132C66.337 325.587 75.8409 336.997 82.1083 342.389C99.9345 357.266 118.069 373.394 129.833 393.181C129.319 391.207 128.857 389.281 128.343 387.307C115.852 368.511 101.765 350.688 86.218 334.012C60.5319 306.57 34.0752 288.613 33.6642 273.592C33.2532 258.571 66.4397 283.75 94.5918 318.173C107.431 333.852 117.396 351.424 124.079 370.168C118.942 350.67 113.445 331.028 108 312.155C104.301 302.767 93.3588 278.454 73.1695 261.412C47.4833 240.132 26.9344 222.56 23.4925 201.184C20.0505 179.808 30.325 186.644 52.8774 217.986ZM173.448 484.365C178.585 479.214 184.288 473.051 190.401 465.637C190.223 459.691 189.344 453.782 187.781 448.017C185.332 438.897 181.8 430.064 177.25 421.682C167.797 430.155 160.811 435.74 160.811 435.74L144.628 448.931C145.913 462.027 146.632 474.351 147.094 484.365H173.448ZM144.628 446.572L151.769 440.651C155.879 437.281 163.02 424.234 170.88 409.165C167.532 402.826 164.564 396.316 161.992 389.666C153.516 404.398 145.861 415.857 141.443 422.067C142.728 430.252 143.755 438.532 144.628 446.572Z" fill="#64989A" fill-opacity="0.4"/>
</svg>
